<?xml version="1.0" standalone="no"?>
<!DOCTYPE svg PUBLIC "-//W3C//DTD SVG 1.1//EN" "http://www.w3.org/Graphics/SVG/1.1/DTD/svg11.dtd" >
<svg xmlns="http://www.w3.org/2000/svg">
<metadata></metadata>
<defs>
<font id="tinregular" horiz-adv-x="1105" >
<font-face units-per-em="2048" ascent="1536" descent="-512" />
<missing-glyph horiz-adv-x="497" />
<glyph horiz-adv-x="2048" />
<glyph horiz-adv-x="2048" />
<glyph unicode="&#xd;" horiz-adv-x="2048" />
<glyph unicode=" "  horiz-adv-x="497" />
<glyph unicode="&#x09;" horiz-adv-x="497" />
<glyph unicode="&#xa0;" horiz-adv-x="497" />
<glyph unicode="!" horiz-adv-x="598" d="M184 0v229h230v-229h-230zM199 1458h204l-24 -1034h-154z" />
<glyph unicode="&#x22;" horiz-adv-x="856" d="M143 1458h197l-55 -459h-92zM516 1458h197l-56 -459h-92z" />
<glyph unicode="#" horiz-adv-x="1323" d="M123 440v170h196l41 267h-172v170h199l66 411h176l-66 -411h295l66 411h174l-64 -411h166v-170h-192l-43 -267h170v-170h-197l-70 -440h-178l72 440h-295l-70 -440h-176l70 440h-168zM494 610h294l41 267h-292z" />
<glyph unicode="$" horiz-adv-x="1122" d="M123 453h168q11 -85 64.5 -139t148.5 -66v428q-350 82 -350 340q0 150 92.5 240t257.5 104v289h123v-291q320 -26 362 -342h-170q-13 77 -61 128t-131 64v-399q68 -19 115.5 -36.5t99.5 -47.5t83.5 -66.5t52.5 -92.5t21 -126q0 -148 -100.5 -238.5t-271.5 -105.5v-327 h-123v327q-183 13 -274.5 110t-106.5 247zM319 1016q0 -63 48.5 -102.5t136.5 -69.5v366q-89 -13 -137 -65.5t-48 -128.5zM627 250q96 13 150 65t54 123q0 85 -52 131.5t-152 75.5v-395z" />
<glyph unicode="%" horiz-adv-x="1589" d="M123 983v211q0 126 80.5 201t204.5 75q122 0 202 -75t80 -201v-211q0 -126 -80 -201t-202 -75q-124 0 -204.5 75t-80.5 201zM264 989q0 -76 36.5 -117t107.5 -41q70 0 105.5 41t35.5 117v199q0 75 -35.5 116.5t-105.5 41.5q-144 0 -144 -158v-199zM373 0l684 1458h151 l-686 -1458h-149zM901 264v211q0 126 80 201.5t203 75.5t202.5 -75.5t79.5 -201.5v-211q0 -128 -79.5 -203t-202.5 -75t-203 75t-80 203zM1042 270q0 -76 35.5 -117.5t106.5 -41.5q141 0 141 159v199q0 75 -35.5 116.5t-105.5 41.5q-142 0 -142 -158v-199z" />
<glyph unicode="&#x26;" horiz-adv-x="1417" d="M123 416q0 75 24 140t69.5 118t92 91.5t111.5 80.5q-39 46 -55 66.5t-45 65t-41.5 87.5t-12.5 90q0 136 96 225.5t248 89.5q147 0 240.5 -90.5t93.5 -228.5q0 -147 -158 -258q-75 -51 -110 -74l340 -405q41 60 57.5 132t18.5 183h180q-9 -289 -142 -448l236 -281h-240 l-125 150q-32 -29 -60.5 -50t-81 -50.5t-121.5 -45.5t-148 -16q-219 0 -343 115.5t-124 312.5zM307 422q0 -117 79 -190.5t202 -73.5q170 0 307 118l-367 449q-53 -37 -84 -61.5t-67 -63t-53 -82.5t-17 -96zM457 1153q0 -46 25.5 -92.5t88.5 -122.5l78 49q115 77 115 164 q0 67 -43.5 111.5t-110.5 44.5q-69 0 -111 -43.5t-42 -110.5z" />
<glyph unicode="'" horiz-adv-x="483" d="M143 1458h197l-55 -459h-92z" />
<glyph unicode="(" horiz-adv-x="673" d="M164 719q0 177 18 320.5t39.5 228t65 164.5t67.5 110.5t73 85.5q15 17 22 25l122 -115q-10 -12 -37.5 -44t-40.5 -48.5t-37.5 -55.5t-37.5 -74.5t-30.5 -96t-26 -128t-15 -163.5t-6.5 -209t6.5 -209t15 -163.5t26.5 -128t30.5 -95.5t37 -74.5t37.5 -55.5t41 -48t37 -43 l-122 -115q-7 8 -23 26q-33 37 -51 58.5t-50 68.5t-50.5 89.5t-42.5 114t-37 149.5t-22 188t-9 238z" />
<glyph unicode=")" horiz-adv-x="673" d="M102 -98q10 12 37.5 43.5t40.5 47.5t38 55.5t37.5 74.5t30 95.5t26.5 128t15.5 163.5t6.5 209t-6.5 209t-15.5 163.5t-26.5 128t-30.5 96t-37.5 74.5t-37.5 56t-40.5 48.5t-37.5 43.5l123 115q7 -8 22 -25q34 -37 51.5 -58.5t50 -69t51 -90t42.5 -114.5t36.5 -150 t22 -188.5t9.5 -238.5q0 -177 -18 -319.5t-39.5 -227t-64.5 -164t-67.5 -110.5t-72.5 -85q-16 -18 -23 -26z" />
<glyph unicode="*" horiz-adv-x="970" d="M123 952l239 129l-239 129l70 121l231 -143l-8 272h139l-6 -272l229 143l70 -121l-240 -129l240 -129l-70 -121l-229 144l6 -273h-139l8 273l-231 -144z" />
<glyph unicode="+" horiz-adv-x="1118" d="M123 475v172h350v348h174v-348h348v-172h-348v-350h-174v350h-350z" />
<glyph unicode="," horiz-adv-x="614" d="M143 -307l109 522h219l-225 -522h-103z" />
<glyph unicode="-" horiz-adv-x="1114" d="M123 475v172h868v-172h-868z" />
<glyph unicode="." horiz-adv-x="516" d="M143 0v229h230v-229h-230z" />
<glyph unicode="/" horiz-adv-x="761" d="M0 -152l584 1762h178l-584 -1762h-178z" />
<glyph unicode="0" horiz-adv-x="1251" d="M123 733q0 170 26.5 301t85 231.5t159 154t239.5 53.5q115 0 203 -34t146 -95t94 -154.5t51.5 -204.5t15.5 -252q0 -142 -15.5 -254t-52.5 -206t-95 -155.5t-145.5 -95.5t-201.5 -34q-269 0 -389.5 186t-120.5 559zM303 733q0 -569 330 -569q93 0 158 40.5t101.5 119 t52.5 178t16 231.5q0 131 -15 228.5t-51 175.5t-101.5 118.5t-160.5 40.5q-91 0 -157 -44.5t-103 -125t-53.5 -177.5t-16.5 -216z" />
<glyph unicode="1" horiz-adv-x="880" d="M205 1288v125l246 45h184v-1458h-184v1288h-246z" />
<glyph unicode="2" horiz-adv-x="1103" d="M123 0v166l592 686q86 100 86 215q0 107 -63 171.5t-169 64.5q-103 0 -171 -56.5t-79 -144.5h-192q19 156 133.5 262t308.5 106q186 0 302 -110t116 -293q0 -93 -31.5 -169t-101.5 -155l-508 -577h637v-166h-860z" />
<glyph unicode="3" horiz-adv-x="1183" d="M123 352l186 2q9 -89 86.5 -144.5t186.5 -55.5q124 0 206 90t82 215q0 127 -81 197.5t-216 70.5h-110v125q311 438 311 440h-588v166h815l5 -164l-295 -409q160 -30 253 -149.5t93 -280.5q0 -134 -66 -242.5t-174.5 -167.5t-236.5 -59q-192 0 -318.5 103.5t-138.5 262.5z " />
<glyph unicode="4" horiz-adv-x="1161" d="M102 287v172l578 999h201l-578 -999h408v393h180v-393h164v-172h-164v-287h-180v287h-609z" />
<glyph unicode="5" horiz-adv-x="1179" d="M150 330h186q25 -176 244 -176q89 0 155 47.5t97.5 121t31.5 160.5q0 135 -82 223.5t-217 88.5q-43 0 -80.5 -7.5t-60.5 -17.5t-42.5 -23t-26 -19.5t-11.5 -12.5v-2h-176l94 745h715v-166h-553l-51 -364q100 41 213 41q134 0 241.5 -67t165.5 -177.5t58 -241.5 q0 -213 -124 -353.5t-347 -143.5q-195 0 -302 91.5t-128 252.5z" />
<glyph unicode="6" horiz-adv-x="1132" d="M102 711q0 373 130 566t356 193q105 0 184.5 -29.5t126.5 -81t72.5 -109t34.5 -124.5h-191q-41 174 -229 174q-53 0 -101 -27.5t-90.5 -83t-71.5 -152t-38 -222.5q147 119 288 119q95 0 173 -26.5t131 -70.5t89.5 -103.5t53 -125t16.5 -135.5q0 -99 -28 -185t-81.5 -154 t-142 -107t-200.5 -39q-224 0 -353 177.5t-129 545.5zM283 621q23 -467 299 -467q122 0 195 94t73 225q0 51 -16 100t-48 92.5t-88 70t-129 26.5q-186 0 -286 -141z" />
<glyph unicode="7" horiz-adv-x="1097" d="M102 1292v166h899v-166l-548 -1292h-197l547 1292h-701z" />
<glyph unicode="8" horiz-adv-x="1163" d="M123 424q0 77 23.5 144t56.5 108.5t66.5 71.5t56.5 42l24 13q-7 3 -18.5 9.5t-40.5 31.5t-51.5 56.5t-41 86.5t-18.5 119q0 162 113 263t295 101q169 0 283 -103t114 -259q0 -65 -18.5 -120t-44.5 -87.5t-52 -56t-44 -32.5l-19 -9q5 -2 13.5 -5.5t33 -18.5t46.5 -33.5 t49 -50.5t46.5 -68.5t33 -90t13.5 -112.5q0 -128 -64.5 -229t-167.5 -154t-222 -53q-88 0 -172 32.5t-149 88.5t-104.5 138.5t-39.5 176.5zM311 426q0 -114 86 -190t191 -76q104 0 185 75.5t81 188.5q0 135 -79 212t-187 77t-192.5 -78.5t-84.5 -208.5zM354 1104 q0 -109 69 -169.5t163 -60.5q93 0 157 57.5t64 172.5q0 86 -66 147.5t-155 61.5q-93 0 -162.5 -61.5t-69.5 -147.5z" />
<glyph unicode="9" horiz-adv-x="1124" d="M123 1030q0 194 123 317t313 123q193 0 323 -118.5t130 -311.5q0 -81 -25.5 -162.5t-77.5 -185.5l-342 -692h-196l311 637q-62 -27 -162 -27q-167 0 -282 118.5t-115 301.5zM309 1036q0 -116 69.5 -192t180.5 -76q110 0 188 74t78 194q0 119 -78 194t-188 75 q-107 0 -178.5 -74t-71.5 -195z" />
<glyph unicode=":" horiz-adv-x="557" d="M164 0v229h229v-229h-229zM164 737v230h229v-230h-229z" />
<glyph unicode=";" horiz-adv-x="638" d="M145 -307l107 522h221l-227 -522h-101zM246 737v230h229v-230h-229z" />
<glyph unicode="&#x3c;" horiz-adv-x="944" d="M123 567l459 457h237l-459 -459l461 -461h-235z" />
<glyph unicode="=" horiz-adv-x="1118" d="M123 285v174h872v-174h-872zM123 664v174h872v-174h-872z" />
<glyph unicode="&#x3e;" horiz-adv-x="944" d="M123 104l461 461l-459 459h237l459 -457l-463 -463h-235z" />
<glyph unicode="?" horiz-adv-x="1050" d="M123 1104q10 79 37 143t74 115.5t122 79.5t172 28q168 0 284 -107.5t116 -277.5q0 -123 -97 -249l-174 -230q-36 -48 -36 -112v-70h-187v76q0 61 16.5 105.5t53.5 94.5l172 230q33 46 49 79.5t16 75.5q0 94 -60 154.5t-155 60.5q-101 0 -154 -53.5t-61 -142.5h-188z M422 0v229h229v-229h-229z" />
<glyph unicode="@" horiz-adv-x="1699" d="M145 655q0 182 62.5 335.5t169.5 256.5t251 160t306 57q137 0 258 -48t206 -129.5t134 -191.5t49 -231q0 -85 -26.5 -176.5t-76 -175.5t-133.5 -138.5t-186 -54.5q-76 0 -124.5 36t-55.5 108q-111 -133 -236 -133q-111 0 -177 80.5t-66 205.5q0 117 51 226t144 179.5 t202 70.5q72 0 126.5 -34t76.5 -106q0 -1 1 -2t1 -2q2 6 35 109h125q-17 -60 -138 -465q-18 -58 -18 -96q0 -78 72 -78q67 0 123.5 41.5t91.5 106.5t54 140t19 148q0 138 -67.5 253t-189.5 182t-273 67q-140 0 -261 -47.5t-212 -135t-143 -222t-52 -298.5q0 -128 49 -233.5 t131.5 -174t191 -106t228.5 -37.5q34 0 66 2t68 8t57 9t62.5 14t52.5 13.5t59 16.5t51 15l33 -100q-99 -38 -231 -65t-224 -27q-148 0 -278.5 46t-228 130t-154 211t-56.5 280zM651 618q0 -172 135 -172q56 0 105 40.5t79.5 103t48 132.5t17.5 132q0 57 -38 90t-91 33 q-72 0 -132 -55.5t-92 -137.5t-32 -166z" />
<glyph unicode="A" horiz-adv-x="1269" d="M20 0l533 1458h162l534 -1458h-209l-106 305h-598l-109 -305h-207zM393 475h486l-242 694z" />
<glyph unicode="B" horiz-adv-x="1286" d="M164 0v1458h541q200 0 321 -106t121 -289q0 -112 -59 -191.5t-146 -113.5q102 -39 172 -130.5t70 -219.5q0 -195 -119.5 -301.5t-319.5 -106.5h-581zM362 176h363q121 0 190.5 65.5t69.5 174.5q0 107 -69.5 172t-190.5 65h-363v-477zM362 831h330q115 0 186.5 58 t71.5 168q0 108 -73.5 166.5t-188.5 58.5h-326v-451z" />
<glyph unicode="C" horiz-adv-x="1421" d="M123 729q0 166 36 299t110.5 234t198.5 155q121 53 282 53h6q131 0 236.5 -34.5t173 -94t106 -134t47.5 -160.5h-201q-18 107 -116 177t-246 70q-439 0 -439 -565q0 -98 17 -183t52 -155t86.5 -120t123 -77.5t158.5 -27.5q149 0 247.5 69.5t116.5 176.5h201 q-9 -86 -48 -161t-107 -134.5t-173.5 -94t-236.5 -34.5q-161 0 -283 54t-197.5 153.5t-113 233.5t-37.5 300z" />
<glyph unicode="D" horiz-adv-x="1423" d="M164 0v1458h504q132 0 238 -36t179 -100t121.5 -154t71 -195.5t22.5 -227.5q0 -166 -40 -301.5t-117.5 -235t-198.5 -154t-276 -54.5h-504zM362 174h279q106 0 187.5 33.5t132 88t82.5 130.5t44.5 153.5t12.5 165.5q0 263 -116 401t-343 138h-279v-1110z" />
<glyph unicode="E" horiz-adv-x="1200" d="M164 0v1458h923v-176h-725v-459h617v-176h-617v-471h725v-176h-923z" />
<glyph unicode="F" horiz-adv-x="1148" d="M164 0v1458h923v-176h-725v-471h617v-176h-617v-635h-198z" />
<glyph unicode="G" horiz-adv-x="1515" d="M123 729q0 165 39 299t116.5 233.5t203 154t290.5 54.5q131 0 237.5 -34.5t176.5 -93.5t110.5 -134.5t49.5 -160.5h-199q-19 107 -122.5 177t-252.5 70q-119 0 -206.5 -41t-140.5 -117t-78 -177t-25 -230q0 -273 110 -419t326 -146q162 0 278.5 122t126.5 316h-366v166 h555v-768h-162v258q-57 -138 -173 -203t-259 -65q-315 0 -475 191t-160 548z" />
<glyph unicode="H" horiz-adv-x="1349" d="M164 0v1458h198v-635h627v635h197v-1458h-197v647h-627v-647h-198z" />
<glyph unicode="I" horiz-adv-x="546" d="M174 0v1458h199v-1458h-199z" />
<glyph unicode="J" horiz-adv-x="665" d="M20 -12q136 0 209.5 91.5t73.5 231.5v1147h199v-1167q0 -110 -38 -202t-103 -154.5t-153.5 -97t-187.5 -34.5v185z" />
<glyph unicode="K" horiz-adv-x="1325" d="M164 0v1458h198v-774l627 774h240l-467 -569l522 -889h-231l-422 739l-269 -323v-416h-198z" />
<glyph unicode="L" horiz-adv-x="1140" d="M164 0v1458h198v-1282h717v-176h-915z" />
<glyph unicode="M" horiz-adv-x="1601" d="M164 0v1458h196l445 -956l436 956h197v-1458h-199v1026l-360 -776h-152l-365 776v-1026h-198z" />
<glyph unicode="N" horiz-adv-x="1417" d="M164 0v1458h182l711 -1079v1079h196v-1458h-182l-709 1081v-1081h-198z" />
<glyph unicode="O" horiz-adv-x="1562" d="M123 729q0 165 40.5 299.5t120 233.5t206.5 153.5t292 54.5q173 0 301 -53.5t205.5 -153.5t114.5 -233t37 -301q0 -169 -39 -303t-118 -232.5t-206 -151t-295 -52.5q-318 0 -488.5 193t-170.5 546zM322 729q0 -273 115 -419t345 -146q459 0 459 565q0 130 -23.5 230 t-75.5 177.5t-142.5 118.5t-217.5 41q-120 0 -209.5 -41.5t-144 -118.5t-80.5 -178.5t-26 -228.5z" />
<glyph unicode="P" horiz-adv-x="1277" d="M164 0v1458h551q206 0 333.5 -122t127.5 -316q0 -193 -127.5 -314.5t-333.5 -121.5h-353v-584h-198zM362 760h338q127 0 202 68t75 192q0 125 -75 193.5t-202 68.5h-338v-522z" />
<glyph unicode="Q" horiz-adv-x="1562" d="M123 729q0 165 40.5 299.5t120 233.5t206.5 153.5t292 54.5q173 0 301 -53.5t205.5 -153.5t114.5 -233t37 -301q0 -336 -152 -528l152 -150l-113 -110l-156 151q-150 -102 -389 -102q-318 0 -488.5 193t-170.5 546zM322 729q0 -273 115 -419t345 -146q156 0 254 61 l-190 193l115 110l188 -190q92 143 92 391q0 130 -23.5 230t-75.5 177.5t-142.5 118.5t-217.5 41q-120 0 -209.5 -41.5t-144 -118.5t-80.5 -178.5t-26 -228.5z" />
<glyph unicode="R" horiz-adv-x="1292" d="M164 0v1458h563q201 0 324 -116t123 -304q0 -152 -83.5 -252.5t-218.5 -134.5l338 -651h-229l-315 627h-304v-627h-198zM362 795h349q120 0 192 63.5t72 179.5q0 115 -72.5 179.5t-191.5 64.5h-349v-487z" />
<glyph unicode="S" horiz-adv-x="1269" d="M123 408h196q16 -114 93.5 -179t218.5 -65q149 0 235 64.5t86 160.5q0 52 -19 92.5t-47.5 67t-78 48.5t-94.5 34.5t-113 27.5q-70 15 -128 35t-118 53.5t-101 75.5t-67 104.5t-26 137.5q0 191 127 297t350 106q124 0 217.5 -31.5t150.5 -88.5t88 -127t42 -156h-197 q-18 107 -92.5 169t-206.5 62q-137 0 -212 -64t-75 -167q0 -40 19.5 -73t46.5 -55t74.5 -43t84.5 -32.5t95 -27.5q63 -17 104.5 -29.5t96 -34t90.5 -43.5t74 -55.5t60 -72t36 -91t14 -115.5q0 -191 -141 -299q-138 -106 -366 -106h-9q-126 0 -222 33t-154 92.5t-90 132.5 t-42 162z" />
<glyph unicode="T" horiz-adv-x="1136" d="M61 1282v176h1014v-176h-409v-1282h-197v1282h-408z" />
<glyph unicode="U" horiz-adv-x="1376" d="M164 485v973h196v-960q0 -153 89.5 -243.5t236.5 -90.5q146 0 238 91t92 243v960h196v-973q0 -145 -70 -259.5t-189.5 -176t-266.5 -61.5q-225 0 -373.5 138.5t-148.5 358.5z" />
<glyph unicode="V" horiz-adv-x="1181" d="M20 1458h207l367 -1108l360 1108h207l-491 -1458h-154z" />
<glyph unicode="W" horiz-adv-x="1757" d="M20 1458h207l267 -1093l303 1093h164l303 -1093l266 1093h207l-377 -1458h-176l-305 1077l-308 -1077h-174z" />
<glyph unicode="X" horiz-adv-x="1157" d="M20 0l451 748l-422 710h227l302 -543l303 543h223l-420 -710l453 -748h-228l-331 578l-332 -578h-226z" />
<glyph unicode="Y" d="M20 1458h216l321 -663l315 663h213l-434 -858v-600h-196v600z" />
<glyph unicode="Z" horiz-adv-x="1128" d="M102 0v172l697 1110h-668v176h895v-162l-700 -1120h700v-176h-924z" />
<glyph unicode="[" horiz-adv-x="661" d="M164 -152v1762h416v-152h-230v-1458h230v-152h-416z" />
<glyph unicode="\" horiz-adv-x="757" d="M0 1608h178l580 -1760h-178z" />
<glyph unicode="]" horiz-adv-x="663" d="M86 0h233v1458h-233v152h416v-1762h-416v152z" />
<glyph unicode="^" horiz-adv-x="1185" d="M164 829l344 641h170l344 -641h-191l-237 441l-238 -441h-192z" />
<glyph unicode="_" horiz-adv-x="1142" d="M0 -219h1143v-127h-1143v127z" />
<glyph unicode="`" horiz-adv-x="987" d="M213 1546h209l166 -323h-150z" />
<glyph unicode="a" horiz-adv-x="1099" d="M106 514q0 110 26 203t77.5 165.5t137 114t196.5 41.5q55 0 101 -13.5t73 -33t46.5 -38.5t26.5 -33l7 -13v117h184v-1024h-184v113q-2 -5 -6.5 -13.5t-24.5 -29.5t-45.5 -37t-73 -29.5t-104.5 -13.5q-112 0 -198 41.5t-137 114.5t-76.5 165.5t-25.5 202.5zM291 514 q0 -360 254 -360q252 0 252 350q0 196 -61 283t-189 87q-72 0 -124 -31t-79.5 -84.5t-40 -114t-12.5 -130.5z" />
<glyph unicode="b" horiz-adv-x="1114" d="M143 0v1458h185v-543q100 123 286 123q87 0 154.5 -28t111 -75.5t71 -116t39 -142.5t11.5 -162q0 -82 -9.5 -152.5t-36 -141t-68.5 -120.5t-112 -81t-161 -31q-188 0 -290 125v-113h-181zM328 514q0 -78 10 -137.5t35 -112.5t74.5 -81.5t121.5 -28.5q58 0 102.5 19.5 t71.5 52t44 80t23.5 97.5t6.5 111q0 60 -6.5 109.5t-23.5 97t-44 80t-71.5 52t-102.5 19.5t-102 -19.5t-70 -51.5t-42 -80t-21.5 -97t-5.5 -110z" />
<glyph unicode="c" horiz-adv-x="1093" d="M113 514q0 244 121.5 384t332.5 140q100 0 175.5 -23t124 -66.5t77 -96.5t43.5 -123h-176q-20 71 -83 109.5t-157 38.5q-133 0 -203.5 -99t-70.5 -264q0 -173 71 -266.5t203 -93.5q95 0 158.5 38t83.5 111h178q-16 -71 -45.5 -125t-78 -98t-124.5 -67t-176 -23 q-211 0 -332.5 140t-121.5 384z" />
<glyph unicode="d" horiz-adv-x="1126" d="M113 514q0 80 10.5 151t38 141t70.5 120t113 81t161 31q193 0 293 -123v543h184v-1458h-182v113q-102 -125 -293 -125q-87 0 -155.5 28t-113 76t-73.5 116t-41 143t-12 163zM297 514q0 -360 256 -360q72 0 122.5 28.5t76.5 81.5t36.5 113t10.5 137t-10.5 136.5t-36.5 112 t-76.5 81t-122.5 28.5q-256 0 -256 -358z" />
<glyph unicode="e" d="M113 514q0 245 121.5 384.5t322.5 139.5t318.5 -135.5t117.5 -359.5v-82h-694q0 -147 70.5 -228t201.5 -81q95 0 156.5 38.5t81.5 112.5h176q-63 -315 -416 -315q-101 0 -182 29t-143.5 90.5t-96.5 164.5t-34 242zM299 594h510q-2 54 -18 103t-45.5 90.5t-78 66.5 t-110.5 25q-118 0 -185 -80.5t-73 -204.5z" />
<glyph unicode="f" horiz-adv-x="641" d="M61 883v141h123v152q0 121 71 201.5t204 80.5h121v-160h-88q-121 0 -121 -129v-145h209v-141h-209v-883h-187v883h-123z" />
<glyph unicode="g" horiz-adv-x="1107" d="M113 528q0 65 7 123.5t23 117.5t45.5 106.5t70 84.5t101 57.5t134.5 20.5q91 0 161 -27.5t127 -97.5v111h183v-1032q0 -127 -50 -228t-149 -161t-231 -60q-185 0 -281 74.5t-133 222.5h182q30 -137 229 -137q128 0 187 83t59 210v143q-100 -123 -284 -123 q-106 0 -182.5 41t-118.5 114t-61 161t-19 196zM297 528q0 -346 242 -346q72 0 121.5 28.5t74 80.5t34 108.5t9.5 128.5t-9.5 127.5t-34 107.5t-74 80.5t-121.5 28.5q-242 0 -242 -344z" />
<glyph unicode="h" d="M143 0v1458h185v-538q109 118 274 118q169 0 265 -103t96 -276v-659h-187v631q0 120 -60 180.5t-163 60.5q-101 0 -163 -61.5t-62 -179.5v-631h-185z" />
<glyph unicode="i" horiz-adv-x="487" d="M143 1266v192h201v-192h-201zM152 0v1024h184v-1024h-184z" />
<glyph unicode="j" horiz-adv-x="489" d="M-51 -281h88q67 0 95 31.5t28 99.5v1174h184v-1184q0 -122 -69.5 -201t-204.5 -79h-121v159zM147 1266v192h199v-192h-199z" />
<glyph unicode="k" horiz-adv-x="1048" d="M143 0v1458h185v-928l422 494h227l-352 -397l403 -627h-229l-301 494l-170 -195v-299h-185z" />
<glyph unicode="l" horiz-adv-x="473" d="M143 0v1458h187v-1458h-187z" />
<glyph unicode="m" horiz-adv-x="1746" d="M143 0v1024h183v-104q106 118 278 118q206 0 301 -157q121 157 328 157q79 0 147.5 -25t112.5 -69q111 -108 111 -289v-655h-185v629q0 121 -61 182t-164 61q-99 0 -163 -60t-64 -171v-641h-187v629q0 121 -60.5 182t-162.5 61q-103 0 -166 -61.5t-63 -181.5v-629h-185z " />
<glyph unicode="n" horiz-adv-x="1110" d="M143 0v1024h183v-104q106 118 278 118q162 0 256 -94q107 -104 107 -289v-655h-187v629q0 121 -60.5 182t-162.5 61q-103 0 -166 -61.5t-63 -181.5v-629h-185z" />
<glyph unicode="o" horiz-adv-x="1079" d="M102 514q0 110 26 203t77.5 165.5t137 114t196.5 41.5q110 0 195.5 -41.5t137.5 -114t78.5 -166t26.5 -202.5q0 -110 -26 -202.5t-77.5 -165.5t-137 -114.5t-197.5 -41.5t-198 41.5t-137 114.5t-76.5 165.5t-25.5 202.5zM287 514q0 -360 254 -360q69 0 120 28t80 78 t42.5 113t13.5 141q0 56 -7 105.5t-25 97t-46 81.5t-73 55t-103 21q-72 0 -124 -31t-79.5 -84.5t-40 -114t-12.5 -130.5z" />
<glyph unicode="p" horiz-adv-x="1128" d="M143 -440v1464h181v-111q102 125 303 125q87 0 154.5 -28t111 -75.5t72 -115.5t40 -143t11.5 -162q0 -81 -10 -152t-37 -141.5t-69.5 -120.5t-112 -81t-160.5 -31q-199 0 -299 123v-551h-185zM328 514q0 -360 252 -360q58 0 102.5 19.5t72 52t44.5 80t23.5 97.5t6.5 111 q0 358 -249 358q-252 0 -252 -358z" />
<glyph unicode="q" horiz-adv-x="1124" d="M113 514q0 81 10 151.5t36.5 141t69 120t112.5 80.5t161 31q195 0 297 -125v111h182v-1464h-184v551q-100 -123 -297 -123q-87 0 -154 28t-110.5 76t-71.5 116t-39.5 143t-11.5 163zM297 514q0 -360 250 -360t250 360q0 358 -250 358t-250 -358z" />
<glyph unicode="r" horiz-adv-x="729" d="M143 0v1024h183v-139q13 19 20 28t27 31t43 35t56 28.5t77.5 23t97.5 7.5v-172h-29q-120 0 -205 -80t-85 -208v-578h-185z" />
<glyph unicode="s" horiz-adv-x="1013" d="M102 295h174q12 -67 74 -107.5t154 -42.5q118 0 175.5 41t57.5 111q0 42 -33 70.5t-85.5 45t-116.5 31.5t-128 35.5t-116.5 50t-85.5 83t-33 126.5q0 133 99.5 216t263.5 83q176 0 272 -76.5t119 -209.5h-174q-24 130 -215 133h-4q-92 0 -139 -41q-48 -42 -48 -94 q0 -44 33 -73.5t85.5 -45.5t116.5 -30t128 -34t116.5 -48.5t85.5 -81t33 -126.5q0 -155 -107.5 -239t-299.5 -84q-176 0 -277.5 85.5t-124.5 221.5z" />
<glyph unicode="t" horiz-adv-x="659" d="M61 883v141h125v303h185v-303h207v-141h-207v-594q0 -131 123 -131h84v-158h-119q-133 0 -203 80.5t-70 200.5v602h-125z" />
<glyph unicode="u" horiz-adv-x="1110" d="M143 371v653h185v-627q0 -121 61 -182t164 -61q102 0 164.5 61.5t62.5 181.5v627h187v-1024h-183v106q-106 -118 -278 -118q-168 0 -265.5 104.5t-97.5 278.5z" />
<glyph unicode="v" horiz-adv-x="948" d="M20 1024h197l258 -756l256 756h197l-375 -1024h-156z" />
<glyph unicode="w" horiz-adv-x="1509" d="M20 1024h199l211 -760l250 760h149l250 -760l213 760h197l-320 -1024h-163l-250 745l-252 -745h-162z" />
<glyph unicode="x" horiz-adv-x="944" d="M20 0l351 524l-336 500h223l215 -348l213 348h223l-336 -500l351 -524h-224l-227 367l-229 -367h-224z" />
<glyph unicode="y" horiz-adv-x="950" d="M20 1024h197l260 -760l254 760h199l-467 -1264q-31 -85 -74 -125q-73 -73 -207 -73h-78v166h52q69 0 100 24t55 92l72 193z" />
<glyph unicode="z" horiz-adv-x="923" d="M82 0v150l534 708h-503v166h729v-150l-539 -708h539v-166h-760z" />
<glyph unicode="{" horiz-adv-x="765" d="M82 647v164h65q60 0 99 39q35 35 35 123v360q0 142 69 211q66 66 215 66h119v-166h-68q-52 0 -77.5 -6t-40.5 -23q-31 -31 -31 -131v-350q0 -87 -35 -132t-98 -73q30 -14 51 -28.5t41 -38t30.5 -58t10.5 -80.5v-350q0 -99 31 -133q27 -27 118 -27h68v-166h-119 q-149 0 -215 66q-37 37 -53 86t-16 125v360q0 88 -35 123q-45 39 -99 39h-65z" />
<glyph unicode="|" horiz-adv-x="636" d="M225 -152v1762h187v-1762h-187z" />
<glyph unicode="}" horiz-adv-x="765" d="M82 14h68q91 0 118 27q31 34 31 133v350q0 46 10.5 80.5t30.5 58t41 38t51 28.5q-63 28 -98 73t-35 132v350q0 100 -31 131q-15 17 -40.5 23t-77.5 6h-68v166h119q149 0 215 -66q69 -69 69 -211v-360q0 -88 35 -123q39 -39 98 -39h66v-164h-66q-53 0 -98 -39 q-35 -35 -35 -123v-360q0 -76 -16 -125t-53 -86q-66 -66 -215 -66h-119v166z" />
<glyph unicode="~" horiz-adv-x="1126" d="M82 561q88 88 149 120t138 32q52 0 102 -17t121 -51q54 -25 88.5 -36t73.5 -11q46 0 82 16.5t92 71.5l116 -115q-88 -88 -149 -119.5t-139 -31.5q-91 0 -224 65q-102 50 -161 50q-46 0 -81.5 -17t-92.5 -74z" />
<glyph unicode="&#xa1;" horiz-adv-x="638" d="M205 795v229h229v-229h-229zM215 -434l25 1034h153l27 -1034h-205z" />
<glyph unicode="&#xa2;" horiz-adv-x="1103" d="M113 750q0 225 104 362.5t289 157.5v188h121v-186q163 -13 246.5 -92.5t113.5 -214.5h-178q-17 60 -64 97t-118 46v-715q71 9 119 46.5t65 99.5h180q-32 -137 -117 -219t-247 -95v-225h-121v227q-185 20 -289 158t-104 365zM297 750q0 -309 209 -353v705 q-101 -25 -155 -115.5t-54 -236.5z" />
<glyph unicode="&#xa3;" horiz-adv-x="1226" d="M123 0v176h123v486h-123v145h123v205q0 215 114 338t314 123q385 0 430 -381h-199q-12 98 -70 151t-155 53q-234 0 -234 -295v-194h271v-145h-273v-486h656v-176h-977z" />
<glyph unicode="&#xa5;" horiz-adv-x="1185" d="M61 1458h213l322 -665l317 665h211l-305 -610h187v-141h-258l-56 -107v-106h314v-142h-314v-352h-196v352h-314v142h314v106l-54 107h-260v141h189z" />
<glyph unicode="&#xa6;" horiz-adv-x="432" d="M123 -152v717h186v-717h-186zM123 893v717h186v-717h-186z" />
<glyph unicode="&#xa7;" horiz-adv-x="1048" d="M123 524q0 113 60.5 199t144.5 127q-86 41 -132 106.5t-46 171.5q0 149 102 245.5t272 96.5q172 0 273 -90t106 -241h-178q-14 170 -201 170q-93 0 -144.5 -46t-51.5 -130q0 -130 161 -179l150 -43q139 -42 213 -138t74 -241q0 -112 -60.5 -197.5t-144.5 -127.5 q86 -36 137 -110t51 -183q0 -163 -112 -260.5t-275 -97.5q-161 0 -273 88.5t-118 253.5h182q7 -84 61.5 -129t147.5 -45q94 0 148.5 49.5t54.5 136.5q0 64 -42.5 114.5t-125.5 75.5l-147 45q-287 88 -287 379zM305 528q0 -106 62 -172q57 -63 157 -63q99 0 156 63 q61 61 61 172q0 114 -61 172q-64 64 -156 64q-99 0 -157 -64q-62 -62 -62 -172z" />
<glyph unicode="&#xa8;" horiz-adv-x="956" d="M172 1266v192h201v-192h-201zM582 1266v192h200v-192h-200z" />
<glyph unicode="&#xa9;" horiz-adv-x="1728" d="M123 729q0 151 58.5 288.5t157.5 236.5t236.5 157.5t288.5 58.5q202 0 372.5 -99t270 -269.5t99.5 -372.5t-99.5 -372.5t-270 -269.5t-372.5 -99q-151 0 -288.5 58.5t-236.5 157.5t-157.5 236.5t-58.5 288.5zM260 729q0 -168 81 -309.5t220 -223t303 -81.5 q165 0 304 81.5t219.5 223t80.5 309.5q0 167 -80.5 308t-219.5 222.5t-304 81.5q-164 0 -303 -81.5t-220 -222.5t-81 -308zM506 729q0 190 88 301.5t268 110.5q144 0 226 -70t92 -172h-129q-11 56 -60.5 91.5t-128.5 35.5q-229 0 -229 -297q0 -135 58.5 -214t170.5 -79 q78 0 128 34t61 91h129q-10 -102 -92.5 -172t-225.5 -70q-177 0 -266.5 111t-89.5 299z" />
<glyph unicode="&#xaa;" horiz-adv-x="940" d="M139 1047q0 82 19.5 151.5t58 124.5t103 86t147.5 31q41 0 75.5 -10t54.5 -25t34.5 -29.5t20.5 -24.5l5 -10v89h140v-768h-140v83l-5 -10t-18 -22t-34.5 -28t-54.5 -22t-78 -10q-68 0 -123 20.5t-92.5 56.5t-63.5 86t-37.5 108t-11.5 123zM279 1047q0 -271 190 -271 q188 0 188 262q0 148 -45 213.5t-141 65.5q-55 0 -94 -23t-59.5 -63.5t-29.5 -85.5t-9 -98z" />
<glyph unicode="&#xab;" horiz-adv-x="700" d="M205 659v140l377 389h118v-916h-118z" />
<glyph unicode="&#xac;" horiz-adv-x="1208" d="M164 489v173h880v-457h-172v284h-708z" />
<glyph unicode="&#xad;" horiz-adv-x="1114" d="M123 475v172h868v-172h-868z" />
<glyph unicode="&#xae;" horiz-adv-x="1728" d="M123 729q0 151 58.5 288.5t157.5 236.5t236.5 157.5t288.5 58.5q202 0 372.5 -99t270 -269.5t99.5 -372.5t-99.5 -372.5t-270 -269.5t-372.5 -99q-151 0 -288.5 58.5t-236.5 157.5t-157.5 236.5t-58.5 288.5zM260 729q0 -168 80.5 -309.5t219.5 -223t304 -81.5 q166 0 305.5 81.5t220 223t80.5 309.5t-80.5 309.5t-220 223t-305.5 81.5q-165 0 -304 -81.5t-219.5 -223t-80.5 -309.5zM612 328v805h293q109 0 183.5 -72t74.5 -174q0 -82 -46 -138t-120 -81l187 -340h-154l-174 323h-108v-323h-136zM748 758h141q61 0 100 37t39 92 q0 56 -39 93.5t-100 37.5h-141v-260z" />
<glyph unicode="&#xaf;" horiz-adv-x="1003" d="M188 1268v135h627v-135h-627z" />
<glyph unicode="&#xb0;" horiz-adv-x="944" d="M123 1130q0 145 102 248t248 103q144 0 246 -103t102 -248q0 -146 -101.5 -248t-246.5 -102q-146 0 -248 102t-102 248zM276 1130q0 -86 56.5 -143t140.5 -57q83 0 139 57t56 143q0 85 -57 142t-140 57t-139 -57t-56 -142z" />
<glyph unicode="&#xb1;" horiz-adv-x="3264" d="M102 477v176h3060v-176h-3060z" />
<glyph unicode="&#xb2;" horiz-adv-x="765" d="M123 584v127l332 393q47 56 47 113q0 56 -31 88t-88 32q-50 0 -84.5 -29.5t-34.5 -93.5h-141q0 115 73 183.5t187 68.5q116 0 188 -67.5t72 -181.5q0 -58 -20 -100t-68 -97l-260 -309h348v-127h-520z" />
<glyph unicode="&#xb3;" horiz-adv-x="792" d="M123 825h143q1 -61 38.5 -93t92.5 -32q58 0 94.5 36.5t36.5 99.5t-34.5 98t-100.5 35h-22v123h22q61 0 92 33t31 89q0 59 -34.5 91t-84.5 32q-53 0 -85.5 -30t-35.5 -84h-141q3 111 77.5 177t184.5 66q114 0 187 -68.5t73 -178.5q0 -129 -104 -185q117 -55 117 -200 q0 -124 -77.5 -192.5t-195.5 -68.5q-115 0 -193 63.5t-81 188.5z" />
<glyph unicode="&#xb4;" horiz-adv-x="985" d="M399 1223l164 323h209l-225 -323h-148z" />
<glyph unicode="&#xb6;" horiz-adv-x="1284" d="M123 1055q0 180 121.5 291.5t330.5 111.5h545v-1890h-186v1714h-227v-1714h-187v1087q-169 0 -283 119.5t-114 280.5z" />
<glyph unicode="&#xb7;" horiz-adv-x="507" d="M139 602v227h230v-227h-230z" />
<glyph unicode="&#xb8;" horiz-adv-x="985" d="M328 -436l145 303h154l-111 -303h-188z" />
<glyph unicode="&#xb9;" horiz-adv-x="477" d="M78 1147v160l174 151h143v-874h-143v714z" />
<glyph unicode="&#xba;" horiz-adv-x="946" d="M143 1059q0 106 21 181.5t76 131.5q91 94 233 94q147 0 234 -94q56 -56 76 -130.5t20 -182.5q0 -109 -20 -184t-76 -132q-89 -92 -234 -92q-141 0 -233 92q-55 58 -76 133.5t-21 182.5zM291 1059q0 -82 10.5 -137t46.5 -91q49 -49 125 -49q75 0 127 49q34 36 44.5 91.5 t10.5 136.5t-10.5 136t-44.5 91q-52 49 -127 49q-76 0 -125 -49q-36 -36 -46.5 -91t-10.5 -136z" />
<glyph unicode="&#xbb;" horiz-adv-x="700" d="M0 272v916h119l377 -389v-140l-377 -387h-119z" />
<glyph unicode="&#xbc;" horiz-adv-x="1628" d="M82 1147v160l174 151h143v-874h-143v714zM360 0l684 1458h152l-686 -1458h-150zM967 127v131l305 616h153l-305 -616h201v186h137v-186h88v-131h-88v-127h-137v127h-354z" />
<glyph unicode="&#xbd;" horiz-adv-x="1648" d="M82 1147v160l174 151h143v-874h-143v714zM340 0l686 1458h150l-687 -1458h-149zM1047 0v127l331 393q47 56 47 113q0 56 -31 88.5t-87 32.5q-50 0 -83.5 -29.5t-33.5 -93.5h-143q0 115 73 183.5t187 68.5q115 0 187.5 -68t72.5 -182q0 -57 -20 -98.5t-68 -98.5l-260 -309 h348v-127h-520z" />
<glyph unicode="&#xbe;" horiz-adv-x="1697" d="M82 825h143q1 -61 38.5 -93t92.5 -32q58 0 94.5 36.5t36.5 99.5t-34.5 98t-100.5 35h-22v123h22q61 0 92 33t31 89q0 59 -34.5 91t-84.5 32q-53 0 -85 -30t-35 -84h-142q3 111 77.5 177t184.5 66q114 0 187 -68.5t73 -178.5q0 -129 -104 -185q117 -55 117 -200 q0 -124 -77.5 -192.5t-195.5 -68.5q-115 0 -193 63.5t-81 188.5zM444 0l684 1458h152l-686 -1458h-150zM1038 127v131l303 616h154l-303 -616h201v186h137v-186h86v-131h-86v-127h-137v127h-355z" />
<glyph unicode="&#xbf;" horiz-adv-x="1030" d="M113 -61q0 124 96 249l174 230q37 49 37 112v70h186v-76q0 -61 -16 -106t-53 -94l-172 -230q-23 -31 -34.5 -50.5t-21.5 -47.5t-10 -57q0 -94 60 -154.5t155 -60.5q101 0 154 53.5t61 142.5h189q-10 -79 -37 -143t-74.5 -115.5t-122.5 -79.5t-172 -28 q-168 0 -283.5 107.5t-115.5 277.5zM389 795v229h229v-229h-229z" />
<glyph unicode="&#xc0;" horiz-adv-x="1269" d="M20 0l533 1458h162l534 -1458h-209l-106 305h-598l-109 -305h-207zM393 475h486l-242 694zM410 1921h208l166 -324h-149z" />
<glyph unicode="&#xc1;" horiz-adv-x="1269" d="M20 0l533 1458h162l534 -1458h-209l-106 305h-598l-109 -305h-207zM393 475h486l-242 694zM457 1546l164 324h208l-225 -324h-147z" />
<glyph unicode="&#xc2;" horiz-adv-x="1269" d="M20 0l533 1458h162l534 -1458h-209l-106 305h-598l-109 -305h-207zM301 1550l260 324h162l262 -324h-162l-180 205l-180 -205h-162zM393 475h486l-242 694z" />
<glyph unicode="&#xc3;" horiz-adv-x="1269" d="M20 0l533 1458h162l534 -1458h-209l-106 305h-598l-109 -305h-207zM276 1597l261 324h161l263 -324h-162l-181 205l-180 -205h-162zM393 475h486l-242 694z" />
<glyph unicode="&#xc4;" horiz-adv-x="1269" d="M20 0l533 1458h162l534 -1458h-209l-106 305h-598l-109 -305h-207zM332 1565v192h200v-192h-200zM393 475h486l-242 694zM741 1565v192h201v-192h-201z" />
<glyph unicode="&#xc5;" horiz-adv-x="1269" d="M20 0l533 1458h162l534 -1458h-209l-106 305h-598l-109 -305h-207zM387 1765q0 103 74 176.5t178 73.5q103 0 176.5 -73t73.5 -177t-73.5 -178t-176.5 -74q-104 0 -178 74t-74 178zM393 475h486l-242 694zM504 1765q0 -55 40 -95t95 -40t94 39.5t39 95.5q0 55 -39 94 t-94 39q-56 0 -95.5 -39t-39.5 -94z" />
<glyph unicode="&#xc6;" horiz-adv-x="1810" d="M0 0l768 1458h1032v-176h-725v-463h619v-176h-619v-467h725v-176h-919v336h-492l-176 -336h-213zM473 506h408v776z" />
<glyph unicode="&#xc7;" horiz-adv-x="1421" d="M123 729q0 166 36 299t110.5 234t198 155t288.5 53q131 0 236.5 -34.5t173 -94t106 -134t47.5 -160.5h-201q-18 107 -116 177t-246 70q-439 0 -439 -565q0 -98 17 -183t52 -155t86.5 -120t123 -77.5t158.5 -27.5q149 0 247.5 69.5t116.5 176.5h201q-9 -86 -48 -161 t-107 -134.5t-173.5 -94t-236.5 -34.5q-161 0 -283 54t-197.5 153.5t-113 233.5t-37.5 300zM500 -436l145 303h154l-111 -303h-188z" />
<glyph unicode="&#xc8;" horiz-adv-x="1196" d="M164 0v1458h923v-176h-725v-459h617v-176h-617v-471h725v-176h-923zM449 1921h208l166 -324h-149z" />
<glyph unicode="&#xc9;" horiz-adv-x="1196" d="M164 0v1458h923v-176h-725v-459h617v-176h-617v-471h725v-176h-923zM467 1581l164 324h209l-226 -324h-147z" />
<glyph unicode="&#xca;" horiz-adv-x="1196" d="M164 0v1458h923v-176h-725v-459h617v-176h-617v-471h725v-176h-923zM291 1550l260 324h162l262 -324h-162l-180 205l-180 -205h-162z" />
<glyph unicode="&#xcb;" horiz-adv-x="1196" d="M164 0v1458h923v-176h-725v-459h617v-176h-617v-471h725v-176h-923zM324 1565v192h200v-192h-200zM733 1565v192h201v-192h-201z" />
<glyph unicode="&#xcc;" horiz-adv-x="540" d="M82 1921h209l166 -324h-150zM170 0v1458h199v-1458h-199z" />
<glyph unicode="&#xcd;" horiz-adv-x="538" d="M80 1546l164 324h209l-226 -324h-147zM172 0v1458h199v-1458h-199z" />
<glyph unicode="&#xce;" horiz-adv-x="540" d="M-72 1550l260 324h162l262 -324h-161l-181 205l-180 -205h-162zM172 0v1458h199v-1458h-199z" />
<glyph unicode="&#xcf;" horiz-adv-x="540" d="M-2 1565v192h201v-192h-201zM172 0v1458h199v-1458h-199zM338 1565v192h201v-192h-201z" />
<glyph unicode="&#xd0;" horiz-adv-x="1484" d="M72 659v152h153v647h502q132 0 239 -36t180 -100t122 -154t71.5 -195.5t22.5 -227.5q0 -166 -40.5 -301.5t-118.5 -235t-199.5 -154t-276.5 -54.5h-502v659h-153zM422 174h280q105 0 186.5 33.5t132 88t83 130.5t45 154t12.5 165q0 263 -116 401t-343 138h-280v-473h303 v-152h-303v-485z" />
<glyph unicode="&#xd1;" horiz-adv-x="1417" d="M164 0v1458h182l711 -1079v1079h196v-1458h-182l-709 1081v-1081h-198zM348 1690q64 64 110 86t97 22q75 0 150 -47q62 -41 112 -41q29 0 55.5 12.5t65.5 51.5l90 -88q-64 -64 -111.5 -86.5t-95.5 -22.5q-66 0 -149 47q-70 41 -115 41q-29 0 -54.5 -12t-66.5 -51z" />
<glyph unicode="&#xd2;" horiz-adv-x="1562" d="M123 729q0 165 40.5 299.5t120 233.5t206.5 153.5t292 54.5q173 0 301 -53.5t205.5 -153.5t114.5 -233t37 -301q0 -169 -39 -303t-118 -232.5t-206 -151t-295 -52.5q-318 0 -488.5 193t-170.5 546zM322 729q0 -273 115 -419t345 -146q459 0 459 565q0 130 -23.5 230 t-75.5 177.5t-142.5 118.5t-217.5 41q-120 0 -209.5 -41.5t-144 -118.5t-80.5 -178.5t-26 -228.5zM616 1921h209l166 -324h-149z" />
<glyph unicode="&#xd3;" horiz-adv-x="1562" d="M123 729q0 165 40.5 299.5t120 233.5t206.5 153.5t292 54.5q173 0 301 -53.5t205.5 -153.5t114.5 -233t37 -301q0 -169 -39 -303t-118 -232.5t-206 -151t-295 -52.5q-318 0 -488.5 193t-170.5 546zM322 729q0 -273 115 -419t345 -146q459 0 459 565q0 130 -23.5 230 t-75.5 177.5t-142.5 118.5t-217.5 41q-120 0 -209.5 -41.5t-144 -118.5t-80.5 -178.5t-26 -228.5zM606 1546l164 324h209l-225 -324h-148z" />
<glyph unicode="&#xd4;" horiz-adv-x="1562" d="M123 729q0 165 40.5 299.5t120 233.5t206.5 153.5t292 54.5q173 0 301 -53.5t205.5 -153.5t114.5 -233t37 -301q0 -169 -39 -303t-118 -232.5t-206 -151t-295 -52.5q-318 0 -488.5 193t-170.5 546zM322 729q0 -273 115 -419t345 -146q459 0 459 565q0 130 -23.5 230 t-75.5 177.5t-142.5 118.5t-217.5 41q-120 0 -209.5 -41.5t-144 -118.5t-80.5 -178.5t-26 -228.5zM451 1550l260 324h161l263 -324h-162l-180 205l-181 -205h-161z" />
<glyph unicode="&#xd5;" horiz-adv-x="1562" d="M123 729q0 165 40.5 299.5t120 233.5t206.5 153.5t292 54.5q173 0 301 -53.5t205.5 -153.5t114.5 -233t37 -301q0 -169 -39 -303t-118 -232.5t-206 -151t-295 -52.5q-318 0 -488.5 193t-170.5 546zM322 729q0 -273 115 -419t345 -146q459 0 459 565q0 130 -23.5 230 t-75.5 177.5t-142.5 118.5t-217.5 41q-120 0 -209.5 -41.5t-144 -118.5t-80.5 -178.5t-26 -228.5zM457 1597l260 324h162l262 -324h-162l-180 205l-181 -205h-161z" />
<glyph unicode="&#xd6;" horiz-adv-x="1562" d="M123 729q0 165 40.5 299.5t120 233.5t206.5 153.5t292 54.5q173 0 301 -53.5t205.5 -153.5t114.5 -233t37 -301q0 -169 -39 -303t-118 -232.5t-206 -151t-295 -52.5q-318 0 -488.5 193t-170.5 546zM322 729q0 -273 115 -419t345 -146q459 0 459 565q0 130 -23.5 230 t-75.5 177.5t-142.5 118.5t-217.5 41q-120 0 -209.5 -41.5t-144 -118.5t-80.5 -178.5t-26 -228.5zM489 1565v192h201v-192h-201zM899 1565v192h201v-192h-201z" />
<glyph unicode="&#xd7;" horiz-adv-x="1040" d="M102 260l304 303l-304 303l115 115l303 -303l303 303l115 -115l-303 -303l303 -303l-115 -117l-303 303l-303 -303z" />
<glyph unicode="&#xd8;" horiz-adv-x="1562" d="M123 729q0 165 40.5 299.5t120 233.5t206.5 153.5t292 54.5q142 0 258 -38l56 116h155l-86 -178q275 -172 275 -641q0 -169 -39 -303t-118 -232.5t-206 -151t-295 -52.5q-148 0 -258 39l-57 -119h-156l88 180q-135 89 -205.5 251.5t-70.5 387.5zM317 729q0 -325 166 -463 l478 1000q-79 28 -179 28q-120 0 -210.5 -41.5t-145.5 -118t-82 -178t-27 -227.5zM602 195q77 -29 180 -29q463 0 463 563q0 335 -164 467z" />
<glyph unicode="&#xd9;" horiz-adv-x="1376" d="M164 485v973h196v-960q0 -153 89.5 -243.5t236.5 -90.5q146 0 238 91t92 243v960h196v-973q0 -145 -70 -259.5t-189.5 -176t-266.5 -61.5q-225 0 -373.5 138.5t-148.5 358.5zM498 1921h209l165 -324h-149z" />
<glyph unicode="&#xda;" horiz-adv-x="1376" d="M164 485v973h196v-960q0 -153 89.5 -243.5t236.5 -90.5q146 0 238 91t92 243v960h196v-973q0 -145 -70 -259.5t-189.5 -176t-266.5 -61.5q-225 0 -373.5 138.5t-148.5 358.5zM496 1546l163 324h209l-225 -324h-147z" />
<glyph unicode="&#xdb;" horiz-adv-x="1376" d="M164 485v973h196v-960q0 -153 89.5 -243.5t236.5 -90.5q146 0 238 91t92 243v960h196v-973q0 -145 -70 -259.5t-189.5 -176t-266.5 -61.5q-225 0 -373.5 138.5t-148.5 358.5zM344 1550l260 324h162l262 -324h-162l-180 205l-180 -205h-162z" />
<glyph unicode="&#xdc;" horiz-adv-x="1376" d="M164 485v973h196v-960q0 -153 89.5 -243.5t236.5 -90.5q146 0 238 91t92 243v960h196v-973q0 -145 -70 -259.5t-189.5 -176t-266.5 -61.5q-225 0 -373.5 138.5t-148.5 358.5zM381 1565v192h201v-192h-201zM791 1565v192h200v-192h-200z" />
<glyph unicode="&#xdd;" d="M20 1458h216l321 -663l315 663h213l-434 -858v-600h-196v600zM442 1597l164 324h209l-225 -324h-148z" />
<glyph unicode="&#xde;" horiz-adv-x="1257" d="M164 0v1458h198v-287h353q206 0 333.5 -121t127.5 -315q0 -193 -127.5 -314.5t-333.5 -121.5h-353v-299h-198zM362 475h338q127 0 202 68t75 192q0 125 -75 192.5t-202 67.5h-338v-520z" />
<glyph unicode="&#xdf;" horiz-adv-x="1093" d="M143 0v1071q0 194 114.5 296.5t311.5 102.5q183 0 296.5 -86.5t113.5 -257.5q0 -159 -127 -241q70 -36 99.5 -88.5t29.5 -149.5v-346q0 -147 -82 -223q-81 -78 -225 -78h-109v158h72q68 0 113 39t45 122v330q0 81 -39 117q-39 39 -113 39h-78v151h68q72 0 117 44t45 122 q0 80 -56 133q-57 54 -178 54q-233 0 -233 -248v-1061h-185z" />
<glyph unicode="&#xe0;" horiz-adv-x="1099" d="M106 514q0 110 26 203t77.5 165.5t137 114t196.5 41.5q55 0 101 -13.5t73 -33t46.5 -38.5t26.5 -33l7 -13v117h184v-1024h-184v113q-2 -5 -6.5 -13.5t-24.5 -29.5t-45.5 -37t-73 -29.5t-104.5 -13.5q-112 0 -198 41.5t-137 114.5t-76.5 165.5t-25.5 202.5zM291 514 q0 -360 254 -360q252 0 252 350q0 196 -61 283t-189 87q-72 0 -124 -31t-79.5 -84.5t-40 -114t-12.5 -130.5zM365 1546h208l166 -323h-149z" />
<glyph unicode="&#xe1;" horiz-adv-x="1099" d="M106 514q0 110 26 203t77.5 165.5t137 114t196.5 41.5q55 0 101 -13.5t73 -33t46.5 -38.5t26.5 -33l7 -13v117h184v-1024h-184v113q-2 -5 -6.5 -13.5t-24.5 -29.5t-45.5 -37t-73 -29.5t-104.5 -13.5q-112 0 -198 41.5t-137 114.5t-76.5 165.5t-25.5 202.5zM291 514 q0 -360 254 -360q252 0 252 350q0 196 -61 283t-189 87q-72 0 -124 -31t-79.5 -84.5t-40 -114t-12.5 -130.5zM406 1223l163 323h209l-225 -323h-147z" />
<glyph unicode="&#xe2;" horiz-adv-x="1099" d="M106 514q0 110 26 203t77.5 165.5t137 114t196.5 41.5q55 0 101 -13.5t73 -33t46.5 -38.5t26.5 -33l7 -13v117h184v-1024h-184v113q-2 -5 -6.5 -13.5t-24.5 -29.5t-45.5 -37t-73 -29.5t-104.5 -13.5q-112 0 -198 41.5t-137 114.5t-76.5 165.5t-25.5 202.5zM217 1223 l260 323h162l262 -323h-162l-180 204l-180 -204h-162zM291 514q0 -360 254 -360q252 0 252 350q0 196 -61 283t-189 87q-72 0 -124 -31t-79.5 -84.5t-40 -114t-12.5 -130.5z" />
<glyph unicode="&#xe3;" horiz-adv-x="1099" d="M106 514q0 110 26 203t77.5 165.5t137 114t196.5 41.5q55 0 101 -13.5t73 -33t46.5 -38.5t26.5 -33l7 -13v117h184v-1024h-184v113q-2 -5 -6.5 -13.5t-24.5 -29.5t-45.5 -37t-73 -29.5t-104.5 -13.5q-112 0 -198 41.5t-137 114.5t-76.5 165.5t-25.5 202.5zM227 1362 q64 64 110 86t97 22q75 0 150 -47q62 -41 112 -41q29 0 55.5 12.5t65.5 51.5l90 -88q-64 -64 -111.5 -86.5t-95.5 -22.5q-66 0 -149 47q-70 41 -115 41q-29 0 -54.5 -12t-66.5 -51zM291 514q0 -360 254 -360q252 0 252 350q0 196 -61 283t-189 87q-72 0 -124 -31 t-79.5 -84.5t-40 -114t-12.5 -130.5z" />
<glyph unicode="&#xe4;" horiz-adv-x="1099" d="M106 514q0 110 26 203t77.5 165.5t137 114t196.5 41.5q55 0 101 -13.5t73 -33t46.5 -38.5t26.5 -33l7 -13v117h184v-1024h-184v113q-2 -5 -6.5 -13.5t-24.5 -29.5t-45.5 -37t-73 -29.5t-104.5 -13.5q-112 0 -198 41.5t-137 114.5t-76.5 165.5t-25.5 202.5zM248 1268v192 h201v-192h-201zM291 514q0 -360 254 -360q252 0 252 350q0 196 -61 283t-189 87q-72 0 -124 -31t-79.5 -84.5t-40 -114t-12.5 -130.5zM657 1268v192h201v-192h-201z" />
<glyph unicode="&#xe5;" horiz-adv-x="1099" d="M106 514q0 110 26 203t77.5 165.5t137 114t196.5 41.5q55 0 101 -13.5t73 -33t46.5 -38.5t26.5 -33l7 -13v117h184v-1024h-184v113q-2 -5 -6.5 -13.5t-24.5 -29.5t-45.5 -37t-73 -29.5t-104.5 -13.5q-112 0 -198 41.5t-137 114.5t-76.5 165.5t-25.5 202.5zM291 514 q0 -360 254 -360q252 0 252 350q0 196 -61 283t-189 87q-72 0 -124 -31t-79.5 -84.5t-40 -114t-12.5 -130.5zM317 1425q0 103 74 176.5t178 73.5q103 0 176.5 -73t73.5 -177t-73.5 -177.5t-176.5 -73.5q-104 0 -178 73.5t-74 177.5zM434 1425q0 -55 40 -95t95 -40t94 39.5 t39 95.5t-39 95t-94 39q-56 0 -95.5 -39.5t-39.5 -94.5z" />
<glyph unicode="&#xe6;" horiz-adv-x="1802" d="M106 514q0 110 26 203t77.5 165.5t137 114t196.5 41.5q52 0 96.5 -13t71 -29.5t47.5 -38t28 -32t11 -18.5v117h184v-72q104 82 264 82q200 0 317 -133.5t117 -357.5v-82h-698v-15q3 -140 77 -220.5t204 -80.5q189 0 233 152h176q-15 -70 -42.5 -123.5t-75 -97.5t-122 -67 t-174.5 -23q-146 0 -276 100v-86h-184v111q-19 -29 -24 -34q-76 -87 -230 -87q-112 0 -198 41.5t-137 114.5t-76.5 165.5t-25.5 202.5zM291 514q0 -360 254 -360q252 0 252 350q0 196 -61 283t-189 87q-72 0 -124 -31t-79.5 -84.5t-40 -114t-12.5 -130.5zM981 594h516 q-2 55 -18.5 105t-47 92t-80.5 67t-112 25q-113 0 -182.5 -75t-75.5 -202v-12z" />
<glyph unicode="&#xe7;" horiz-adv-x="1093" d="M113 514q0 244 121.5 384t332.5 140q100 0 175.5 -23t124 -66.5t77 -96.5t43.5 -123h-176q-20 71 -83 109.5t-157 38.5q-133 0 -203.5 -99t-70.5 -264q0 -173 71 -266.5t203 -93.5q95 0 158.5 38t83.5 111h178q-16 -71 -45.5 -125t-78 -98t-124.5 -67t-176 -23 q-211 0 -332.5 140t-121.5 384zM315 -436l146 303h153l-110 -303h-189z" />
<glyph unicode="&#xe8;" d="M113 514q0 245 121.5 384.5t322.5 139.5t318.5 -135.5t117.5 -359.5v-82h-694q0 -147 70.5 -228t201.5 -81q95 0 156.5 38.5t81.5 112.5h176q-63 -315 -416 -315q-101 0 -182 29t-143.5 90.5t-96.5 164.5t-34 242zM299 594h510q-2 54 -18 103t-45.5 90.5t-78 66.5 t-110.5 25q-118 0 -185 -80.5t-73 -204.5zM373 1546h209l166 -323h-150z" />
<glyph unicode="&#xe9;" d="M113 514q0 245 121.5 384.5t322.5 139.5t318.5 -135.5t117.5 -359.5v-82h-694q0 -147 70.5 -228t201.5 -81q95 0 156.5 38.5t81.5 112.5h176q-63 -315 -416 -315q-101 0 -182 29t-143.5 90.5t-96.5 164.5t-34 242zM299 594h510q-2 54 -18 103t-45.5 90.5t-78 66.5 t-110.5 25q-118 0 -185 -80.5t-73 -204.5zM416 1223l164 323h208l-225 -323h-147z" />
<glyph unicode="&#xea;" d="M113 514q0 245 121.5 384.5t322.5 139.5t318.5 -135.5t117.5 -359.5v-82h-694q0 -147 70.5 -228t201.5 -81q95 0 156.5 38.5t81.5 112.5h176q-63 -315 -416 -315q-101 0 -182 29t-143.5 90.5t-96.5 164.5t-34 242zM227 1223l260 323h162l262 -323h-161l-181 204 l-180 -204h-162zM299 594h510q-2 54 -18 103t-45.5 90.5t-78 66.5t-110.5 25q-118 0 -185 -80.5t-73 -204.5z" />
<glyph unicode="&#xeb;" d="M113 514q0 245 121.5 384.5t322.5 139.5t318.5 -135.5t117.5 -359.5v-82h-694q0 -147 70.5 -228t201.5 -81q95 0 156.5 38.5t81.5 112.5h176q-63 -315 -416 -315q-101 0 -182 29t-143.5 90.5t-96.5 164.5t-34 242zM258 1268v192h201v-192h-201zM299 594h510 q-2 54 -18 103t-45.5 90.5t-78 66.5t-110.5 25q-118 0 -185 -80.5t-73 -204.5zM668 1268v192h200v-192h-200z" />
<glyph unicode="&#xec;" horiz-adv-x="481" d="M53 1546h209l166 -323h-149zM152 0v1024h184v-1024h-184z" />
<glyph unicode="&#xed;" horiz-adv-x="481" d="M53 1223l164 323h209l-225 -323h-148zM152 0v1024h184v-1024h-184z" />
<glyph unicode="&#xee;" horiz-adv-x="481" d="M-100 1223l260 323h162l262 -323h-162l-180 204l-181 -204h-161zM152 0v1024h184v-1024h-184z" />
<glyph unicode="&#xef;" horiz-adv-x="481" d="M-18 1266v192h200v-192h-200zM152 0v1024h184v-1024h-184zM297 1266v192h201v-192h-201z" />
<glyph unicode="&#xf0;" horiz-adv-x="1083" d="M123 506q0 135 26 232t95 169q90 90 229 105q83 10 154 -11l-103 179h-237v133h168l-86 145h196l84 -145h176v-133h-106l115 -205q78 -142 102.5 -234.5t24.5 -234.5q0 -137 -25.5 -234t-95.5 -168q-116 -116 -297 -116q-183 0 -299 116q-69 72 -95 169t-26 233zM309 506 q0 -102 13.5 -172.5t58.5 -116.5q63 -63 162 -63t162 63q44 46 57.5 116t13.5 173q0 104 -13 173.5t-58 115.5q-63 63 -162 63t-162 -63q-45 -46 -58.5 -116t-13.5 -173z" />
<glyph unicode="&#xf1;" horiz-adv-x="1110" d="M143 0v1024h183v-104q106 118 278 118q162 0 256 -94q107 -104 107 -289v-655h-187v629q0 121 -60.5 182t-162.5 61q-103 0 -166 -61.5t-63 -181.5v-629h-185zM225 1362q64 64 110 86t97 22q75 0 150 -47q62 -41 112 -41q29 0 55.5 12.5t65.5 51.5l90 -88 q-64 -64 -111.5 -86.5t-95.5 -22.5q-66 0 -149 47q-70 41 -115 41q-29 0 -54.5 -12t-66.5 -51z" />
<glyph unicode="&#xf2;" horiz-adv-x="1079" d="M102 514q0 110 26 203t77.5 165.5t137 114t196.5 41.5q110 0 195.5 -41.5t137.5 -114t78.5 -166t26.5 -202.5q0 -110 -26 -202.5t-77.5 -165.5t-137 -114.5t-197.5 -41.5t-198 41.5t-137 114.5t-76.5 165.5t-25.5 202.5zM287 514q0 -360 254 -360q69 0 120 28t80 78 t42.5 113t13.5 141q0 56 -7 105.5t-25 97t-46 81.5t-73 55t-103 21q-72 0 -124 -31t-79.5 -84.5t-40 -114t-12.5 -130.5zM319 1546h209l166 -323h-149z" />
<glyph unicode="&#xf3;" horiz-adv-x="1079" d="M102 514q0 110 26 203t77.5 165.5t137 114t196.5 41.5q110 0 195.5 -41.5t137.5 -114t78.5 -166t26.5 -202.5q0 -110 -26 -202.5t-77.5 -165.5t-137 -114.5t-197.5 -41.5t-198 41.5t-137 114.5t-76.5 165.5t-25.5 202.5zM287 514q0 -360 254 -360q69 0 120 28t80 78 t42.5 113t13.5 141q0 56 -7 105.5t-25 97t-46 81.5t-73 55t-103 21q-72 0 -124 -31t-79.5 -84.5t-40 -114t-12.5 -130.5zM397 1223l164 323h209l-225 -323h-148z" />
<glyph unicode="&#xf4;" horiz-adv-x="1079" d="M102 514q0 110 26 203t77.5 165.5t137 114t196.5 41.5q110 0 195.5 -41.5t137.5 -114t78.5 -166t26.5 -202.5q0 -110 -26 -202.5t-77.5 -165.5t-137 -114.5t-197.5 -41.5t-198 41.5t-137 114.5t-76.5 165.5t-25.5 202.5zM209 1223l260 323h162l262 -323h-162l-180 204 l-180 -204h-162zM287 514q0 -360 254 -360q69 0 120 28t80 78t42.5 113t13.5 141q0 56 -7 105.5t-25 97t-46 81.5t-73 55t-103 21q-72 0 -124 -31t-79.5 -84.5t-40 -114t-12.5 -130.5z" />
<glyph unicode="&#xf5;" horiz-adv-x="1079" d="M102 514q0 110 26 203t77.5 165.5t137 114t196.5 41.5q110 0 195.5 -41.5t137.5 -114t78.5 -166t26.5 -202.5q0 -110 -26 -202.5t-77.5 -165.5t-137 -114.5t-197.5 -41.5t-198 41.5t-137 114.5t-76.5 165.5t-25.5 202.5zM211 1362q64 64 110 86t97 22q74 0 149 -47 q62 -41 113 -41q29 0 55.5 12.5t65.5 51.5l90 -88q-64 -64 -111.5 -86.5t-95.5 -22.5q-66 0 -149 47q-70 41 -115 41q-29 0 -54.5 -12t-66.5 -51zM287 514q0 -360 254 -360q69 0 120 28t80 78t42.5 113t13.5 141q0 56 -7 105.5t-25 97t-46 81.5t-73 55t-103 21 q-72 0 -124 -31t-79.5 -84.5t-40 -114t-12.5 -130.5z" />
<glyph unicode="&#xf6;" horiz-adv-x="1079" d="M102 514q0 110 26 203t77.5 165.5t137 114t196.5 41.5q110 0 195.5 -41.5t137.5 -114t78.5 -166t26.5 -202.5q0 -110 -26 -202.5t-77.5 -165.5t-137 -114.5t-197.5 -41.5t-198 41.5t-137 114.5t-76.5 165.5t-25.5 202.5zM240 1268v192h200v-192h-200zM287 514 q0 -360 254 -360q69 0 120 28t80 78t42.5 113t13.5 141q0 56 -7 105.5t-25 97t-46 81.5t-73 55t-103 21q-72 0 -124 -31t-79.5 -84.5t-40 -114t-12.5 -130.5zM649 1268v192h201v-192h-201z" />
<glyph unicode="&#xf7;" horiz-adv-x="1085" d="M102 475v172h881v-172h-881zM440 80v205h205v-205h-205zM440 840v204h205v-204h-205z" />
<glyph unicode="&#xf8;" horiz-adv-x="1073" d="M113 514q0 86 11.5 159.5t41.5 142t77 116.5t122 77t172 29q126 0 215 -53q25 45 75 131h131q-97 -165 -118 -198l2 -3l22 -26q55 -71 76 -160.5t21 -214.5q0 -110 -20.5 -199.5t-67 -165.5t-132 -118.5t-204.5 -42.5q-126 0 -215 53l-78 -131h-129l116 199 q-69 68 -93.5 165t-24.5 240zM297 500q0 -153 41 -226l332 560q-56 38 -133 38q-62 0 -108 -23.5t-70.5 -58t-39 -87.5t-18.5 -98.5t-4 -104.5zM403 193q58 -39 134 -39q59 0 102.5 20.5t69.5 53.5t41.5 82t20.5 97t5 107q0 165 -41 238z" />
<glyph unicode="&#xf9;" horiz-adv-x="1110" d="M143 371v653h185v-627q0 -121 61 -182t164 -61q102 0 164.5 61.5t62.5 181.5v627h187v-1024h-183v106q-106 -118 -278 -118q-168 0 -265.5 104.5t-97.5 278.5zM340 1546h209l166 -323h-150z" />
<glyph unicode="&#xfa;" horiz-adv-x="1110" d="M143 371v653h185v-627q0 -121 61 -182t164 -61q102 0 164.5 61.5t62.5 181.5v627h187v-1024h-183v106q-106 -118 -278 -118q-168 0 -265.5 104.5t-97.5 278.5zM406 1223l163 323h209l-225 -323h-147z" />
<glyph unicode="&#xfb;" horiz-adv-x="1110" d="M143 371v653h185v-627q0 -121 61 -182t164 -61q102 0 164.5 61.5t62.5 181.5v627h187v-1024h-183v106q-106 -118 -278 -118q-168 0 -265.5 104.5t-97.5 278.5zM211 1223l260 323h162l262 -323h-162l-180 204l-180 -204h-162z" />
<glyph unicode="&#xfc;" horiz-adv-x="1110" d="M143 371v653h185v-627q0 -121 61 -182t164 -61q102 0 164.5 61.5t62.5 181.5v627h187v-1024h-183v106q-106 -118 -278 -118q-168 0 -265.5 104.5t-97.5 278.5zM248 1268v192h201v-192h-201zM657 1268v192h201v-192h-201z" />
<glyph unicode="&#xfd;" horiz-adv-x="950" d="M20 1024h197l260 -760l254 760h199l-467 -1264q-31 -85 -74 -125q-73 -73 -207 -73h-78v166h52q69 0 100 24t55 92l72 193zM360 1223l164 323h209l-225 -323h-148z" />
<glyph unicode="&#xfe;" horiz-adv-x="1075" d="M143 -432v1890h185v-543q56 69 121.5 96t154.5 27q76 0 142 -24t108 -66q71 -71 95 -180t24 -254t-24 -255t-95 -181q-42 -42 -108 -66t-142 -24q-89 0 -154.5 27t-121.5 96v-543h-185zM328 514q0 -64 4.5 -111.5t18.5 -96.5t38.5 -80.5t67 -51.5t100.5 -20t100.5 20 t67 51.5t38.5 80.5t18.5 96.5t4.5 111.5q0 63 -4.5 110t-18.5 96.5t-38.5 80.5t-67 51t-100.5 20t-100.5 -20t-67 -51t-38.5 -80.5t-18.5 -96.5t-4.5 -110z" />
<glyph unicode="&#xff;" horiz-adv-x="950" d="M20 1024h197l260 -760l254 760h199l-467 -1264q-31 -85 -74 -125q-73 -73 -207 -73h-78v166h52q69 0 100 24t55 92l72 193zM184 1266v192h201v-192h-201zM594 1266v192h201v-192h-201z" />
<glyph unicode="&#x152;" horiz-adv-x="2273" d="M123 729q0 165 40 299t119.5 233.5t206 154t291.5 54.5q312 0 467 -188v176h910v-174h-713q0 -16 1 -233.5t1 -231.5h604v-168h-604q0 -16 -1 -239.5t-1 -237.5h717v-174h-914v178q-155 -188 -467 -188q-317 0 -487 193t-170 546zM317 729q0 -272 116.5 -417.5 t346.5 -145.5q123 0 214 40t145 115.5t80 176.5t26 231q0 103 -15 187t-49 155.5t-87 120t-132.5 75.5t-181.5 27q-120 0 -210 -41.5t-145 -118t-81.5 -177.5t-26.5 -228z" />
<glyph unicode="&#x153;" horiz-adv-x="1753" d="M102 514q0 86 11.5 159.5t41.5 142t77 116.5t122 77t172 29q113 0 201.5 -47t136.5 -131q52 86 141 132t199 46q202 0 319 -135t117 -360v-82h-692q0 -147 72.5 -230.5t204.5 -83.5q91 0 153.5 40t81.5 110h176q-14 -70 -42 -123.5t-75.5 -96.5t-122 -66t-173.5 -23 q-250 0 -361 174q-50 -83 -137.5 -128.5t-198.5 -45.5q-97 0 -171.5 28.5t-121.5 76.5t-77 117t-42 143t-12 161zM287 514q0 -60 5 -107.5t20.5 -96.5t41 -81.5t69.5 -53.5t103 -21t103 20.5t69.5 53.5t41 82t21 97t5.5 107t-5.5 106.5t-21 96t-41 81.5t-69.5 53.5 t-103 20.5t-103 -21t-69.5 -53.5t-41 -81.5t-20.5 -96t-5 -106zM948 594h508q-2 54 -17.5 103.5t-45 92t-78.5 68t-111 25.5q-117 0 -182.5 -77t-73.5 -212z" />
<glyph unicode="&#x178;" d="M20 1458h216l321 -663l315 663h213l-434 -858v-600h-196v600zM258 1565v192h201v-192h-201zM668 1565v192h200v-192h-200z" />
<glyph unicode="&#x2c6;" horiz-adv-x="954" d="M135 1223l260 323h162l262 -323h-162l-180 204l-180 -204h-162z" />
<glyph unicode="&#x2dc;" horiz-adv-x="964" d="M141 1362q64 64 110 86t97 22q75 0 150 -47q62 -41 112 -41q29 0 55.5 12.5t65.5 51.5l90 -88q-64 -64 -111.5 -86.5t-95.5 -22.5q-66 0 -149 47q-70 41 -115 41q-29 0 -54.5 -12t-66.5 -51z" />
<glyph unicode="&#x2000;" horiz-adv-x="1007" />
<glyph unicode="&#x2001;" horiz-adv-x="2015" />
<glyph unicode="&#x2002;" horiz-adv-x="1007" />
<glyph unicode="&#x2003;" horiz-adv-x="2015" />
<glyph unicode="&#x2004;" horiz-adv-x="671" />
<glyph unicode="&#x2005;" horiz-adv-x="503" />
<glyph unicode="&#x2006;" horiz-adv-x="335" />
<glyph unicode="&#x2007;" horiz-adv-x="335" />
<glyph unicode="&#x2008;" horiz-adv-x="251" />
<glyph unicode="&#x2009;" horiz-adv-x="403" />
<glyph unicode="&#x200a;" horiz-adv-x="111" />
<glyph unicode="&#x2010;" horiz-adv-x="1114" d="M123 475v172h868v-172h-868z" />
<glyph unicode="&#x2011;" horiz-adv-x="1114" d="M123 475v172h868v-172h-868z" />
<glyph unicode="&#x2012;" horiz-adv-x="1114" d="M123 475v172h868v-172h-868z" />
<glyph unicode="&#x2013;" horiz-adv-x="1077" d="M102 475v172h873v-172h-873z" />
<glyph unicode="&#x2014;" horiz-adv-x="1861" d="M102 477v176h1657v-176h-1657z" />
<glyph unicode="&#x2018;" horiz-adv-x="497" d="M70 1022l254 434h96l-135 -434h-215z" />
<glyph unicode="&#x2019;" horiz-adv-x="464" d="M68 1024l137 434h213l-252 -434h-98z" />
<glyph unicode="&#x201a;" horiz-adv-x="626" d="M139 -233q25 76 70.5 221t66.5 211h213l-251 -432h-99z" />
<glyph unicode="&#x201c;" horiz-adv-x="768" d="M59 1024l252 434h99l-138 -434h-213zM352 1024l252 434h98l-137 -434h-213z" />
<glyph unicode="&#x201d;" horiz-adv-x="759" d="M59 1024l138 434h213l-252 -434h-99zM352 1024l137 434h213l-251 -434h-99z" />
<glyph unicode="&#x201e;" horiz-adv-x="983" d="M139 -233q25 76 70.5 221t66.5 211h213l-251 -432h-99zM487 -233q26 78 72 223.5t66 208.5h213l-252 -432h-99z" />
<glyph unicode="&#x2022;" horiz-adv-x="995" d="M164 684q0 138 98 236t236 98t235.5 -98t97.5 -236t-97.5 -236t-235.5 -98t-236 98t-98 236z" />
<glyph unicode="&#x2026;" horiz-adv-x="1560" d="M143 0v219h222v-219h-222zM670 0v219h221v-219h-221zM1198 0v219h219v-219h-219z" />
<glyph unicode="&#x202f;" horiz-adv-x="403" />
<glyph unicode="&#x2039;" horiz-adv-x="661" d="M70 567l454 455v-227l-229 -228l229 -229v-225z" />
<glyph unicode="&#x203a;" horiz-adv-x="663" d="M137 111v225l232 229l-232 228v227l457 -455z" />
<glyph unicode="&#x205f;" horiz-adv-x="503" />
<glyph unicode="&#x20ac;" horiz-adv-x="1269" d="M123 582v96h96v115h-96v96h100q10 136 39.5 239t84.5 182.5t145 121t213 41.5q108 0 190.5 -29t134 -82.5t80 -120.5t37.5 -151h-199q-11 95 -75.5 150.5t-167.5 55.5q-76 0 -131 -30.5t-87 -89t-49 -127t-24 -160.5h366v-96h-370v-115h370v-96h-366q13 -209 81 -314.5 t212 -105.5q219 6 241 207h199q-19 -175 -125.5 -278t-316.5 -103q-239 0 -351 146.5t-131 447.5h-100z" />
<glyph unicode="&#x2122;" horiz-adv-x="1828" d="M113 1329v129h618v-129h-237v-745h-144v745h-237zM879 584v874h143l260 -510l262 510h142v-874h-142v594l-194 -385h-133l-195 385v-594h-143z" />
<glyph unicode="&#x25fc;" horiz-adv-x="1024" d="M0 0v1024h1024v-1024h-1024z" />
<glyph unicode="&#xfb01;" horiz-adv-x="1038" d="M61 883v141h123v152q0 121 71 201.5t204 80.5h121v-160h-88q-121 0 -121 -129v-145h516v-1024h-187v883h-329v-883h-187v883h-123zM694 1266v192h201v-192h-201z" />
<glyph unicode="&#xfb02;" horiz-adv-x="1019" d="M61 883v141h123v152q0 121 71 201.5t204 80.5h418v-1458h-187v1298h-198q-121 0 -121 -129v-145h209v-141h-209v-883h-187v883h-123z" />
</font>
</defs>
</svg>
