<?xml version="1.0" standalone="no"?>
<!DOCTYPE svg PUBLIC "-//W3C//DTD SVG 1.1//EN" "http://www.w3.org/Graphics/SVG/1.1/DTD/svg11.dtd" >
<svg xmlns="http://www.w3.org/2000/svg">
<metadata></metadata>
<defs>
<font id="tinbold" horiz-adv-x="1159" >
<font-face units-per-em="2048" ascent="1638" descent="-410" />
<missing-glyph horiz-adv-x="475" />
<glyph horiz-adv-x="0" />
<glyph unicode="&#xd;" horiz-adv-x="2048" />
<glyph horiz-adv-x="0" />
<glyph horiz-adv-x="0" />
<glyph unicode=" "  horiz-adv-x="475" />
<glyph unicode="&#x09;" horiz-adv-x="475" />
<glyph unicode="&#xa0;" horiz-adv-x="475" />
<glyph unicode="!" horiz-adv-x="655" d="M164 1458h328l-64 -1001h-201zM186 0v272h283v-272h-283z" />
<glyph unicode="&#x22;" horiz-adv-x="917" d="M123 1458h252l-68 -479h-127zM543 1458h252l-68 -479h-127z" />
<glyph unicode="#" horiz-adv-x="1329" d="M102 389v250h183l32 221h-143v248h182l58 362h248l-58 -362h232l57 362h248l-56 -362h142v-248h-183l-32 -221h141v-250h-182l-62 -389h-250l64 389h-231l-62 -389h-248l62 389h-142zM530 639h232l33 221h-230z" />
<glyph unicode="$" horiz-adv-x="1112" d="M102 477h250q14 -132 129 -158v326q-352 87 -352 350q0 153 93.5 246.5t258.5 112.5v295h154v-295q173 -18 262 -111t107 -254h-248q-22 120 -121 148v-297q70 -19 118 -36.5t100.5 -48t84 -68t52 -94.5t20.5 -130q0 -154 -102 -248.5t-273 -112.5v-333h-154v333 q-339 32 -379 375zM365 995q0 -66 116 -110v252q-116 -29 -116 -142zM635 322q67 14 103 52t36 85q0 55 -35.5 89t-103.5 58v-284z" />
<glyph unicode="%" horiz-adv-x="1638" d="M102 987v203q0 133 84.5 206.5t212.5 73.5q127 0 212 -74t85 -206v-203q0 -132 -85 -206t-212 -74q-128 0 -212.5 73.5t-84.5 206.5zM295 995q0 -116 104 -116q50 0 77.5 29t27.5 87v187q0 58 -27.5 87t-77.5 29q-104 0 -104 -116v-187zM367 0l690 1458h209l-691 -1458 h-208zM942 268v203q0 133 84.5 207t212.5 74q126 0 211.5 -74.5t85.5 -206.5v-203q0 -132 -85 -206t-212 -74q-128 0 -212.5 73.5t-84.5 206.5zM1135 276q0 -116 104 -116t104 116v187q0 117 -104 117t-104 -117v-187z" />
<glyph unicode="&#x26;" horiz-adv-x="1435" d="M102 430q0 54 15.5 104t40 89.5t60.5 77.5t70.5 65t76.5 55q-30 35 -49 59.5t-45 66.5t-39 88t-13 95q0 152 104.5 246t284.5 94q169 0 271 -96.5t102 -247.5q0 -80 -38.5 -140t-111.5 -114q-67 -50 -104 -75l246 -291q68 91 74 256h251q-16 -296 -155 -453l262 -309 h-338l-106 127q-80 -62 -130 -87q-108 -52 -247 -52q-237 0 -359.5 116.5t-122.5 325.5zM360 434q0 -89 64 -147t158 -58q118 0 217 86l-291 342q-75 -52 -111.5 -101.5t-36.5 -121.5zM487 1124q0 -25 16 -55.5t30.5 -48.5t50.5 -59l61 40q84 59 84 123q0 52 -32.5 85.5 t-88.5 33.5q-58 0 -89.5 -33t-31.5 -86z" />
<glyph unicode="'" horiz-adv-x="497" d="M123 1458h252l-68 -479h-127z" />
<glyph unicode="(" horiz-adv-x="690" d="M143 729q0 126 9.5 235.5t23 187.5t37.5 149t43.5 114t52 90.5t51 69.5t51.5 58l27 30l170 -164q-14 -18 -41 -47.5t-44 -50.5t-40.5 -59.5t-37.5 -88t-28.5 -120.5t-21 -173t-6.5 -231t6.5 -231t21 -173t28.5 -120.5t37.5 -88t40.5 -59.5t44 -50.5t41 -47.5l-170 -164 l-27 30q-33 37 -51.5 58.5t-51 69t-52 90.5t-44 114t-37.5 149t-22.5 187.5t-9.5 235.5z" />
<glyph unicode=")" horiz-adv-x="690" d="M82 -41q14 18 41 47.5t44 50.5t40.5 59.5t37.5 88t28.5 120.5t21 173t6.5 231t-6.5 231t-21 173t-28.5 120.5t-37.5 88t-40.5 59.5t-44 50.5t-41 47.5l170 164l27 -30q33 -37 51.5 -58.5t51 -69t52 -90.5t44 -114t37.5 -149t22.5 -187.5t9.5 -235.5t-9.5 -235.5 t-23 -187.5t-37.5 -149t-43.5 -114t-52 -90.5t-51 -69.5t-51.5 -58l-27 -30z" />
<glyph unicode="*" horiz-adv-x="993" d="M102 942l226 119l-226 119l93 163l217 -137l-11 256h189l-8 -256l215 137l94 -163l-227 -119l227 -119l-94 -162l-215 135l8 -256h-189l11 256l-217 -135z" />
<glyph unicode="+" horiz-adv-x="1112" d="M102 442v250h330v328h250v-328h328v-250h-328v-327h-250v327h-330z" />
<glyph unicode="," horiz-adv-x="655" d="M123 -338l119 629h290l-260 -629h-149z" />
<glyph unicode="-" horiz-adv-x="1073" d="M102 461v248h869v-248h-869z" />
<glyph unicode="." horiz-adv-x="550" d="M123 0v303h305v-303h-305z" />
<glyph unicode="/" horiz-adv-x="792" d="M-20 -152l583 1762h250l-584 -1762h-249z" />
<glyph unicode="0" horiz-adv-x="1286" d="M121 733q0 168 29 300.5t91 233t165.5 154.5t244.5 54q116 0 206 -34t151 -96t100 -154.5t56.5 -205t17.5 -252.5q0 -177 -28.5 -311t-90.5 -233t-165.5 -150t-246.5 -51q-272 0 -401 188t-129 557zM377 733q0 -229 71 -359t203 -130q95 0 157.5 64.5t89 171t26.5 253.5 q0 486 -271 486q-71 0 -125 -39.5t-86.5 -108.5t-48.5 -154.5t-16 -183.5z" />
<glyph unicode="1" horiz-adv-x="1005" d="M184 1239v176l248 43h266v-1458h-266v1239h-248z" />
<glyph unicode="2" horiz-adv-x="1144" d="M102 0v240l592 632q41 49 58.5 88t17.5 89q0 81 -55 131.5t-140 50.5q-67 0 -124 -41.5t-64 -112.5h-268q16 172 136 282.5t320 110.5q198 0 329.5 -115.5t131.5 -307.5q0 -98 -35 -166.5t-120 -167.5l-455 -473h604v-240h-928z" />
<glyph unicode="3" horiz-adv-x="1226" d="M121 379l260 2q3 -51 43.5 -87.5t91 -51.5t100.5 -15q101 0 165.5 64.5t64.5 171.5q0 118 -71.5 167.5t-199.5 49.5h-77v180l241 359h-571v239h872v-184l-256 -383q70 -19 126 -50.5t103 -81.5t73 -125t26 -169q0 -111 -39.5 -202.5t-107.5 -151t-157.5 -91.5t-191.5 -32 q-212 0 -350 103t-145 288z" />
<glyph unicode="4" horiz-adv-x="1185" d="M104 250v252l549 956h291l-549 -956h305v315h256v-315h134v-252h-134v-250h-256v250h-596z" />
<glyph unicode="5" horiz-adv-x="1198" d="M143 352h260q17 -36 30 -56.5t35.5 -39t55.5 -26t82 -7.5q106 0 165.5 76t59.5 199q0 134 -57 205t-156 71q-45 0 -84 -8t-63 -19.5t-42 -23t-25 -19.5l-7 -8h-243l94 762h776v-239h-580l-45 -314q35 33 103 58.5t157 25.5q104 0 188.5 -39t138.5 -106t83 -156t29 -190 q0 -108 -30 -199.5t-89 -161.5t-154.5 -109.5t-218.5 -39.5q-402 0 -463 364z" />
<glyph unicode="6" horiz-adv-x="1179" d="M94 711q0 186 40.5 333t112 239t166 139.5t205.5 47.5q199 0 317 -110.5t134 -282.5h-268q-7 71 -62 112.5t-121 41.5q-28 0 -57 -9.5t-63.5 -36.5t-62 -69t-49.5 -114t-30 -164q4 4 12.5 11.5t37 26.5t59.5 33.5t80 26.5t100 12q110 0 196 -40t138 -108t79 -151t27 -176 q0 -98 -31 -185t-89 -154t-149.5 -106.5t-203.5 -39.5q-116 0 -209 42t-163 127.5t-108 226t-38 327.5zM352 637q4 -118 22.5 -198t53 -126t79 -65t105.5 -19q232 0 232 244q0 55 -8 93.5t-31 75.5t-71.5 56t-121.5 19q-141 0 -260 -80z" />
<glyph unicode="7" horiz-adv-x="1128" d="M82 1219v239h967v-239l-512 -1219h-289l512 1219h-678z" />
<glyph unicode="8" horiz-adv-x="1189" d="M106 444q0 49 12 95.5t31.5 81t43 65t47 51t43 35.5t31.5 22l12 7q-7 4 -17.5 11.5t-38.5 33t-49.5 54t-39 74t-17.5 93.5q0 188 123.5 295.5t312.5 107.5t312.5 -107.5t123.5 -295.5q0 -52 -17 -98.5t-41 -76t-48 -51t-41 -31.5l-17 -9q9 -4 24 -13t53.5 -40.5 t67.5 -68.5t53 -98.5t24 -129.5q0 -103 -41 -191t-109.5 -147t-157.5 -92t-186 -33q-131 0 -242.5 54t-181.5 159.5t-70 242.5zM373 444q0 -97 68.5 -157t158.5 -60t158.5 63t68.5 163q0 103 -68 165t-159 62q-90 0 -158.5 -64.5t-68.5 -171.5zM430 1067q0 -79 45.5 -122.5 t124.5 -43.5t124.5 43.5t45.5 122.5q0 77 -45.5 120.5t-124.5 43.5t-124.5 -43.5t-45.5 -120.5z" />
<glyph unicode="9" horiz-adv-x="1093" d="M102 1016q0 210 128 332t327 122q200 0 327.5 -119.5t127.5 -330.5q0 -90 -30.5 -179t-90.5 -210l-309 -631h-289l303 602q-45 -18 -109 -18q-74 0 -143 30t-123 84t-86.5 137t-32.5 181zM369 1018q0 -97 51.5 -155t136.5 -58q84 0 136 57t52 156t-52 156t-136 57 t-136 -57t-52 -156z" />
<glyph unicode=":" horiz-adv-x="589" d="M143 0v303h303v-303h-303zM143 664v303h303v-303h-303z" />
<glyph unicode=";" horiz-adv-x="686" d="M125 -338l119 629h291l-261 -629h-149zM240 664v303h303v-303h-303z" />
<glyph unicode="&#x3c;" horiz-adv-x="999" d="M102 590l459 457h334l-459 -459l461 -461h-332z" />
<glyph unicode="=" horiz-adv-x="1112" d="M102 238v249h908v-249h-908zM102 682v250h908v-250h-908z" />
<glyph unicode="&#x3e;" horiz-adv-x="999" d="M102 125l461 461l-459 458h334l459 -456l-463 -463h-332z" />
<glyph unicode="?" horiz-adv-x="1058" d="M102 1083q23 185 126.5 286t295.5 101q117 0 214 -47t157.5 -141.5t60.5 -220.5q0 -123 -100 -256l-151 -201q-37 -50 -37 -104v-43h-267v61q0 63 18 110.5t60 102.5l152 195q59 77 59 137q0 73 -45.5 120.5t-120.5 47.5q-68 0 -113 -40.5t-46 -107.5h-263zM393 0v272 h283v-272h-283z" />
<glyph unicode="@" horiz-adv-x="1673" d="M127 713q22 339 244 547t555 208q137 0 259 -50.5t206.5 -134t134 -194t49.5 -229.5q0 -67 -15.5 -139.5t-50 -145t-82.5 -130.5t-119.5 -94t-154.5 -36q-175 0 -203 131q-111 -120 -219 -120q-106 0 -176.5 84.5t-75.5 201.5q-4 115 53 231t146 187q55 45 137 62.5 t158 -11t100 -106.5l2 -6l31 96h164l-146 -502q-7 -25 -9.5 -43.5t0 -37t15.5 -29.5t37 -13q68 0 120.5 38.5t82.5 101t45 132.5t15 142q0 201 -144 337t-358 136q-276 0 -446 -166t-193 -452q-11 -139 34.5 -251.5t129.5 -180.5t188.5 -104t218.5 -36q178 0 422 76l37 -131 q-97 -39 -234 -67.5t-231 -28.5q-118 0 -228.5 30t-205 91t-163.5 146t-104 204t-26 256zM680 618q-1 -69 33 -100.5t98 -25.5q53 6 97 67t65 139t18 144q-3 55 -39 80.5t-80 17.5q-73 -15 -131 -113t-61 -209z" />
<glyph unicode="A" horiz-adv-x="1286" d="M0 0l530 1458h224l532 -1458h-297l-86 258h-518l-88 -258h-297zM465 498h362l-178 530z" />
<glyph unicode="B" horiz-adv-x="1282" d="M143 0v1458h586q212 0 331.5 -110t119.5 -299q0 -110 -56.5 -189.5t-124.5 -111.5q37 -17 69 -42t63.5 -63.5t50 -96t18.5 -126.5q0 -199 -123 -309.5t-323 -110.5h-611zM428 254h297q92 0 141 51t49 129t-48.5 128t-141.5 50h-297v-358zM428 868h279q89 0 138.5 46 t49.5 122t-49.5 122t-138.5 46h-279v-336z" />
<glyph unicode="C" horiz-adv-x="1413" d="M102 729q0 166 37.5 299.5t113.5 234t202 154.5q124 53 287 53h6q264 0 411.5 -127t171.5 -339h-293q-20 104 -95.5 158.5t-194.5 54.5q-99 0 -172 -36.5t-116 -103.5t-63 -153.5t-20 -194.5q0 -139 40.5 -246.5t124 -171t201.5 -63.5q121 0 198 53t97 156h293 q-24 -212 -174 -339.5t-414 -127.5q-162 0 -286 54t-201 153t-115.5 233t-38.5 299z" />
<glyph unicode="D" horiz-adv-x="1415" d="M143 0v1458h525q134 0 242 -36t182.5 -100t124.5 -154t73 -195.5t23 -227.5q0 -166 -41 -301.5t-120 -235t-202.5 -154t-281.5 -54.5h-525zM428 256h215q86 0 153.5 29t109 76t68.5 112.5t37.5 131.5t10.5 140q0 221 -96 340t-283 119h-215v-948z" />
<glyph unicode="E" horiz-adv-x="1196" d="M143 0v1458h961v-254h-676v-342h576v-254h-576v-354h676v-254h-961z" />
<glyph unicode="F" horiz-adv-x="1144" d="M143 0v1458h961v-254h-676v-342h576v-254h-576v-608h-285z" />
<glyph unicode="G" horiz-adv-x="1478" d="M102 729q0 165 39 299t117 233.5t203.5 154t290.5 54.5q264 0 411.5 -127t171.5 -339h-293q-20 104 -95.5 158.5t-194.5 54.5q-190 0 -278.5 -129t-88.5 -359t94 -358.5t258 -128.5q123 0 221 89t101 228h-295v234h571v-793h-219v201q-53 -102 -154.5 -156.5 t-224.5 -54.5q-315 0 -475 191t-160 548z" />
<glyph unicode="H" horiz-adv-x="1349" d="M143 0v1458h285v-596h494v596h284v-1458h-284v610h-494v-610h-285z" />
<glyph unicode="I" horiz-adv-x="591" d="M154 0v1458h284v-1458h-284z" />
<glyph unicode="J" horiz-adv-x="669" d="M0 41q61 0 109.5 27t76.5 70t42 91t14 95v1134h284v-1155q0 -120 -44.5 -222t-118.5 -168t-168.5 -103t-194.5 -37v268z" />
<glyph unicode="K" horiz-adv-x="1343" d="M143 0v1458h285v-635l514 635h346l-483 -579l518 -879h-332l-375 664l-188 -226v-438h-285z" />
<glyph unicode="L" horiz-adv-x="1130" d="M143 0v1458h285v-1204h662v-254h-947z" />
<glyph unicode="M" horiz-adv-x="1607" d="M143 0v1458h281l381 -788l379 788h280v-1458h-284v850l-279 -553h-192l-281 553v-850h-285z" />
<glyph unicode="N" horiz-adv-x="1402" d="M143 0v1458h254l578 -893v893h285v-1458h-254l-578 895v-895h-285z" />
<glyph unicode="O" horiz-adv-x="1523" d="M102 729q0 165 40.5 299.5t120.5 233.5t207 153.5t292 54.5q173 0 301.5 -53.5t206 -153.5t114.5 -233t37 -301q0 -169 -39 -303t-118 -232.5t-206 -151t-296 -52.5q-318 0 -489 193t-171 546zM385 729q0 -483 377 -483q103 0 177 34t117 99t63 151t20 199t-18.5 198 t-60.5 151.5t-117 101t-181 34.5q-100 0 -174 -35t-117.5 -101t-64.5 -152.5t-21 -196.5z" />
<glyph unicode="P" horiz-adv-x="1271" d="M143 0v1458h566q110 0 201.5 -36t152 -98t94 -144.5t33.5 -175.5t-33.5 -175.5t-94 -145t-152 -98.5t-201.5 -36h-281v-549h-285zM428 805h266q96 0 153.5 54.5t57.5 144.5t-57.5 145t-153.5 55h-266v-399z" />
<glyph unicode="Q" horiz-adv-x="1542" d="M102 729q0 165 40.5 299.5t120.5 233.5t207 153.5t292 54.5q173 0 301.5 -53.5t206 -153.5t114.5 -233t37 -301q0 -315 -129 -498l148 -145l-154 -147l-147 145q-151 -94 -377 -94q-318 0 -489 193t-171 546zM385 729q0 -483 377 -483q103 0 178 35l-147 147l153 147 l141 -141q52 119 52 295q0 113 -18.5 198t-60.5 151.5t-117 101t-181 34.5q-100 0 -174 -35t-117.5 -101t-64.5 -152.5t-21 -196.5z" />
<glyph unicode="R" horiz-adv-x="1308" d="M143 0v1458h572q144 0 253 -61t164.5 -161.5t55.5 -223.5q0 -145 -75.5 -243t-190.5 -140l325 -629h-329l-285 582h-205v-582h-285zM428 819h268q93 0 150 54t57 139t-57 138.5t-150 53.5h-268v-385z" />
<glyph unicode="S" horiz-adv-x="1271" d="M102 432h293q25 -199 238 -199q124 0 192 53.5t68 125.5q0 46 -21 80.5t-64.5 58.5t-92 39.5t-121.5 30.5q-461 96 -461 421q0 200 135.5 313t366.5 113q250 0 377 -111.5t151 -322.5h-289q-35 191 -235 191q-114 0 -171.5 -50t-57.5 -133q0 -23 10.5 -42.5t33 -36 t44.5 -28.5t58.5 -24.5t61.5 -20t66 -18.5q51 -14 85.5 -24t80 -25.5t76 -30t67 -36t60 -44.5t48 -54t38 -66.5t22 -80t8.5 -95.5q1 -202 -147 -315q-145 -111 -381 -111h-8q-480 0 -531 442z" />
<glyph unicode="T" horiz-adv-x="1128" d="M41 1204v254h1046v-254h-380v-1204h-285v1204h-381z" />
<glyph unicode="U" horiz-adv-x="1384" d="M143 500v958h285v-948q0 -124 71.5 -196t188.5 -72q118 0 194 72.5t76 195.5v948h283v-958q0 -150 -76 -268.5t-201.5 -181t-275.5 -62.5t-273.5 62.5t-197.5 180.5t-74 269z" />
<glyph unicode="V" horiz-adv-x="1177" d="M0 1458h295l293 -950l293 950h297l-484 -1458h-213z" />
<glyph unicode="W" horiz-adv-x="1792" d="M0 1458h297l225 -919l266 919h213l267 -919l227 919h297l-391 -1458h-238l-268 885l-268 -885h-238z" />
<glyph unicode="X" horiz-adv-x="1214" d="M0 0l453 748l-424 710h323l254 -471l256 471h322l-424 -710l454 -748h-325l-283 508l-280 -508h-326z" />
<glyph unicode="Y" d="M0 1458h309l273 -588l268 588h309l-438 -860v-598h-283v598z" />
<glyph unicode="Z" horiz-adv-x="1122" d="M82 0v229l623 975h-596v254h931v-225l-624 -979h624v-254h-958z" />
<glyph unicode="[" horiz-adv-x="731" d="M143 -152v1762h527v-240h-260v-1282h260v-240h-527z" />
<glyph unicode="\" horiz-adv-x="784" d="M-20 1583h249l576 -1735h-250z" />
<glyph unicode="]" horiz-adv-x="733" d="M66 86h260v1286h-260v238h526v-1762h-526v238z" />
<glyph unicode="^" horiz-adv-x="1261" d="M143 797l365 676h246l364 -676h-278l-209 385l-209 -385h-279z" />
<glyph unicode="_" horiz-adv-x="1191" d="M-20 -186h1232v-179h-1232v179z" />
<glyph unicode="`" horiz-adv-x="983" d="M193 1585h280l131 -348h-178z" />
<glyph unicode="a" d="M82 535q0 254 110 399t302 145q60 0 111.5 -13.5t82.5 -32t53 -37.5t31 -32l8 -14v117h258v-1067h-258v125q-3 -5 -9.5 -14.5t-31 -32.5t-54 -41t-81.5 -32.5t-112 -14.5q-181 0 -295.5 147.5t-114.5 397.5zM348 535q0 -154 50 -230t163 -76q120 0 169.5 74.5t49.5 228.5 q0 312 -215 312q-75 0 -125.5 -44.5t-71 -111.5t-20.5 -153z" />
<glyph unicode="b" horiz-adv-x="1144" d="M123 0v1458h266v-514q99 135 268 135q396 0 396 -544q0 -71 -6.5 -131.5t-22 -125t-44.5 -115t-71.5 -91t-106.5 -62.5t-145 -22q-180 0 -276 139v-127h-258zM389 535q0 -163 39 -235.5t152 -72.5q206 0 206 308q0 69 -10 122t-32.5 95.5t-64 65t-99.5 22.5 q-191 0 -191 -305z" />
<glyph unicode="c" horiz-adv-x="1105" d="M92 535q0 253 128 398.5t349 145.5q108 0 188 -25t131 -74t82 -108t52 -141h-258q-33 113 -189 113q-75 0 -125.5 -44.5t-71 -111.5t-20.5 -153q0 -306 215 -306q82 0 127.5 25.5t65.5 87.5h258q-22 -84 -53 -143.5t-82.5 -109t-131.5 -74.5t-188 -25q-221 0 -349 146 t-128 399z" />
<glyph unicode="d" horiz-adv-x="1163" d="M92 535q0 86 11.5 161.5t40 147t72.5 122.5t114 82t159 31q84 0 159.5 -33t125.5 -96v508h266v-1458h-260v135q-113 -147 -297 -147q-391 0 -391 547zM358 535q0 -141 51 -224.5t164 -83.5q58 0 98.5 23t62.5 66.5t31 96t9 122.5q0 69 -9 121.5t-31 95.5t-62.5 65.5 t-98.5 22.5q-215 0 -215 -305z" />
<glyph unicode="e" horiz-adv-x="1130" d="M92 535q0 256 131 400t346 144q218 0 343.5 -142.5t125.5 -367.5v-118h-676q0 -105 58 -165.5t168 -60.5q83 0 130.5 25.5t65.5 89.5h252q-18 -81 -48.5 -141.5t-81.5 -110t-131.5 -75t-188.5 -25.5q-80 0 -148.5 15t-134 53.5t-111 99t-73 157.5t-27.5 222zM362 633h414 q-5 93 -58 155t-149 62t-148.5 -59t-58.5 -158z" />
<glyph unicode="f" horiz-adv-x="655" d="M41 864v203h111v102q0 59 18.5 112.5t55 97.5t98 70t139.5 26h151v-226h-104q-92 0 -92 -96v-86h196v-203h-196v-864h-266v864h-111z" />
<glyph unicode="g" horiz-adv-x="1126" d="M92 563q0 81 10 151t36 139t67 117.5t108.5 78.5t155.5 30q85 0 150 -31.5t126 -103.5v123h259v-1071q0 -196 -122 -319t-333 -123q-200 0 -300.5 73t-152.5 244h264q15 -49 57.5 -70.5t125.5 -21.5q194 0 194 221v176q-92 -131 -266 -131q-379 0 -379 518zM358 563 q0 -278 191 -278q58 0 96 19.5t57.5 59t27 86t7.5 113.5q0 69 -7.5 116t-27 85.5t-57.5 57t-96 18.5q-57 0 -96 -22.5t-59 -64t-28 -87t-8 -103.5z" />
<glyph unicode="h" horiz-adv-x="1124" d="M123 0v1458h266v-489q107 110 256 110q170 0 263 -107.5t93 -281.5v-690h-266v651q0 98 -51 143.5t-123 45.5q-73 0 -122.5 -53t-49.5 -136v-651h-266z" />
<glyph unicode="i" horiz-adv-x="518" d="M123 1241v217h272v-217h-272zM127 0v1067h266v-1067h-266z" />
<glyph unicode="j" horiz-adv-x="516" d="M-72 -213h103q50 0 72 23.5t22 72.5v1184h266v-1200q0 -59 -18.5 -112t-54.5 -97t-97.5 -70t-140.5 -26h-152v225zM121 1249v217h272v-217h-272z" />
<glyph unicode="k" horiz-adv-x="1093" d="M123 0v1458h266v-827l354 436h322l-381 -430l410 -637h-330l-262 444l-113 -127v-317h-266z" />
<glyph unicode="l" horiz-adv-x="512" d="M123 0v1458h266v-1458h-266z" />
<glyph unicode="m" horiz-adv-x="1753" d="M123 0v1067h260v-135q111 147 266 147q183 0 283 -135q68 71 143.5 103t175.5 32q79 0 148.5 -25t113.5 -69q117 -117 117 -303v-682h-266v645q0 100 -52 147.5t-124 47.5q-71 0 -124.5 -46.5t-53.5 -142.5v-651h-267v645q0 100 -52 147.5t-124 47.5q-71 0 -124.5 -50 t-53.5 -145v-645h-266z" />
<glyph unicode="n" horiz-adv-x="1132" d="M123 0v1067h260v-127q41 62 109.5 100.5t156.5 38.5q158 0 252 -94q61 -61 85 -134.5t24 -168.5v-682h-267v645q0 100 -52 147.5t-124 47.5q-73 0 -125.5 -47.5t-52.5 -147.5v-645h-266z" />
<glyph unicode="o" horiz-adv-x="1118" d="M82 535q0 253 128 398.5t349 145.5t349 -145.5t128 -398.5t-128 -399t-349 -146t-349 146t-128 399zM348 535q0 -154 50 -230t163 -76q221 0 221 306q0 86 -20.5 153t-71 111.5t-125.5 44.5t-125.5 -44.5t-71 -111.5t-20.5 -153z" />
<glyph unicode="p" horiz-adv-x="1148" d="M123 -436v1503h258v-129q104 141 287 141q90 0 159 -28.5t112 -77t70 -119.5t37.5 -148t10.5 -171q0 -60 -4 -112.5t-15 -109.5t-29 -103t-48 -88.5t-70 -71t-96.5 -45.5t-126.5 -17q-83 0 -160.5 37.5t-118.5 99.5v-561h-266zM389 535q0 -70 9 -122.5t31 -96t62.5 -66.5 t98.5 -23t98.5 23t62.5 66.5t31 96t9 122.5q0 69 -9 121.5t-31 95.5t-62.5 65.5t-98.5 22.5t-98.5 -22.5t-62.5 -65.5t-31 -95.5t-9 -121.5z" />
<glyph unicode="q" horiz-adv-x="1153" d="M92 535q0 87 8 158t33 146t66.5 125t113 82.5t168.5 32.5q185 0 289 -139v127h260v-1503h-266v561q-48 -66 -124.5 -101.5t-160.5 -35.5q-90 0 -158.5 28.5t-111.5 77t-69.5 120t-37 149t-10.5 172.5zM358 535q0 -70 9 -122.5t30.5 -96t61.5 -66.5t98 -23q207 0 207 308 q0 69 -10 122t-33 95.5t-64.5 65t-99.5 22.5t-98 -22.5t-61.5 -65.5t-30.5 -95t-9 -122z" />
<glyph unicode="r" horiz-adv-x="776" d="M123 0v1067h260v-162q40 86 119 130t213 44v-256h-39q-58 0 -107.5 -15t-91 -46.5t-65 -86.5t-23.5 -128v-547h-266z" />
<glyph unicode="s" horiz-adv-x="1026" d="M82 319h256q9 -50 56.5 -83t111.5 -33q93 0 138.5 31t45.5 81q0 35 -32.5 59t-84 38.5t-114 28.5t-125 36.5t-114 55t-84 91.5t-32.5 138q0 141 109.5 228t286.5 87q182 0 290.5 -80.5t135.5 -230.5h-256q-9 48 -57 74t-115 26q-72 0 -110 -27t-38 -67q0 -36 33 -60.5 t85 -39.5t115.5 -29.5t127 -36.5t115.5 -53.5t85 -87.5t33 -131q0 -161 -119 -252.5t-319 -91.5q-180 0 -288.5 88.5t-135.5 240.5z" />
<glyph unicode="t" horiz-adv-x="669" d="M41 864v203h113v285h266v-285h188v-203h-188v-542q0 -97 92 -97h96v-225h-145q-78 0 -139 26t-97 70t-54.5 97t-18.5 112v559h-113z" />
<glyph unicode="u" horiz-adv-x="1132" d="M123 385v682h266v-645q0 -100 52 -147.5t124 -47.5q73 0 125.5 47.5t52.5 147.5v645h267v-1067h-260v123q-49 -69 -123 -102t-154 -33q-167 0 -258.5 109t-91.5 288z" />
<glyph unicode="v" horiz-adv-x="993" d="M0 1067h281l217 -659l215 659h280l-391 -1067h-209z" />
<glyph unicode="w" horiz-adv-x="1538" d="M0 1067h283l172 -659l217 659h194l219 -659l172 659h281l-326 -1067h-219l-223 694l-223 -694h-219z" />
<glyph unicode="x" horiz-adv-x="1030" d="M0 0l369 545l-355 522h320l180 -305l182 305h320l-354 -522l368 -545h-319l-197 319l-195 -319h-319z" />
<glyph unicode="y" horiz-adv-x="995" d="M0 1067h281l221 -659l213 659h280l-469 -1284q-36 -93 -80 -137q-82 -82 -229 -82h-104v239h61q58 0 85.5 19.5t47.5 77.5l58 176z" />
<glyph unicode="z" horiz-adv-x="935" d="M61 0v203l474 624h-447v240h786v-203l-479 -624h479v-240h-813z" />
<glyph unicode="{" horiz-adv-x="882" d="M61 610v238h95q67 0 106 39q35 35 35 123v297q0 141 86 227q76 76 229 76h209v-240h-108q-88 0 -117 -29q-33 -36 -33 -131v-276q0 -52 -13.5 -90.5t-38.5 -61t-43.5 -33t-45.5 -20.5q27 -10 45.5 -20.5t43.5 -33t38.5 -61t13.5 -90.5v-276q0 -95 33 -131q29 -29 117 -29 h108v-240h-209q-153 0 -229 76q-86 86 -86 228v297q0 87 -35 122q-39 39 -106 39h-95z" />
<glyph unicode="|" horiz-adv-x="675" d="M205 -152v1762h266v-1762h-266z" />
<glyph unicode="}" horiz-adv-x="882" d="M61 88h109q88 0 117 29q32 35 32 131v276q0 52 13.5 90.5t39 61t44 33t45.5 20.5q-27 10 -45.5 20.5t-44 33t-39 61t-13.5 90.5v276q0 96 -32 131q-29 29 -117 29h-109v240h209q154 0 230 -76q86 -86 86 -227v-297q0 -88 35 -123q39 -39 106 -39h94v-238h-94 q-67 0 -106 -39q-35 -35 -35 -122v-297q0 -142 -86 -228q-76 -76 -230 -76h-209v240z" />
<glyph unicode="~" horiz-adv-x="1212" d="M61 600q97 97 170.5 136.5t165.5 39.5q111 0 240 -69q95 -50 166 -50q47 0 86 16.5t92 69.5l170 -168q-97 -97 -171.5 -136.5t-166.5 -39.5q-109 0 -240 70q-93 49 -167 49q-47 0 -85.5 -16.5t-91.5 -69.5z" />
<glyph unicode="&#xa1;" horiz-adv-x="698" d="M184 -391l66 1001h199l65 -1001h-330zM209 795v272h280v-272h-280z" />
<glyph unicode="&#xa2;" horiz-adv-x="1116" d="M92 752q0 229 107 371t295 167v168h153v-166q87 -8 151.5 -36.5t107.5 -76t69.5 -102.5t46.5 -129h-258q-24 86 -117 107v-602q91 18 119 106h258q-21 -76 -48 -131.5t-70 -103.5t-107.5 -77t-151.5 -38v-209h-153v211q-188 25 -295 167.5t-107 373.5zM358 752 q0 -245 136 -293v585q-69 -31 -102.5 -110t-33.5 -182z" />
<glyph unicode="&#xa3;" horiz-adv-x="1243" d="M102 0v254h119v371h-119v209h119v165q0 218 124.5 348t328.5 130q226 0 335 -106.5t132 -303.5h-283q-10 80 -57 120t-115 40q-92 0 -137 -62t-45 -168v-163h227v-209h-229v-371h633v-254h-1033z" />
<glyph unicode="&#xa5;" horiz-adv-x="1239" d="M41 1458h309l271 -590l270 590h307l-278 -553h151v-205h-256l-53 -102v-104h309v-205h-309v-289h-283v289h-311v205h311v104l-53 102h-258v205h154z" />
<glyph unicode="&#xa6;" horiz-adv-x="471" d="M102 -152v717h267v-717h-267zM102 893v717h267v-717h-267z" />
<glyph unicode="&#xa7;" horiz-adv-x="1048" d="M102 543q0 104 57.5 185t129.5 120q-73 38 -114.5 101t-41.5 167q0 70 24.5 133t71.5 113t124 79t173 29q192 0 292 -98t102 -254h-250q-6 125 -144 125q-69 0 -106 -33.5t-37 -87.5q0 -90 137 -135l127 -41q153 -49 226 -138.5t73 -246.5q0 -103 -57 -184.5t-127 -120.5 q166 -83 166 -285q0 -91 -34.5 -164t-92.5 -118t-129.5 -68.5t-149.5 -23.5t-147.5 21t-128.5 63t-94.5 114t-36.5 166h256q3 -58 43 -93.5t108 -35.5q70 0 110 36t40 95q0 104 -144 152l-127 43q-154 52 -226.5 140t-72.5 245zM358 551q0 -87 50 -137q43 -43 116 -43 q72 0 115 43q51 51 51 137q0 88 -51 139q-46 43 -115 43q-73 0 -116 -43q-50 -50 -50 -139z" />
<glyph unicode="&#xa8;" horiz-adv-x="985" d="M152 1241v256h227v-256h-227zM604 1241v256h227v-256h-227z" />
<glyph unicode="&#xa9;" horiz-adv-x="1687" d="M102 729q0 202 99.5 372.5t270 269.5t372.5 99q151 0 288.5 -58.5t236.5 -157.5t157.5 -236.5t58.5 -288.5t-58.5 -288.5t-157.5 -236.5t-236.5 -157.5t-288.5 -58.5q-202 0 -372.5 99t-270 269.5t-99.5 372.5zM279 729q0 -162 75 -294t204 -206.5t286 -74.5t286 74.5 t203 206.5t74 294q0 122 -43.5 229t-118.5 183t-179.5 120t-221.5 44t-221.5 -44t-180 -120t-119.5 -183t-44 -229zM477 731q0 182 91 291t270 108q143 0 224.5 -69t94.5 -182h-172q-21 100 -147 100q-96 0 -144.5 -66t-48.5 -182q0 -114 50.5 -180t140.5 -66q129 0 149 99 h172q-13 -113 -95.5 -182.5t-225.5 -69.5q-175 0 -267 108t-92 291z" />
<glyph unicode="&#xaa;" horiz-adv-x="983" d="M133 1059q0 191 82 299t227 108q45 0 84 -10t62 -24t39.5 -28t22.5 -24l7 -10v88h195v-801h-195v95q-2 -4 -7 -11t-23.5 -25t-41 -31.5t-61.5 -24.5t-84 -11q-136 0 -221.5 111t-85.5 299zM334 1059q0 -115 38 -172.5t122 -57.5q90 0 126.5 56t36.5 172q0 233 -161 233 q-82 0 -122 -65.5t-40 -165.5z" />
<glyph unicode="&#xab;" horiz-adv-x="659" d="M184 659v140l377 389h119v-916h-119z" />
<glyph unicode="&#xac;" horiz-adv-x="1210" d="M143 489v248h924v-544h-248v296h-676z" />
<glyph unicode="&#xad;" horiz-adv-x="1073" d="M102 461v248h869v-248h-869z" />
<glyph unicode="&#xae;" horiz-adv-x="1687" d="M102 729q0 202 99.5 372.5t270 269.5t372.5 99q151 0 288.5 -58.5t236.5 -157.5t157.5 -236.5t58.5 -288.5t-58.5 -288.5t-157.5 -236.5t-236.5 -157.5t-288.5 -58.5q-202 0 -372.5 99t-270 269.5t-99.5 372.5zM279 729q0 -162 74.5 -294t203.5 -206.5t287 -74.5 t287 74.5t203.5 206.5t74.5 294t-74.5 294.5t-203.5 207t-287 74.5t-287 -74.5t-203.5 -207t-74.5 -294.5zM573 336v788h322q116 0 189 -72.5t73 -174.5q0 -77 -41 -130t-104 -79l166 -332h-201l-143 305h-84v-305h-177zM750 774h122q48 0 78.5 30t30.5 73q0 42 -30.5 72 t-78.5 30h-122v-205z" />
<glyph unicode="&#xaf;" horiz-adv-x="983" d="M168 1290v178h647v-178h-647z" />
<glyph unicode="&#xb0;" horiz-adv-x="958" d="M102 1110q0 157 110 268t267 111t267 -111t110 -268t-110 -267t-267 -110t-267 110t-110 267zM317 1110q0 -69 47 -116.5t115 -47.5t115 47.5t47 116.5t-48 116.5t-116 47.5q-67 0 -113.5 -47.5t-46.5 -116.5z" />
<glyph unicode="&#xb1;" horiz-adv-x="3223" d="M82 463v256h3060v-256h-3060z" />
<glyph unicode="&#xb2;" horiz-adv-x="761" d="M102 584v174l320 350q45 48 45 96q0 40 -22.5 64t-63.5 24q-37 0 -61.5 -20.5t-24.5 -69.5h-193q0 123 79.5 193.5t199.5 70.5q123 0 200.5 -70.5t77.5 -191.5q0 -62 -24 -106t-82 -107l-215 -233h321v-174h-557z" />
<glyph unicode="&#xb3;" horiz-adv-x="782" d="M102 846h193q0 -47 27 -72.5t69 -25.5q44 0 70 26.5t26 75.5q0 43 -27.5 70.5t-72.5 27.5h-27v166h27q44 0 67 26t23 62q0 42 -25 66t-61 24q-37 0 -61.5 -23t-24.5 -63h-192q0 118 79.5 189t198.5 71q121 0 200 -72.5t79 -185.5q0 -115 -92 -172q102 -66 102 -192 q0 -130 -83 -199.5t-206 -69.5q-56 0 -106.5 15.5t-92 47t-66 85t-24.5 123.5z" />
<glyph unicode="&#xb4;" horiz-adv-x="983" d="M379 1237l131 348h281l-234 -348h-178z" />
<glyph unicode="&#xb6;" horiz-adv-x="1372" d="M102 1042q0 198 128.5 307t344.5 109h654v-1849h-266v1595h-205v-1595h-266v1022q-156 0 -273 121.5t-117 289.5z" />
<glyph unicode="&#xb7;" horiz-adv-x="542" d="M119 434v303h305v-303h-305z" />
<glyph unicode="&#xb8;" horiz-adv-x="983" d="M307 -422l142 299h196l-90 -299h-248z" />
<glyph unicode="&#xb9;" horiz-adv-x="544" d="M84 1307v114l192 37h160v-876h-194v725h-158z" />
<glyph unicode="&#xba;" horiz-adv-x="966" d="M123 1032q0 121 21 197t77 135q100 104 262 104t262 -104q56 -59 77.5 -135t21.5 -197q0 -122 -21 -196t-78 -134q-100 -104 -262 -104t-262 104q-56 59 -77 133.5t-21 196.5zM338 1032q0 -78 9 -127t38 -78q36 -36 98 -36q63 0 99 36q29 29 38 78t9 127t-9 128t-38 79 q-37 37 -99 37q-61 0 -98 -37q-29 -29 -38 -79t-9 -128z" />
<glyph unicode="&#xbb;" horiz-adv-x="659" d="M-20 272v916h118l377 -389v-140l-377 -387h-118z" />
<glyph unicode="&#xbc;" horiz-adv-x="1675" d="M92 1307v114l193 37h159v-876h-194v725h-158zM365 0l690 1458h209l-691 -1458h-208zM1001 117v182l293 575h211l-295 -575h152v127h184v-127h68v-182h-68v-117h-184v117h-361z" />
<glyph unicode="&#xbd;" horiz-adv-x="1722" d="M92 1307v114l193 37h159v-876h-194v725h-158zM356 0l691 1458h206l-690 -1458h-207zM1104 0v174l319 350q47 50 47 97q0 40 -23.5 64t-64.5 24q-36 0 -60 -21t-24 -70h-194q0 123 79 194t199 71q123 0 201 -70.5t78 -191.5q0 -62 -24.5 -105.5t-82.5 -107.5l-215 -234 h322v-174h-557z" />
<glyph unicode="&#xbe;" horiz-adv-x="1724" d="M61 846h193q0 -47 27 -72.5t69 -25.5q44 0 70 26.5t26 75.5q0 43 -27.5 70.5t-72.5 27.5h-27v166h27q44 0 67 26t23 62q0 42 -25 66t-61 24q-37 0 -61.5 -23t-24.5 -63h-192q0 118 79.5 189t198.5 71q121 0 200 -72.5t79 -185.5q0 -115 -92 -172q102 -66 102 -192 q0 -130 -83 -199.5t-206 -69.5q-56 0 -106.5 15.5t-92 47t-66 85t-24.5 123.5zM420 0l690 1458h209l-690 -1458h-209zM1051 117v182l292 575h211l-294 -575h151v127h184v-127h68v-182h-68v-117h-184v117h-360z" />
<glyph unicode="&#xbf;" horiz-adv-x="1046" d="M92 6q0 71 26 131t75 125l151 203q37 50 37 104v41h266v-61q0 -63 -18 -110.5t-60 -102.5l-151 -195q-60 -78 -60 -137q0 -74 44.5 -121t119.5 -47q79 0 122.5 49t43.5 123h266q0 -124 -58.5 -218.5t-156 -143.5t-217.5 -49q-117 0 -213.5 47t-156.5 141.5t-60 220.5z M373 795v272h282v-272h-282z" />
<glyph unicode="&#xc0;" horiz-adv-x="1286" d="M0 0l530 1458h224l532 -1458h-297l-86 258h-518l-88 -258h-297zM393 1948h281l131 -349h-178zM465 498h362l-178 530z" />
<glyph unicode="&#xc1;" horiz-adv-x="1286" d="M0 0l530 1458h224l532 -1458h-297l-86 258h-518l-88 -258h-297zM465 498h362l-178 530zM469 1599l131 349h281l-234 -349h-178z" />
<glyph unicode="&#xc2;" horiz-adv-x="1286" d="M0 0l530 1458h224l532 -1458h-297l-86 258h-518l-88 -258h-297zM272 1599l271 347h213l270 -347h-207l-170 187l-170 -187h-207zM465 498h362l-178 530z" />
<glyph unicode="&#xc3;" horiz-adv-x="1286" d="M0 0l530 1458h224l532 -1458h-297l-86 258h-518l-88 -258h-297zM279 1763q67 67 118 94t111 27q46 0 80.5 -10.5t77.5 -36.5q61 -37 112 -37q30 0 57.5 12t63.5 48l119 -117q-67 -67 -120 -94t-112 -27q-76 0 -157 47q-63 37 -115 37q-31 0 -58 -11.5t-63 -47.5zM465 498 h362l-178 530z" />
<glyph unicode="&#xc4;" horiz-adv-x="1286" d="M0 0l530 1458h224l532 -1458h-297l-86 258h-518l-88 -258h-297zM295 1604v256h227v-256h-227zM465 498h362l-178 530zM748 1604v256h227v-256h-227z" />
<glyph unicode="&#xc5;" horiz-adv-x="1286" d="M0 0l530 1458h224l532 -1458h-297l-86 258h-518l-88 -258h-297zM367 1810q0 110 79 189.5t189 79.5q111 0 189.5 -78.5t78.5 -190.5q0 -110 -79 -189t-189 -79t-189 79t-79 189zM465 498h362l-178 530zM516 1810q0 -50 35 -85t84 -35t84 35t35 85t-35 84.5t-84 34.5 t-84 -34.5t-35 -84.5z" />
<glyph unicode="&#xc6;" horiz-adv-x="1859" d="M-20 0l761 1458h1129v-254h-676v-344h578v-254h-578v-352h676v-254h-959v319h-460l-166 -319h-305zM573 559h338v645z" />
<glyph unicode="&#xc7;" horiz-adv-x="1454" d="M109 729q0 132 23 243.5t73 205t124.5 158t182.5 100t242 34.5q264 0 411.5 -127t171.5 -339h-293q-20 104 -95.5 158.5t-194.5 54.5q-99 0 -172 -36.5t-116 -103.5t-63 -153.5t-20 -194.5q0 -139 40.5 -246.5t124.5 -171t202 -63.5q120 0 197 53t97 156h293 q-24 -212 -173.5 -339.5t-413.5 -127.5q-162 0 -286 54t-201 153t-115.5 233t-38.5 299zM442 -422l142 299h196l-90 -299h-248z" />
<glyph unicode="&#xc8;" horiz-adv-x="1196" d="M143 0v1458h961v-254h-676v-342h576v-254h-576v-354h676v-254h-961zM412 1948h280l131 -349h-178z" />
<glyph unicode="&#xc9;" horiz-adv-x="1196" d="M143 0v1458h961v-254h-676v-342h576v-254h-576v-354h676v-254h-961zM473 1599l131 349h281l-234 -349h-178z" />
<glyph unicode="&#xca;" horiz-adv-x="1196" d="M143 0v1458h961v-254h-676v-342h576v-254h-576v-354h676v-254h-961zM246 1599l270 347h213l270 -347h-206l-170 187l-170 -187h-207z" />
<glyph unicode="&#xcb;" horiz-adv-x="1196" d="M143 0v1458h961v-254h-676v-342h576v-254h-576v-354h676v-254h-961zM285 1604v256h227v-256h-227zM737 1604v256h228v-256h-228z" />
<glyph unicode="&#xcc;" horiz-adv-x="591" d="M47 1948h281l131 -349h-178zM160 0v1458h284v-1458h-284z" />
<glyph unicode="&#xcd;" horiz-adv-x="591" d="M131 1599l131 349h281l-234 -349h-178zM160 0v1458h284v-1458h-284z" />
<glyph unicode="&#xce;" horiz-adv-x="591" d="M-88 1599l270 347h213l271 -347h-207l-170 187l-170 -187h-207zM160 0v1458h284v-1458h-284z" />
<glyph unicode="&#xcf;" horiz-adv-x="591" d="M-47 1604v256h227v-256h-227zM160 0v1458h284v-1458h-284zM406 1604v256h227v-256h-227z" />
<glyph unicode="&#xd0;" horiz-adv-x="1462" d="M51 629v217h139v612h525q134 0 242 -36t182.5 -100t124.5 -154t73 -195.5t23 -227.5q0 -166 -41 -301.5t-120 -235t-202.5 -154t-281.5 -54.5h-525v629h-139zM475 256h215q86 0 153.5 29t109 76t68.5 112.5t37.5 131.5t10.5 140q0 221 -96 340t-283 119h-215v-358h240 v-217h-240v-373z" />
<glyph unicode="&#xd1;" horiz-adv-x="1402" d="M143 0v1458h254l578 -893v893h285v-1458h-254l-578 895v-895h-285zM311 1763q67 67 118.5 94t111.5 27q46 0 80 -10.5t77 -36.5q61 -37 113 -37q30 0 57.5 12t63.5 48l119 -117q-67 -67 -120 -94t-112 -27q-76 0 -157 47q-63 37 -115 37q-31 0 -58 -11.5t-63 -47.5z" />
<glyph unicode="&#xd2;" horiz-adv-x="1523" d="M102 729q0 165 40.5 299.5t120.5 233.5t207 153.5t292 54.5q173 0 301.5 -53.5t206 -153.5t114.5 -233t37 -301q0 -169 -39 -303t-118 -232.5t-206 -151t-296 -52.5q-318 0 -489 193t-171 546zM385 729q0 -483 377 -483q103 0 177 34t117 99t63 151t20 199t-18.5 198 t-60.5 151.5t-117 101t-181 34.5q-100 0 -174 -35t-117.5 -101t-64.5 -152.5t-21 -196.5zM563 1948h281l131 -349h-178z" />
<glyph unicode="&#xd3;" horiz-adv-x="1523" d="M102 729q0 165 40.5 299.5t120.5 233.5t207 153.5t292 54.5q173 0 301.5 -53.5t206 -153.5t114.5 -233t37 -301q0 -169 -39 -303t-118 -232.5t-206 -151t-296 -52.5q-318 0 -489 193t-171 546zM385 729q0 -483 377 -483q103 0 177 34t117 99t63 151t20 199t-18.5 198 t-60.5 151.5t-117 101t-181 34.5q-100 0 -174 -35t-117.5 -101t-64.5 -152.5t-21 -196.5zM586 1599l131 349h280l-233 -349h-178z" />
<glyph unicode="&#xd4;" horiz-adv-x="1523" d="M102 729q0 165 40.5 299.5t120.5 233.5t207 153.5t292 54.5q173 0 301.5 -53.5t206 -153.5t114.5 -233t37 -301q0 -169 -39 -303t-118 -232.5t-206 -151t-296 -52.5q-318 0 -489 193t-171 546zM385 729q0 -483 377 -483q103 0 177 34t117 99t63 151t20 199t-18.5 198 t-60.5 151.5t-117 101t-181 34.5q-100 0 -174 -35t-117.5 -101t-64.5 -152.5t-21 -196.5zM391 1599l271 347h212l271 -347h-207l-170 187l-170 -187h-207z" />
<glyph unicode="&#xd5;" horiz-adv-x="1523" d="M102 729q0 165 40.5 299.5t120.5 233.5t207 153.5t292 54.5q173 0 301.5 -53.5t206 -153.5t114.5 -233t37 -301q0 -169 -39 -303t-118 -232.5t-206 -151t-296 -52.5q-318 0 -489 193t-171 546zM385 729q0 -483 377 -483q103 0 177 34t117 99t63 151t20 199t-18.5 198 t-60.5 151.5t-117 101t-181 34.5q-100 0 -174 -35t-117.5 -101t-64.5 -152.5t-21 -196.5zM399 1763q67 67 118.5 94t111.5 27q46 0 80 -10.5t77 -36.5q61 -37 113 -37q30 0 57.5 12t63.5 48l119 -117q-67 -67 -120 -94t-112 -27q-76 0 -157 47q-63 37 -115 37 q-31 0 -58 -11.5t-63 -47.5z" />
<glyph unicode="&#xd6;" horiz-adv-x="1523" d="M102 729q0 165 40.5 299.5t120.5 233.5t207 153.5t292 54.5q173 0 301.5 -53.5t206 -153.5t114.5 -233t37 -301q0 -169 -39 -303t-118 -232.5t-206 -151t-296 -52.5q-318 0 -489 193t-171 546zM385 729q0 -483 377 -483q103 0 177 34t117 99t63 151t20 199t-18.5 198 t-60.5 151.5t-117 101t-181 34.5q-100 0 -174 -35t-117.5 -101t-64.5 -152.5t-21 -196.5zM416 1604v256h227v-256h-227zM868 1604v256h228v-256h-228z" />
<glyph unicode="&#xd7;" horiz-adv-x="1075" d="M82 297l289 289l-289 288l168 168l287 -288l288 288l168 -168l-288 -288l288 -289l-168 -168l-288 289l-287 -289z" />
<glyph unicode="&#xd8;" horiz-adv-x="1523" d="M102 729q0 165 40.5 299.5t120.5 233.5t207 153.5t292 54.5q127 0 242 -32l53 110h200l-90 -190q254 -178 254 -629q0 -169 -39 -303t-118 -232.5t-206 -151t-296 -52.5q-129 0 -234 30l-53 -110h-203l93 190q-263 185 -263 629zM385 729q0 -252 102 -371l402 840 q-59 16 -127 16q-100 0 -174 -35t-117.5 -101t-64.5 -152.5t-21 -196.5zM641 260q52 -14 121 -14q103 0 177 34t117 99t63 151t20 199q0 252 -97 371z" />
<glyph unicode="&#xd9;" horiz-adv-x="1384" d="M143 500v958h285v-948q0 -124 71.5 -196t188.5 -72q118 0 194 72.5t76 195.5v948h283v-958q0 -150 -76 -268.5t-201.5 -181t-275.5 -62.5t-273.5 62.5t-197.5 180.5t-74 269zM436 1956h281l131 -348h-178z" />
<glyph unicode="&#xda;" horiz-adv-x="1384" d="M143 500v958h285v-948q0 -124 71.5 -196t188.5 -72q118 0 194 72.5t76 195.5v948h283v-958q0 -150 -76 -268.5t-201.5 -181t-275.5 -62.5t-273.5 62.5t-197.5 180.5t-74 269zM547 1599l131 349h280l-233 -349h-178z" />
<glyph unicode="&#xdb;" horiz-adv-x="1384" d="M143 500v958h285v-948q0 -124 71.5 -196t188.5 -72q118 0 194 72.5t76 195.5v948h283v-958q0 -150 -76 -268.5t-201.5 -181t-275.5 -62.5t-273.5 62.5t-197.5 180.5t-74 269zM283 1599l270 347h213l270 -347h-207l-170 187l-170 -187h-206z" />
<glyph unicode="&#xdc;" horiz-adv-x="1384" d="M143 500v958h285v-948q0 -124 71.5 -196t188.5 -72q118 0 194 72.5t76 195.5v948h283v-958q0 -150 -76 -268.5t-201.5 -181t-275.5 -62.5t-273.5 62.5t-197.5 180.5t-74 269zM352 1604v256h228v-256h-228zM805 1604v256h227v-256h-227z" />
<glyph unicode="&#xdd;" horiz-adv-x="1200" d="M20 1458h310l272 -588l268 588h310l-439 -860v-598h-282v598zM383 1599l131 349h281l-234 -349h-178z" />
<glyph unicode="&#xde;" horiz-adv-x="1292" d="M164 0v1458h285v-268h280q219 0 350 -130.5t131 -322.5q0 -93 -33.5 -175.5t-94 -144.5t-152 -98t-201.5 -36h-280v-283h-285zM449 537h266q96 0 153.5 55t57.5 145t-57.5 144.5t-153.5 54.5h-266v-399z" />
<glyph unicode="&#xdf;" horiz-adv-x="1122" d="M123 0v1067q0 104 34.5 182.5t97.5 126t145.5 71t183.5 23.5q203 0 323.5 -89.5t120.5 -268.5q0 -154 -125 -231q63 -32 95 -82.5t32 -141.5v-327q0 -163 -84 -244q-86 -86 -258 -86h-106v225h53q56 0 92 31q35 30 35 96v295q0 61 -31 92q-33 33 -92 33h-57v209h57 q53 0 88 31t35 92q0 56 -39 92q-46 43 -143 43q-103 0 -147 -48.5t-44 -143.5v-1047h-266z" />
<glyph unicode="&#xe0;" d="M82 535q0 -250 114.5 -397.5t295.5 -147.5q60 0 111.5 14t82.5 33.5t53.5 39.5t31.5 34l9 14v-125h258v1067h-258v-117q-3 5 -9 14t-30 31t-53.5 39t-81.5 31t-112 14q-192 0 -302 -145t-110 -399zM346 1585h281l131 -348h-178zM348 535q0 86 20.5 153t71 111.5 t125.5 44.5q215 0 215 -312q0 -154 -49.5 -228.5t-169.5 -74.5q-113 0 -163 76t-50 230z" />
<glyph unicode="&#xe1;" d="M82 535q0 -250 114.5 -397.5t295.5 -147.5q60 0 111.5 14t82.5 33.5t53.5 39.5t31.5 34l9 14v-125h258v1067h-258v-117q-3 5 -9 14t-30 31t-53.5 39t-81.5 31t-112 14q-192 0 -302 -145t-110 -399zM348 535q0 86 20.5 153t71 111.5t125.5 44.5q215 0 215 -312 q0 -154 -49.5 -228.5t-169.5 -74.5q-113 0 -163 76t-50 230zM406 1237l131 348h280l-233 -348h-178z" />
<glyph unicode="&#xe2;" d="M82 535q0 -250 114.5 -397.5t295.5 -147.5q60 0 111.5 14t82.5 33.5t53.5 39.5t31.5 34l9 14v-125h258v1067h-258v-117q-3 5 -9 14t-30 31t-53.5 39t-81.5 31t-112 14q-192 0 -302 -145t-110 -399zM225 1237l271 346h213l270 -346h-207l-170 186l-170 -186h-207zM348 535 q0 86 20.5 153t71 111.5t125.5 44.5q215 0 215 -312q0 -154 -49.5 -228.5t-169.5 -74.5q-113 0 -163 76t-50 230z" />
<glyph unicode="&#xe3;" d="M82 535q0 -250 114.5 -397.5t295.5 -147.5q60 0 111.5 14t82.5 33.5t53.5 39.5t31.5 34l9 14v-125h258v1067h-258v-117q-3 5 -9 14t-30 31t-53.5 39t-81.5 31t-112 14q-192 0 -302 -145t-110 -399zM225 1401q67 67 118.5 94t111.5 27q46 0 80 -10.5t77 -36.5 q61 -37 113 -37q31 0 58 11.5t63 47.5l119 -117q-66 -66 -119 -93t-113 -27q-77 0 -158 47q-61 36 -114 36q-31 0 -58 -11.5t-63 -47.5zM348 535q0 86 20.5 153t71 111.5t125.5 44.5q215 0 215 -312q0 -154 -49.5 -228.5t-169.5 -74.5q-113 0 -163 76t-50 230z" />
<glyph unicode="&#xe4;" d="M82 535q0 -250 114.5 -397.5t295.5 -147.5q60 0 111.5 14t82.5 33.5t53.5 39.5t31.5 34l9 14v-125h258v1067h-258v-117q-3 5 -9 14t-30 31t-53.5 39t-81.5 31t-112 14q-192 0 -302 -145t-110 -399zM264 1241v256h228v-256h-228zM348 535q0 86 20.5 153t71 111.5 t125.5 44.5q215 0 215 -312q0 -154 -49.5 -228.5t-169.5 -74.5q-113 0 -163 76t-50 230zM717 1241v256h227v-256h-227z" />
<glyph unicode="&#xe5;" d="M82 535q0 -250 114.5 -397.5t295.5 -147.5q60 0 111.5 14t82.5 33.5t53.5 39.5t31.5 34l9 14v-125h258v1067h-258v-117q-3 5 -9 14t-30 31t-53.5 39t-81.5 31t-112 14q-192 0 -302 -145t-110 -399zM334 1464q0 110 79 189.5t189 79.5q111 0 189.5 -78.5t78.5 -190.5 q0 -110 -79 -189t-189 -79t-189 79t-79 189zM348 535q0 86 20.5 153t71 111.5t125.5 44.5q215 0 215 -312q0 -154 -49.5 -228.5t-169.5 -74.5q-113 0 -163 76t-50 230zM483 1464q0 -50 35 -85.5t84 -35.5t84 35.5t35 85.5t-34.5 84.5t-84.5 34.5t-84.5 -34.5t-34.5 -84.5z " />
<glyph unicode="&#xe6;" horiz-adv-x="1849" d="M82 535q0 254 110 399t302 145q60 0 111.5 -13.5t82.5 -32t53 -37.5t31 -32l8 -14v117h258v-98q3 4 9.5 11.5t29 26.5t48 33.5t66.5 26.5t85 12q219 0 347 -143t128 -367v-118h-696q0 -105 65.5 -173.5t175.5 -68.5q81 0 126.5 27t66.5 92h252q-84 -346 -420 -346 q-57 0 -107 13t-81 31t-53.5 36t-31.5 31l-10 13v-106h-258v125q-3 -5 -9.5 -14.5t-31 -32.5t-54 -41t-81.5 -32.5t-112 -14.5q-181 0 -295.5 147.5t-114.5 397.5zM348 535q0 -154 50 -230t163 -76q120 0 169.5 74.5t49.5 228.5q0 312 -215 312q-75 0 -125.5 -44.5 t-71 -111.5t-20.5 -153zM1055 633h434q-5 93 -61 160t-152 67t-155.5 -61t-65.5 -166z" />
<glyph unicode="&#xe7;" horiz-adv-x="1105" d="M92 535q0 253 128 398.5t349 145.5q108 0 188 -25t131 -74t82 -108t52 -141h-258q-33 113 -189 113q-75 0 -125.5 -44.5t-71 -111.5t-20.5 -153q0 -306 215 -306q82 0 127.5 25.5t65.5 87.5h258q-22 -84 -53 -143.5t-82.5 -109t-131.5 -74.5t-188 -25q-221 0 -349 146 t-128 399zM295 -422l141 299h197l-90 -299h-248z" />
<glyph unicode="&#xe8;" horiz-adv-x="1130" d="M92 535q0 256 131 400t346 144q218 0 343.5 -142.5t125.5 -367.5v-118h-676q0 -105 58 -165.5t168 -60.5q83 0 130.5 25.5t65.5 89.5h252q-18 -81 -48.5 -141.5t-81.5 -110t-131.5 -75t-188.5 -25.5q-80 0 -148.5 15t-134 53.5t-111 99t-73 157.5t-27.5 222zM358 1585 h281l131 -348h-178zM362 633h414q-5 93 -58 155t-149 62t-148.5 -59t-58.5 -158z" />
<glyph unicode="&#xe9;" horiz-adv-x="1130" d="M92 535q0 256 131 400t346 144q218 0 343.5 -142.5t125.5 -367.5v-118h-676q0 -105 58 -165.5t168 -60.5q83 0 130.5 25.5t65.5 89.5h252q-18 -81 -48.5 -141.5t-81.5 -110t-131.5 -75t-188.5 -25.5q-80 0 -148.5 15t-134 53.5t-111 99t-73 157.5t-27.5 222zM362 633h414 q-5 93 -58 155t-149 62t-148.5 -59t-58.5 -158zM373 1237l131 348h280l-233 -348h-178z" />
<glyph unicode="&#xea;" horiz-adv-x="1130" d="M92 535q0 256 131 400t346 144q218 0 343.5 -142.5t125.5 -367.5v-118h-676q0 -105 58 -165.5t168 -60.5q83 0 130.5 25.5t65.5 89.5h252q-18 -81 -48.5 -141.5t-81.5 -110t-131.5 -75t-188.5 -25.5q-80 0 -148.5 15t-134 53.5t-111 99t-73 157.5t-27.5 222zM195 1237 l270 346h213l270 -346h-207l-170 186l-170 -186h-206zM362 633h414q-5 93 -58 155t-149 62t-148.5 -59t-58.5 -158z" />
<glyph unicode="&#xeb;" horiz-adv-x="1130" d="M92 535q0 256 131 400t346 144q218 0 343.5 -142.5t125.5 -367.5v-118h-676q0 -105 58 -165.5t168 -60.5q83 0 130.5 25.5t65.5 89.5h252q-18 -81 -48.5 -141.5t-81.5 -110t-131.5 -75t-188.5 -25.5q-80 0 -148.5 15t-134 53.5t-111 99t-73 157.5t-27.5 222zM233 1241 v256h228v-256h-228zM362 633h414q-5 93 -58 155t-149 62t-148.5 -59t-58.5 -158zM686 1241v256h227v-256h-227z" />
<glyph unicode="&#xec;" horiz-adv-x="524" d="M33 1585h280l131 -348h-178zM129 0v1067h266v-1067h-266z" />
<glyph unicode="&#xed;" horiz-adv-x="524" d="M74 1237l131 348h280l-233 -348h-178zM129 0v1067h266v-1067h-266z" />
<glyph unicode="&#xee;" horiz-adv-x="524" d="M-131 1237l270 346h213l271 -346h-207l-170 186l-170 -186h-207zM129 0v1067h266v-1067h-266z" />
<glyph unicode="&#xef;" horiz-adv-x="524" d="M-80 1241v256h227v-256h-227zM129 0v1067h266v-1067h-266zM373 1241v256h227v-256h-227z" />
<glyph unicode="&#xf0;" horiz-adv-x="1085" d="M102 520q0 147 25.5 240t93.5 164q67 70 182 100q88 22 156 14l-70 127h-233v187h139l-63 123h284l64 -123h188v-187h-94l82 -157q76 -149 101.5 -244.5t25.5 -243.5t-25.5 -241t-93.5 -164q-123 -127 -321 -127q-199 0 -322 127q-68 71 -93.5 164t-25.5 241zM369 520 q0 -93 11 -152.5t46 -95.5q45 -45 117 -45q74 0 119 45q35 36 45 94.5t10 153.5t-10 152.5t-45 93.5q-45 45 -119 45q-72 0 -117 -45q-35 -36 -46 -95t-11 -151z" />
<glyph unicode="&#xf1;" horiz-adv-x="1132" d="M123 0v1067h260v-127q41 62 109.5 100.5t156.5 38.5q158 0 252 -94q61 -61 85 -134.5t24 -168.5v-682h-267v645q0 100 -52 147.5t-124 47.5q-73 0 -125.5 -47.5t-52.5 -147.5v-645h-266zM176 1401q67 67 118.5 94t111.5 27q46 0 80 -10.5t77 -36.5q61 -37 113 -37 q31 0 58 11.5t63 47.5l118 -117q-66 -66 -118.5 -93t-112.5 -27q-77 0 -158 47q-61 36 -114 36q-31 0 -58 -11.5t-63 -47.5z" />
<glyph unicode="&#xf2;" horiz-adv-x="1118" d="M82 535q0 -253 128 -399t349 -146t349 146t128 399t-128 398.5t-349 145.5t-349 -145.5t-128 -398.5zM348 535q0 86 20.5 153t71 111.5t125.5 44.5t125.5 -44.5t71 -111.5t20.5 -153q0 -306 -221 -306q-113 0 -163 76t-50 230zM348 1585h281l131 -348h-178z" />
<glyph unicode="&#xf3;" horiz-adv-x="1118" d="M82 535q0 -253 128 -399t349 -146t349 146t128 399t-128 398.5t-349 145.5t-349 -145.5t-128 -398.5zM348 535q0 86 20.5 153t71 111.5t125.5 44.5t125.5 -44.5t71 -111.5t20.5 -153q0 -306 -221 -306q-113 0 -163 76t-50 230zM375 1237l131 348h280l-233 -348h-178z" />
<glyph unicode="&#xf4;" horiz-adv-x="1118" d="M82 535q0 -253 128 -399t349 -146t349 146t128 399t-128 398.5t-349 145.5t-349 -145.5t-128 -398.5zM188 1237l271 346h213l270 -346h-207l-170 186l-170 -186h-207zM348 535q0 86 20.5 153t71 111.5t125.5 44.5t125.5 -44.5t71 -111.5t20.5 -153q0 -306 -221 -306 q-113 0 -163 76t-50 230z" />
<glyph unicode="&#xf5;" horiz-adv-x="1118" d="M82 535q0 -253 128 -399t349 -146t349 146t128 399t-128 398.5t-349 145.5t-349 -145.5t-128 -398.5zM199 1401q67 67 118 94t111 27q46 0 80.5 -10.5t77.5 -36.5q61 -37 112 -37q31 0 58 11.5t63 47.5l119 -117q-66 -66 -118.5 -93t-112.5 -27q-77 0 -158 47 q-61 36 -115 36q-31 0 -58 -11.5t-63 -47.5zM348 535q0 86 20.5 153t71 111.5t125.5 44.5t125.5 -44.5t71 -111.5t20.5 -153q0 -306 -221 -306q-113 0 -163 76t-50 230z" />
<glyph unicode="&#xf6;" horiz-adv-x="1118" d="M82 535q0 -253 128 -399t349 -146t349 146t128 399t-128 398.5t-349 145.5t-349 -145.5t-128 -398.5zM229 1241v256h228v-256h-228zM348 535q0 86 20.5 153t71 111.5t125.5 44.5t125.5 -44.5t71 -111.5t20.5 -153q0 -306 -221 -306q-113 0 -163 76t-50 230zM682 1241v256 h227v-256h-227z" />
<glyph unicode="&#xf7;" horiz-adv-x="1087" d="M82 461v248h924v-248h-924zM412 37v266h266v-266h-266zM412 866v267h266v-267h-266z" />
<glyph unicode="&#xf8;" horiz-adv-x="1087" d="M92 535q0 152 26 246.5t95 166.5q124 131 330 131q127 0 215 -45l71 123h164l-123 -207l4 -2q69 -72 95 -166.5t26 -246.5q0 -154 -26 -249t-95 -167q-124 -131 -331 -131q-121 0 -213 47l-74 -125h-162l121 207l-2 2q-70 70 -95.5 165.5t-25.5 250.5zM358 535 q0 -116 15 -177l270 455q-46 27 -100 27q-76 0 -123 -47q-38 -38 -50 -99.5t-12 -158.5zM444 254q46 -27 99 -27q78 0 125 47q38 38 49.5 100t11.5 161q0 109 -16 174z" />
<glyph unicode="&#xf9;" horiz-adv-x="1132" d="M123 385v682h266v-645q0 -100 52 -147.5t124 -47.5q73 0 125.5 47.5t52.5 147.5v645h267v-1067h-260v123q-49 -69 -123 -102t-154 -33q-167 0 -258.5 109t-91.5 288zM350 1585h281l131 -348h-178z" />
<glyph unicode="&#xfa;" horiz-adv-x="1132" d="M123 385v682h266v-645q0 -100 52 -147.5t124 -47.5q73 0 125.5 47.5t52.5 147.5v645h267v-1067h-260v123q-49 -69 -123 -102t-154 -33q-167 0 -258.5 109t-91.5 288zM401 1237l131 348h281l-233 -348h-179z" />
<glyph unicode="&#xfb;" horiz-adv-x="1132" d="M123 385v682h266v-645q0 -100 52 -147.5t124 -47.5q73 0 125.5 47.5t52.5 147.5v645h267v-1067h-260v123q-49 -69 -123 -102t-154 -33q-167 0 -258.5 109t-91.5 288zM178 1237l271 346h213l270 -346h-207l-170 186l-170 -186h-207z" />
<glyph unicode="&#xfc;" horiz-adv-x="1132" d="M123 385v682h266v-645q0 -100 52 -147.5t124 -47.5q73 0 125.5 47.5t52.5 147.5v645h267v-1067h-260v123q-49 -69 -123 -102t-154 -33q-167 0 -258.5 109t-91.5 288zM217 1241v256h227v-256h-227zM670 1241v256h227v-256h-227z" />
<glyph unicode="&#xfd;" horiz-adv-x="1036" d="M20 1067h281l221 -659l213 659h281l-469 -1284q-36 -93 -80 -137q-82 -82 -229 -82h-105v239h62q58 0 85.5 19.5t47.5 77.5l57 176zM307 1237l131 348h281l-234 -348h-178z" />
<glyph unicode="&#xfe;" horiz-adv-x="1138" d="M143 -391v1849h267v-514q90 135 258 135q77 0 146 -25.5t114 -70.5q38 -38 61.5 -89t32.5 -118.5t11.5 -114.5t2.5 -126t-2.5 -126.5t-11.5 -115.5t-32.5 -119.5t-61.5 -89.5q-45 -45 -114 -70.5t-146 -25.5q-158 0 -258 133v-512h-267zM410 535q0 -58 3.5 -99.5 t14 -83.5t30 -67.5t52.5 -41.5t80 -16t80 16t52.5 41.5t30 67.5t14 83.5t3.5 99.5t-3.5 99t-14 82.5t-30 67t-52.5 41t-80 15.5t-80 -15.5t-52.5 -41t-30 -67t-14 -82.5t-3.5 -99z" />
<glyph unicode="&#xff;" horiz-adv-x="995" d="M0 1067h281l221 -659l213 659h280l-469 -1284q-36 -93 -80 -137q-82 -82 -229 -82h-104v239h61q58 0 85.5 19.5t47.5 77.5l58 176zM141 1241v256h228v-256h-228zM594 1241v256h227v-256h-227z" />
<glyph unicode="&#x152;" horiz-adv-x="2187" d="M102 729q0 165 40.5 299.5t120.5 233.5t207 153.5t292 54.5q232 0 379 -147v135h952v-252h-670q0 -30 1 -173t1 -173h570v-250h-570q0 -30 -1 -179t-1 -179h672v-252h-954v133q-63 -67 -163.5 -105t-215.5 -38q-318 0 -489 193t-171 546zM385 729q0 -483 377 -483 q103 0 177 34t117 99t63 151t20 199t-18.5 198t-60.5 151.5t-117 101t-181 34.5q-100 0 -174 -35t-117.5 -101t-64.5 -152.5t-21 -196.5z" />
<glyph unicode="&#x153;" horiz-adv-x="1755" d="M82 535q0 152 26 246.5t95 166.5q124 131 329 131q109 0 193.5 -38t136.5 -103q56 68 143.5 104.5t188.5 36.5q218 0 343.5 -142.5t125.5 -367.5v-118h-682q0 -106 61.5 -172t171.5 -66q83 0 129 25.5t64 89.5h252q-18 -80 -48.5 -139.5t-81.5 -106t-130.5 -70.5 t-186.5 -24q-235 0 -356 135q-52 -63 -134.5 -99t-189.5 -36q-205 0 -329 131q-69 72 -95 167t-26 249zM348 535q0 -98 12 -160.5t50 -100.5q47 -47 122 -47q78 0 125 47q38 38 50 100.5t12 160.5q0 97 -12 158.5t-50 99.5q-47 47 -125 47q-75 0 -122 -47q-38 -38 -50 -99.5 t-12 -158.5zM981 633h418q-3 94 -56 159.5t-149 65.5t-151.5 -61.5t-61.5 -163.5z" />
<glyph unicode="&#x178;" d="M0 1458h309l273 -588l268 588h309l-438 -860v-598h-283v598zM242 1604v256h227v-256h-227zM694 1604v256h228v-256h-228z" />
<glyph unicode="&#x2c6;" horiz-adv-x="983" d="M115 1237l270 346h213l270 -346h-206l-170 186l-170 -186h-207z" />
<glyph unicode="&#x2dc;" horiz-adv-x="983" d="M121 1401q67 67 118 94t111 27q46 0 80.5 -10.5t77.5 -36.5q61 -37 113 -37q31 0 57.5 11.5t62.5 47.5l119 -117q-66 -66 -118.5 -93t-112.5 -27q-77 0 -158 47q-61 36 -115 36q-31 0 -57.5 -11.5t-62.5 -47.5z" />
<glyph unicode="&#x2000;" horiz-adv-x="1039" />
<glyph unicode="&#x2001;" horiz-adv-x="2079" />
<glyph unicode="&#x2002;" horiz-adv-x="1039" />
<glyph unicode="&#x2003;" horiz-adv-x="2079" />
<glyph unicode="&#x2004;" horiz-adv-x="693" />
<glyph unicode="&#x2005;" horiz-adv-x="519" />
<glyph unicode="&#x2006;" horiz-adv-x="346" />
<glyph unicode="&#x2007;" horiz-adv-x="346" />
<glyph unicode="&#x2008;" horiz-adv-x="259" />
<glyph unicode="&#x2009;" horiz-adv-x="415" />
<glyph unicode="&#x200a;" horiz-adv-x="115" />
<glyph unicode="&#x2010;" horiz-adv-x="1073" d="M102 461v248h869v-248h-869z" />
<glyph unicode="&#x2011;" horiz-adv-x="1073" d="M102 461v248h869v-248h-869z" />
<glyph unicode="&#x2012;" horiz-adv-x="1073" d="M102 461v248h869v-248h-869z" />
<glyph unicode="&#x2013;" horiz-adv-x="1071" d="M82 461v248h907v-248h-907z" />
<glyph unicode="&#x2014;" horiz-adv-x="2025" d="M82 463v256h1862v-256h-1862z" />
<glyph unicode="&#x2018;" horiz-adv-x="557" d="M61 936l295 520h129l-145 -520h-279z" />
<glyph unicode="&#x2019;" horiz-adv-x="544" d="M68 938l145 520h279l-295 -520h-129z" />
<glyph unicode="&#x201a;" horiz-adv-x="659" d="M119 -266l145 520h279l-295 -520h-129z" />
<glyph unicode="&#x201c;" horiz-adv-x="894" d="M59 938l295 520h129l-145 -520h-279zM412 938l295 520h129l-146 -520h-278z" />
<glyph unicode="&#x201d;" horiz-adv-x="886" d="M59 938l146 520h278l-295 -520h-129zM412 938l145 520h279l-295 -520h-129z" />
<glyph unicode="&#x201e;" horiz-adv-x="1058" d="M119 -266l145 520h279l-295 -520h-129zM510 -266l145 520h279l-295 -520h-129z" />
<glyph unicode="&#x2022;" horiz-adv-x="954" d="M143 684q0 138 98 236t236 98t236 -98t98 -236t-98 -236t-236 -98t-236 98t-98 236z" />
<glyph unicode="&#x2026;" horiz-adv-x="1699" d="M123 0v289h291v-289h-291zM705 0v289h288v-289h-288zM1288 0v289h289v-289h-289z" />
<glyph unicode="&#x202f;" horiz-adv-x="415" />
<glyph unicode="&#x2039;" horiz-adv-x="675" d="M49 590l510 508v-318l-192 -190l192 -191v-317z" />
<glyph unicode="&#x203a;" horiz-adv-x="675" d="M117 82v317l194 191l-194 190v318l510 -508z" />
<glyph unicode="&#x205f;" horiz-adv-x="519" />
<glyph unicode="&#x20ac;" horiz-adv-x="1247" d="M102 567v111h84v55v55h-84v111h91q11 134 41 236t86 180.5t146 119t212 40.5q226 0 335 -106.5t132 -303.5h-283q-10 82 -59.5 120.5t-124.5 33.5q-55 0 -94.5 -24t-63 -69.5t-35.5 -99.5t-18 -127h299v-111h-303v-57v-53h303v-111h-299q13 -161 62.5 -242t152.5 -81 q91 0 130 33.5t50 119.5h283q-23 -197 -132 -303t-335 -106q-236 0 -350 143.5t-135 435.5h-91z" />
<glyph unicode="&#x2122;" horiz-adv-x="1884" d="M92 1284v174h645v-174h-225v-700h-195v700h-225zM872 584v874h195l250 -467l250 467h194v-874h-194v516l-164 -322h-172l-164 322v-516h-195z" />
<glyph unicode="&#x25fc;" horiz-adv-x="1064" d="M0 0v1065h1065v-1065h-1065z" />
<glyph unicode="&#xfb01;" horiz-adv-x="1103" d="M41 834v202h111v133q0 59 18.5 112.5t55 97.5t98 70t139.5 26h151v-226h-102q-94 0 -94 -96v-117h559v-1036h-266v834h-293v-834h-266v834h-111zM707 1249v217h274v-217h-274z" />
<glyph unicode="&#xfb02;" horiz-adv-x="1097" d="M41 834v202h111v133q0 59 18.5 112.5t55 97.5t98 70t139.5 26q84 0 212 -4.5t214 -8.5l86 -4v-1458h-266v1249h-197q-94 0 -94 -96v-117h196v-202h-196v-834h-266v834h-111z" />
</font>
</defs>
</svg>
