<?xml version="1.0" standalone="no"?>
<!DOCTYPE svg PUBLIC "-//W3C//DTD SVG 1.1//EN" "http://www.w3.org/Graphics/SVG/1.1/DTD/svg11.dtd" >
<svg xmlns="http://www.w3.org/2000/svg">
<metadata></metadata>
<defs>
<font id="tinlight" horiz-adv-x="1040" >
<font-face units-per-em="2048" ascent="1638" descent="-410" />
<missing-glyph horiz-adv-x="522" />
<glyph horiz-adv-x="2048" />
<glyph horiz-adv-x="2048" />
<glyph unicode="&#xd;" horiz-adv-x="2048" />
<glyph unicode=" "  horiz-adv-x="522" />
<glyph unicode="&#x09;" horiz-adv-x="522" />
<glyph unicode="&#xa0;" horiz-adv-x="522" />
<glyph unicode="!" horiz-adv-x="505" d="M184 0v137h138v-137h-138zM197 1458h112l-6 -1065h-100z" />
<glyph unicode="&#x22;" horiz-adv-x="753" d="M143 1458h142l-43 -436h-58zM467 1458h143l-43 -436h-59z" />
<glyph unicode="#" horiz-adv-x="1277" d="M123 492v90h211l51 313h-203v92h215l74 471h107l-76 -471h358l74 471h102l-73 -471h192v-92h-205l-51 -313h197v-90h-211l-78 -492h-105l80 492h-360l-76 -492h-104l77 492h-196zM436 582h359l51 313h-359z" />
<glyph unicode="$" horiz-adv-x="1101" d="M123 444h115q7 -49 22 -88.5t45.5 -77t83.5 -61t127 -29.5v512q-60 15 -106.5 31.5t-95 44t-80.5 61.5t-52 84.5t-20 112.5q0 149 93 237t261 97v283h92v-283q91 -7 159.5 -40.5t108.5 -84t61.5 -102t29.5 -109.5h-113q-9 55 -33.5 102t-80 86.5t-132.5 47.5v-480 q55 -16 94 -30t85.5 -35.5t78 -48t59 -61.5t41 -82.5t13.5 -104.5q0 -149 -100 -237.5t-271 -100.5v-321h-92v321q-82 3 -148 26.5t-109 58t-73 81t-44.5 93t-18.5 97.5zM272 1034q0 -87 66 -139t178 -84v459q-113 -10 -178.5 -76.5t-65.5 -159.5zM608 188q128 14 194 78 t66 154q0 58 -19.5 102t-58 73t-81 48t-101.5 35v-490z" />
<glyph unicode="%" horiz-adv-x="1499" d="M123 979v219q0 122 75 198.5t195 76.5q119 0 194 -77t75 -198v-219q0 -120 -75 -196t-194 -76q-120 0 -195 76t-75 196zM213 983q0 -199 180 -199q91 0 134.5 52.5t43.5 146.5v211q0 201 -178 201q-180 0 -180 -201v-211zM356 0l680 1458h92l-679 -1458h-93zM838 260v219 q0 122 75 198.5t195 76.5q118 0 193 -76.5t75 -198.5v-219q0 -121 -74.5 -197.5t-193.5 -76.5q-120 0 -195 76t-75 198zM928 264q0 -201 180 -201q178 0 178 201v211q0 201 -178 201q-180 0 -180 -201v-211z" />
<glyph unicode="&#x26;" horiz-adv-x="1357" d="M123 403q0 38 6.5 73t15 63.5t27.5 58.5t33 51t42.5 47.5t46 42t52.5 41t53.5 38t57.5 38.5q-37 43 -59.5 73.5t-49.5 73.5t-40 87.5t-13 89.5q0 123 86 206.5t211 83.5t211 -84.5t86 -207.5q0 -152 -168 -263q-74 -50 -109 -73l418 -506q49 76 67.5 151t18.5 211h109 q0 -288 -127 -444l209 -254h-142l-141 172q-191 -184 -449 -184q-201 0 -326.5 114.5t-125.5 300.5zM233 410q0 -144 94.5 -234t245.5 -90q99 0 193.5 35.5t196.5 126.5l-443 534q-120 -82 -157 -115q-123 -107 -130 -241v-16zM406 1184q0 -56 29.5 -111.5t113.5 -157.5 l84 58q70 47 108.5 93.5t38.5 111.5q0 83 -54 138.5t-134 55.5t-133 -53.5t-53 -134.5z" />
<glyph unicode="'" horiz-adv-x="331" d="M96 1458h142l-43 -436h-58z" />
<glyph unicode="(" horiz-adv-x="616" d="M164 711q0 131 9 242.5t21 191t35 151t41.5 114.5t49.5 89.5t49.5 68.5t50.5 59q11 12 16 18l78 -66q-70 -82 -92 -113q-110 -162 -139 -464q-13 -130 -13 -291q0 -209 18.5 -360t59.5 -247.5t68.5 -138.5t81.5 -104q11 -13 16 -19l-78 -65q-5 6 -16 18 q-33 37 -50.5 58.5t-49 69t-49.5 90t-41.5 114.5t-35.5 151t-21 190.5t-9 242.5z" />
<glyph unicode=")" horiz-adv-x="616" d="M102 -158q70 82 92 114q111 164 140 473q12 126 12 282q0 169 -15 303.5t-35 215.5t-54.5 150.5t-59 102.5t-63.5 77q-12 13 -17 19l78 66q5 -6 16 -18q34 -38 51.5 -59.5t49 -68.5t49.5 -90t41.5 -114.5t35.5 -150.5t21 -191t9 -242t-9 -241.5t-21.5 -191t-35.5 -151 t-41 -114.5t-49.5 -90t-49.5 -69t-51 -59q-11 -12 -16 -18z" />
<glyph unicode="*" horiz-adv-x="907" d="M123 975l252 139l-252 139l45 78l246 -149l-6 288h92l-6 -288l245 149l45 -78l-252 -139l252 -139l-45 -78l-245 150l6 -289h-92l6 289l-246 -150z" />
<glyph unicode="+" horiz-adv-x="1081" d="M123 492v96h371v368h96v-368h368v-96h-368v-371h-96v371h-371z" />
<glyph unicode="," horiz-adv-x="532" d="M143 -276l97 415h149l-192 -415h-54z" />
<glyph unicode="-" horiz-adv-x="1114" d="M123 492v96h868v-96h-868z" />
<glyph unicode="." horiz-adv-x="438" d="M143 0v152h152v-152h-152z" />
<glyph unicode="/" horiz-adv-x="692" d="M0 -152l584 1762h108l-583 -1762h-109z" />
<glyph unicode="0" horiz-adv-x="1251" d="M123 733q0 740 512 740q114 0 200.5 -34t144 -95t93.5 -154.5t51 -204.5t15 -252q0 -142 -15.5 -253.5t-52 -205.5t-93.5 -156t-143.5 -96t-199.5 -34q-268 0 -390 186.5t-122 558.5zM227 733q0 -649 408 -649q92 0 161.5 31t115 85.5t74 137t40.5 178.5t12 217 q0 120 -11.5 214.5t-39.5 177t-73 136.5t-115.5 84.5t-163.5 30.5q-91 0 -161.5 -33.5t-116.5 -91.5t-75.5 -141t-42 -175.5t-12.5 -201.5z" />
<glyph unicode="1" horiz-adv-x="880" d="M205 1337v76l244 45h104v-1458h-104v1337h-244z" />
<glyph unicode="2" horiz-adv-x="1103" d="M123 1126q9 66 38.5 124.5t81 109t134.5 80.5t188 30q99 0 179 -31.5t130.5 -85t77.5 -122.5t27 -146q0 -171 -139 -335l-578 -658h713v-92h-846v92l629 717q112 131 112 274q0 122 -78 206.5t-227 84.5q-279 0 -327 -248h-115z" />
<glyph unicode="3" horiz-adv-x="1183" d="M123 328h113q16 -104 105.5 -175t229.5 -71q148 0 252.5 97.5t104.5 242.5q0 174 -96 260t-269 86h-84v96h84q68 0 131.5 -12.5t127 -44t110 -80t75.5 -127t29 -178.5q0 -192 -133.5 -314t-331.5 -122q-97 0 -180 30t-137.5 79t-88 109t-42.5 124zM186 1364v94h783v-92 l-398 -539l-92 37l365 500h-658z" />
<glyph unicode="4" horiz-adv-x="1161" d="M102 330v92l603 1036h114l-602 -1036h524v430h105v-430h194v-92h-194v-330h-105v330h-639z" />
<glyph unicode="5" horiz-adv-x="1179" d="M150 311h112q16 -104 97.5 -167.5t226.5 -63.5q109 0 190.5 56.5t120.5 145t39 195.5q0 71 -21 138t-61.5 124t-109 92t-154.5 35q-71 0 -130.5 -16t-95 -38t-60.5 -44.5t-34 -38.5l-10 -16h-92l96 745h688v-96h-596l-73 -494q4 4 11 10t34.5 21.5t60 27.5t88.5 21.5 t119 9.5q133 0 235.5 -67.5t155.5 -176.5t53 -237q0 -135 -50.5 -243.5t-155 -176.5t-248.5 -71q-103 0 -184.5 27t-132.5 73.5t-80.5 103t-38.5 121.5z" />
<glyph unicode="6" horiz-adv-x="1132" d="M102 711q0 187 36.5 333t101.5 238.5t152 140t190 47.5q97 0 174.5 -30t125.5 -80.5t76 -109t37 -124.5h-114q-17 109 -89.5 178.5t-209.5 69.5q-162 0 -268.5 -173t-106.5 -492q0 -169 30.5 -294.5t84 -196.5t118.5 -104.5t142 -33.5q98 0 175 58t115.5 147t38.5 188 q0 89 -38.5 166.5t-118 128.5t-185.5 51q-88 0 -156.5 -28t-105.5 -67.5t-60.5 -79.5t-35 -68.5t-14.5 -28.5l-80 8q2 2 12.5 32t25.5 69.5t49.5 87t79.5 86.5t121 65.5t168 26.5q103 0 188 -38t140 -101.5t85 -143.5t30 -166q0 -89 -28.5 -174.5t-81.5 -155.5t-137 -112.5 t-185 -42.5q-224 0 -353 177.5t-129 545.5z" />
<glyph unicode="7" horiz-adv-x="1050" d="M102 1364v94h842v-92l-594 -1366h-108l594 1364h-734z" />
<glyph unicode="8" horiz-adv-x="1142" d="M123 424q0 119 73 221.5t179 157.5q-92 50 -143.5 131t-51.5 184q0 149 115.5 250.5t277.5 101.5q161 0 273 -101t112 -251q0 -102 -51.5 -183t-144.5 -132q106 -55 180 -157.5t74 -221.5q0 -96 -36 -179t-97 -138.5t-141.5 -87t-168.5 -31.5q-118 0 -220.5 54.5 t-166 155.5t-63.5 226zM227 424q0 -151 104 -247.5t242 -96.5q137 0 237.5 97.5t100.5 246.5q0 132 -102.5 230t-235.5 98q-87 0 -167 -44.5t-129.5 -120.5t-49.5 -163zM279 1118q0 -118 87 -196t207 -78q119 0 203 78t84 196q0 116 -83.5 191t-203.5 75t-207 -75t-87 -191z " />
<glyph unicode="9" horiz-adv-x="1085" d="M119 1026q0 191 123 317.5t307 126.5q183 0 300.5 -127.5t117.5 -320.5q0 -49 -13 -102.5t-44.5 -110.5t-78 -101.5t-120.5 -73.5t-164 -30q-178 -1 -303 124.5t-125 297.5zM223 1030q0 -133 94.5 -233.5t231.5 -100.5q132 0 222.5 90.5t90.5 235.5q0 158 -90.5 257 t-222.5 99q-134 0 -230 -96.5t-96 -251.5zM416 0l411 866l109 2l-408 -868h-112z" />
<glyph unicode=":" horiz-adv-x="479" d="M164 0v152h151v-152h-151zM164 815v152h151v-152h-151z" />
<glyph unicode=";" horiz-adv-x="559" d="M145 -276l97 415h149l-192 -415h-54zM244 815v152h151v-152h-151z" />
<glyph unicode="&#x3c;" horiz-adv-x="847" d="M123 545l459 456h141l-459 -458l461 -461h-139z" />
<glyph unicode="=" horiz-adv-x="1081" d="M123 334v96h835v-96h-835zM123 647v96h835v-96h-835z" />
<glyph unicode="&#x3e;" horiz-adv-x="847" d="M123 82l461 461l-459 458h141l459 -456l-463 -463h-139z" />
<glyph unicode="?" horiz-adv-x="1001" d="M123 1126q9 67 33 124.5t68 109t117.5 81t170.5 29.5q157 0 262 -103t105 -257q0 -65 -23 -121.5t-68 -122.5l-198 -256q-37 -53 -37 -123v-96h-104v92q0 57 13.5 98t45.5 87l197 254q36 53 52.5 93.5t16.5 94.5q0 114 -75.5 190t-188.5 76q-70 0 -121 -20t-81 -57 t-46 -78t-24 -95h-115zM432 0v137h137v-137h-137z" />
<glyph unicode="@" horiz-adv-x="1689" d="M150 715q12 174 78.5 316.5t171 236t239.5 144t287 50.5q139 0 261 -48t207.5 -130t132.5 -196t42 -240q-2 -66 -20 -136t-53 -139.5t-82.5 -124t-116.5 -88.5t-148 -34q-65 0 -111 36.5t-47 116.5q-114 -145 -252 -145q-118 0 -177.5 76.5t-59.5 210.5q0 113 51 220.5 t141.5 176.5t194.5 69q173 0 221 -157l39 121h88q-33 -116 -129 -430q-69 -226 63 -226q67 0 127 44.5t99.5 113t63.5 148.5t26 155q5 143 -66.5 264.5t-202 193.5t-290.5 72q-137 0 -257 -44t-213.5 -128.5t-152 -217t-69.5 -298.5q-12 -184 67 -328.5t225 -223t332 -78.5 q70 0 145 12t122.5 25t119.5 36l23 9q8 -25 26 -70q-103 -38 -229 -65t-215 -27q-160 0 -295 53t-229 146.5t-141.5 230t-36.5 297.5zM604 618q0 -104 41.5 -159.5t118.5 -55.5q62 0 122 51t98.5 124t61 152t17.5 136q-7 80 -64 120t-133 26q-83 -20 -143.5 -80.5 t-89.5 -141.5t-29 -172z" />
<glyph unicode="A" horiz-adv-x="1212" d="M20 0l537 1458h98l537 -1458h-119l-127 354h-680l-127 -354h-119zM301 453h610l-305 858z" />
<glyph unicode="B" horiz-adv-x="1247" d="M164 0v1458h536q186 0 304 -102t118 -279q0 -115 -61 -203.5t-166 -123.5q118 -40 184 -133.5t66 -219.5q0 -191 -115 -294t-313 -103h-553zM274 98h431q150 0 239.5 80t89.5 219t-89.5 219t-239.5 80h-431v-598zM274 795h414q92 0 162.5 27.5t116 92.5t45.5 162 q0 143 -91 213t-233 70h-414v-565z" />
<glyph unicode="C" horiz-adv-x="1388" d="M123 729q0 133 21.5 244.5t68.5 205t119 157.5q72 65 176 100q102 34 228 34h7q128 0 232.5 -34t169 -90.5t100.5 -121.5t41 -134h-117q-16 113 -132.5 197.5t-293.5 84.5q-514 0 -514 -643q0 -142 32 -258.5t94 -203t160.5 -134t225.5 -47.5q177 0 294.5 85t133.5 198 h117q-5 -69 -41.5 -134.5t-101 -121.5t-169.5 -90.5t-233 -34.5q-159 0 -278.5 54t-193 153.5t-110 233t-36.5 300.5z" />
<glyph unicode="D" horiz-adv-x="1390" d="M164 0v1458h481q130 0 234.5 -36t176 -100t120 -154t70.5 -195.5t22 -227.5q0 -166 -39.5 -301.5t-116 -235t-196 -154t-271.5 -54.5h-481zM274 94h344q124 0 220 38t155 99.5t97 148t52.5 175.5t14.5 190q0 307 -135.5 463t-403.5 156h-344v-1270z" />
<glyph unicode="E" horiz-adv-x="1161" d="M164 0v1458h885v-98h-775v-576h660v-98h-660v-588h775v-98h-885z" />
<glyph unicode="F" horiz-adv-x="1110" d="M164 0v1458h885v-98h-775v-600h660v-98h-660v-662h-110z" />
<glyph unicode="G" horiz-adv-x="1511" d="M123 729q0 165 39 299t116.5 233.5t202.5 154t289 54.5q129 0 236 -34.5t175 -90t107.5 -121.5t44.5 -134h-116q-16 112 -142.5 198t-304.5 86q-140 0 -245 -47.5t-169 -134.5t-95.5 -203t-31.5 -260q0 -314 130 -478.5t397 -164.5q201 0 336.5 154.5t154.5 406.5h-438 v98h539v-745h-105v315q-32 -90 -85 -155.5t-119.5 -101.5t-135.5 -52t-147 -16q-314 0 -473.5 191t-159.5 548z" />
<glyph unicode="H" horiz-adv-x="1308" d="M164 0v1458h110v-674h760v674h111v-1458h-111v686h-760v-686h-110z" />
<glyph unicode="I" horiz-adv-x="458" d="M174 0v1458h111v-1458h-111z" />
<glyph unicode="J" horiz-adv-x="618" d="M20 -12q156 0 240 95.5t84 270.5v1104h111v-1126q0 -200 -119 -321.5t-316 -121.5v99z" />
<glyph unicode="K" horiz-adv-x="1263" d="M164 0v1458h110v-911l740 911h133l-451 -557l527 -901h-131l-469 817l-349 -422v-395h-110z" />
<glyph unicode="L" horiz-adv-x="1110" d="M164 0v1458h110v-1360h775v-98h-885z" />
<glyph unicode="M" horiz-adv-x="1552" d="M164 0v1458h110l508 -1124l496 1124h111v-1458h-111v1202l-442 -997h-111l-451 997v-1202h-110z" />
<glyph unicode="N" horiz-adv-x="1390" d="M164 0v1458h110l842 -1263v1263h111v-1458h-111l-842 1268v-1268h-110z" />
<glyph unicode="O" horiz-adv-x="1560" d="M123 729q0 165 40 299t119.5 233.5t206 154t291.5 54.5q173 0 301 -53.5t205.5 -153.5t114.5 -233t37 -301q0 -169 -39 -303t-118 -232.5t-206 -151t-295 -52.5q-317 0 -487 193t-170 546zM229 729q0 -310 140.5 -476.5t410.5 -166.5q144 0 250.5 46t172 132t97 202 t31.5 263t-30 262t-94 202.5t-171.5 134t-255.5 46.5q-140 0 -246.5 -47.5t-172.5 -134t-99 -203t-33 -260.5z" />
<glyph unicode="P" horiz-adv-x="1241" d="M164 0v1458h534q194 0 317.5 -112.5t123.5 -307.5t-123.5 -307.5t-317.5 -112.5h-424v-618h-110zM274 717h412q157 0 249.5 81t92.5 240t-92.5 240.5t-249.5 81.5h-412v-643z" />
<glyph unicode="Q" horiz-adv-x="1560" d="M123 729q0 165 40 299t119.5 233.5t206 154t291.5 54.5q173 0 301 -53.5t205.5 -153.5t114.5 -233t37 -301q0 -366 -176 -557l157 -156l-73 -73l-162 159q-151 -112 -404 -112q-317 0 -487 193t-170 546zM229 729q0 -310 140.5 -476.5t410.5 -166.5q197 0 330 90 l-231 234l73 73l236 -237q143 168 143 483q0 147 -30 262t-94 202.5t-171.5 134t-255.5 46.5q-140 0 -246.5 -47.5t-172.5 -134t-99 -203t-33 -260.5z" />
<glyph unicode="R" horiz-adv-x="1234" d="M164 0v1458h555q185 0 301.5 -103t116.5 -288q0 -161 -90 -263.5t-246 -129.5l352 -674h-129l-348 672h-402v-672h-110zM274 770h431q146 0 233.5 75t87.5 220t-87.5 220t-233.5 75h-431v-590z" />
<glyph unicode="S" horiz-adv-x="1226" d="M123 383h115q7 -47 22.5 -87.5t44.5 -79.5t69 -66.5t100 -44.5t134 -17q174 0 279.5 79t105.5 200q0 48 -12 88t-29.5 69t-50 54t-62 41.5t-77 32.5t-83 25.5t-91.5 22.5q-70 16 -125.5 35t-113.5 51t-96 71.5t-62.5 98.5t-24.5 131q0 181 119 282t333 101q98 0 177 -23 t129 -59.5t85.5 -87t53 -99.5t24.5 -103h-114q-8 53 -30 99t-61.5 87.5t-107 65.5t-156.5 24q-159 0 -250.5 -81.5t-91.5 -205.5q0 -44 13.5 -80.5t40.5 -64t58 -49t76.5 -40t84 -30.5t92.5 -26q58 -15 99 -28t93 -33.5t88 -42t73 -54t59.5 -69.5t36.5 -87.5t14 -109.5 q0 -184 -134 -286q-131 -99 -349 -99h-13q-101 0 -182.5 24t-134 62t-89.5 91t-55 106t-24 112z" />
<glyph unicode="T" horiz-adv-x="1103" d="M61 1360v98h981v-98h-436v-1360h-110v1360h-435z" />
<glyph unicode="U" horiz-adv-x="1327" d="M164 473v985h110v-971q0 -181 107.5 -291t282.5 -110t282 110t107 291v971h110v-985q0 -214 -139.5 -349.5t-359.5 -135.5t-360 135.5t-140 349.5z" />
<glyph unicode="V" horiz-adv-x="1142" d="M20 1458h117l441 -1263l428 1263h116l-497 -1458h-95z" />
<glyph unicode="W" horiz-adv-x="1683" d="M20 1458h117l307 -1268l340 1268h115l340 -1268l307 1268h117l-365 -1458h-112l-344 1270l-344 -1270h-113z" />
<glyph unicode="X" horiz-adv-x="1056" d="M20 0l447 748l-418 710h129l348 -612l351 612h127l-418 -710l450 -748h-129l-381 649l-381 -649h-125z" />
<glyph unicode="Y" horiz-adv-x="1011" d="M20 1458h119l371 -737l362 737h119l-430 -854v-604h-110v604z" />
<glyph unicode="Z" horiz-adv-x="1091" d="M102 0v117l768 1243h-737v98h856v-98l-774 -1262h774v-98h-887z" />
<glyph unicode="[" horiz-adv-x="548" d="M164 -152v1762h303v-92h-199v-1577h199v-93h-303z" />
<glyph unicode="\" horiz-adv-x="692" d="M0 1610h109l583 -1762h-108z" />
<glyph unicode="]" horiz-adv-x="550" d="M86 -66h205v1590h-205v86h303v-1762h-303v86z" />
<glyph unicode="^" horiz-adv-x="1069" d="M164 864l323 606h95l323 -606h-104l-266 496l-267 -496h-104z" />
<glyph unicode="_" horiz-adv-x="1052" d="M0 -250h1053v-78h-1053v78z" />
<glyph unicode="`" horiz-adv-x="948" d="M213 1509h137l199 -301h-119z" />
<glyph unicode="a" horiz-adv-x="1034" d="M102 494q0 81 12 152.5t40.5 137t71.5 112.5t109.5 75t149.5 28q67 0 123 -16t87.5 -39.5t53.5 -46.5t29 -39l8 -16v145h105v-987h-105v152q-2 -7 -6.5 -18t-26 -39t-51 -50t-87 -39.5t-128.5 -17.5q-85 0 -153 29.5t-110.5 78.5t-70.5 116t-39.5 136.5t-11.5 145.5z M207 494q0 -67 6.5 -122.5t25.5 -111.5t50.5 -94t84 -62t122.5 -24t123 24t84 62t50.5 94t26 111.5t6.5 122.5t-6.5 122.5t-26 111t-50.5 93.5t-84 62t-123 24t-122.5 -24t-84 -62t-50.5 -94t-25.5 -111t-6.5 -122z" />
<glyph unicode="b" horiz-adv-x="1044" d="M143 0v1458h105v-598q60 80 135 109.5t170 29.5q83 0 149 -28t108.5 -74.5t70.5 -112.5t39.5 -137.5t11.5 -152.5q0 -77 -11 -146t-38 -136.5t-69 -115.5t-109 -78t-152 -30q-95 0 -170 29.5t-135 109.5v-127h-105zM248 494q0 -67 7 -122.5t26 -111.5t50.5 -94t84.5 -62 t123 -24t122.5 24t83.5 62t50 94t25.5 111.5t6.5 122.5t-6.5 122t-25.5 111t-50 94t-83.5 62t-122.5 24t-123 -24t-84.5 -62t-50.5 -93.5t-26 -111t-7 -122.5z" />
<glyph unicode="c" d="M113 494q0 235 116.5 370t317.5 135q179 0 273 -73.5t116 -196.5h-102q-22 85 -100 133q-74 47 -178 47h-9q-171 0 -262 -133q-37 -54 -52.5 -118.5t-15.5 -163.5q0 -100 15.5 -164.5t52.5 -118.5q90 -131 266 -131q108 0 186.5 50t100.5 134h100q-11 -59 -37.5 -107 t-72 -87t-117.5 -60.5t-164 -21.5q-201 0 -317.5 135.5t-116.5 370.5z" />
<glyph unicode="d" horiz-adv-x="1050" d="M113 494q0 76 11.5 145.5t39.5 136.5t70.5 115.5t110.5 78t153 29.5q95 0 170 -29.5t135 -109.5v598h104v-1458h-104v127q-60 -80 -135 -109.5t-170 -29.5q-83 0 -149.5 28t-110 75t-72.5 113t-41 137.5t-12 152.5zM217 494q0 -414 295 -414q70 0 123 24t84.5 62t50.5 94 t26 111.5t7 122.5t-7 122.5t-26 111t-50.5 93.5t-84.5 62t-123 24q-295 0 -295 -413z" />
<glyph unicode="e" d="M113 494q0 236 111.5 370.5t299.5 134.5q186 0 295 -128.5t109 -352.5v-47h-711q0 -187 83.5 -289t236.5 -102q107 0 181.5 50.5t96.5 135.5h100q-11 -59 -36.5 -107t-69.5 -87.5t-114.5 -61.5t-162.5 -22q-204 0 -311.5 129.5t-107.5 376.5zM217 555h606q-3 65 -21 124 t-52 112t-92 84.5t-134 31.5q-139 0 -220 -101.5t-87 -250.5z" />
<glyph unicode="f" horiz-adv-x="585" d="M61 909v78h136v213q0 116 61.5 187t175.5 71h90v-92h-71q-76 0 -114 -43t-38 -121v-215h223v-78h-223v-909h-104v909h-136z" />
<glyph unicode="g" horiz-adv-x="1054" d="M113 494q0 76 12 145.5t40.5 136.5t72 115.5t111.5 78t153 29.5q95 0 170 -29.5t135 -109.5v127h104v-1042q0 -190 -107.5 -309t-295.5 -119q-325 0 -375 276h100q15 -91 85 -137.5t190 -46.5q151 0 225 93.5t74 248.5v176q-60 -80 -135 -109.5t-170 -29.5 q-84 0 -150.5 28t-110.5 75t-73.5 112.5t-42 137.5t-12.5 153zM217 494q0 -414 299 -414q70 0 123 24t84.5 62t50.5 94t26 111.5t7 122.5t-7 122.5t-26 111t-50.5 93.5t-84.5 62t-123 24q-299 0 -299 -413z" />
<glyph unicode="h" horiz-adv-x="1046" d="M143 0v1458h105v-610q41 74 119.5 112.5t171.5 38.5q169 0 266.5 -99t97.5 -269v-631h-104v612q0 143 -70.5 219t-202.5 76t-205 -77.5t-73 -217.5v-612h-105z" />
<glyph unicode="i" horiz-adv-x="415" d="M143 1329v129h129v-129h-129zM156 0v987h104v-987h-104z" />
<glyph unicode="j" horiz-adv-x="432" d="M-51 -379h71q85 0 118.5 39.5t33.5 126.5v1200h104v-1202q0 -119 -60 -187.5t-177 -68.5h-90v92zM160 1329v129h129v-129h-129z" />
<glyph unicode="k" horiz-adv-x="962" d="M143 0v1458h105v-1028l489 557h133l-325 -369l397 -618h-129l-340 543l-225 -260v-283h-105z" />
<glyph unicode="l" horiz-adv-x="391" d="M143 0v1458h105v-1458h-105z" />
<glyph unicode="m" horiz-adv-x="1699" d="M143 0v987h105v-117q111 129 293 129q109 0 191 -46.5t126 -133.5q114 180 336 180q163 0 260 -94q102 -97 102 -274v-631h-102v612q0 143 -70 219t-202 76q-127 0 -203 -75t-76 -201v-631h-104v612q0 143 -70.5 219t-202.5 76t-205 -77.5t-73 -217.5v-612h-105z" />
<glyph unicode="n" horiz-adv-x="1046" d="M143 0v987h105v-117q111 129 291 129q165 0 262 -94q102 -97 102 -274v-631h-104v612q0 143 -70.5 219t-202.5 76t-205 -77.5t-73 -217.5v-612h-105z" />
<glyph unicode="o" horiz-adv-x="999" d="M102 494q0 274 123 397q108 108 275 108q166 0 274 -108q123 -123 123 -397q0 -275 -123 -398q-108 -108 -274 -108q-167 0 -275 108q-123 123 -123 398zM207 494q0 -112 16.5 -193.5t71.5 -136.5q84 -84 205 -84t205 84q55 55 71.5 136.5t16.5 193.5t-16.5 193 t-71.5 136q-84 84 -205 84t-205 -84q-55 -55 -71.5 -136t-16.5 -193z" />
<glyph unicode="p" horiz-adv-x="1067" d="M143 -471v1458h105v-127q104 139 317 139q84 0 150.5 -28t110.5 -75t73.5 -112.5t42 -137t12.5 -152.5q0 -76 -12 -146t-40.5 -136.5t-72 -115.5t-111.5 -78.5t-153 -29.5q-213 0 -317 139v-598h-105zM248 494q0 -66 8 -122.5t29 -111.5t54.5 -93.5t87.5 -62.5t124 -24 q299 0 299 414q0 413 -299 413q-70 0 -124 -23.5t-87.5 -62.5t-54.5 -93.5t-29 -111t-8 -122.5z" />
<glyph unicode="q" horiz-adv-x="1056" d="M113 494q0 76 12 145.5t40.5 136.5t72 115.5t111.5 78t153 29.5q95 0 171.5 -29.5t135.5 -109.5v127h104v-1458h-104v598q-59 -80 -135.5 -109.5t-171.5 -29.5q-84 0 -150.5 28t-110.5 75t-73.5 112.5t-42 137.5t-12.5 153zM217 494q0 -414 299 -414q293 0 293 414 q0 413 -293 413q-299 0 -299 -413z" />
<glyph unicode="r" horiz-adv-x="641" d="M143 0v987h105v-149q3 7 9 17.5t31 38.5t57 49t89 38.5t125 17.5v-94h-18q-117 0 -205 -91t-88 -206v-608h-105z" />
<glyph unicode="s" horiz-adv-x="956" d="M102 270h101q14 -87 85.5 -137t190.5 -53q141 0 207 55t66 146q0 49 -33 83t-86 53t-117 34.5t-128 34.5t-117 45.5t-86 75.5t-33 118q0 123 88 198.5t241 75.5q314 0 357 -260h-101q-14 81 -76 123t-180 45h-7q-58 -1 -102 -17q-47 -18 -71 -47t-35.5 -58.5t-11.5 -57.5 q0 -47 33 -79.5t86 -51t117 -34.5t128 -35.5t117 -46.5t86 -75.5t33 -115.5q0 -150 -95.5 -225.5t-279.5 -75.5q-89 0 -160 24t-115 65t-69 89.5t-33 103.5z" />
<glyph unicode="t" horiz-adv-x="606" d="M61 909v78h136v316h104v-316h223v-78h-223v-653q0 -78 38 -121t114 -43h71v-92h-90q-114 0 -175.5 71t-61.5 187v651h-136z" />
<glyph unicode="u" horiz-adv-x="1046" d="M143 356v631h105v-612q0 -143 70 -219t202 -76t205.5 77.5t73.5 217.5v612h104v-987h-104v117q-111 -129 -291 -129q-165 0 -262 94q-103 98 -103 274z" />
<glyph unicode="v" horiz-adv-x="864" d="M20 987h115l297 -858l297 858h115l-361 -987h-102z" />
<glyph unicode="w" horiz-adv-x="1441" d="M20 987h115l252 -864l283 864h102l283 -864l252 864h114l-315 -987h-107l-278 846l-279 -846h-106z" />
<glyph unicode="x" horiz-adv-x="819" d="M20 0l334 504l-319 483h127l250 -397l245 397h127l-319 -483l334 -504h-127l-260 416l-265 -416h-127z" />
<glyph unicode="y" horiz-adv-x="864" d="M20 987h115l297 -864l297 864h115l-459 -1255q-27 -80 -68 -115q-66 -63 -186 -63h-49v92h39q81 0 116 28.5t64 106.5l80 219z" />
<glyph unicode="z" horiz-adv-x="868" d="M82 0v98l594 797h-561v92h671v-98l-596 -797h596v-92h-704z" />
<glyph unicode="{" horiz-adv-x="606" d="M82 684v90h37q49 0 88 39q37 37 37 123v424q0 82 11.5 123t41.5 71t76.5 43t122.5 13h28v-92h-26q-55 0 -80.5 -6t-40.5 -21q-29 -33 -29 -133v-424q0 -78 -29.5 -125t-95.5 -80q66 -33 95.5 -80t29.5 -125v-424q0 -100 29 -133q15 -15 40.5 -20.5t80.5 -5.5h26v-93h-28 q-76 0 -122.5 13t-76.5 43t-41.5 71t-11.5 123v424q0 86 -37 123q-39 39 -88 39h-37z" />
<glyph unicode="|" horiz-adv-x="555" d="M225 -152v1762h105v-1762h-105z" />
<glyph unicode="}" horiz-adv-x="606" d="M82 -59h27q55 0 80 5.5t40 20.5q29 33 29 133v424q0 78 29.5 125t95.5 80q-66 33 -95.5 80t-29.5 125v424q0 100 -29 133q-15 15 -40.5 21t-79.5 6h-27v92h29q76 0 122 -13t76 -43t41.5 -71t11.5 -123v-424q0 -86 37 -123q39 -39 88 -39h37v-90h-37q-49 0 -88 -39 q-37 -37 -37 -123v-424q0 -82 -11.5 -123t-41.5 -71t-76 -43t-122 -13h-29v93z" />
<glyph unicode="~" horiz-adv-x="999" d="M82 522q80 80 126.5 103.5t110.5 23.5q14 0 28 -1.5t31 -6t27.5 -7.5t31.5 -11t28.5 -11t32 -13.5t30.5 -12.5q90 -39 127 -45q15 -2 29 -2q46 0 78.5 16.5t91.5 75.5l64 -64q-79 -79 -126.5 -103t-111.5 -24q-16 0 -35 3t-32 6t-36 11.5t-33 12.5t-38 16l-35 15 q-90 39 -127 45q-15 2 -29 2q-46 0 -78.5 -16.5t-91.5 -75.5z" />
<glyph unicode="&#xa1;" horiz-adv-x="546" d="M205 850v137h137v-137h-137zM217 -471l6 1065h101l6 -1065h-113z" />
<glyph unicode="&#xa2;" horiz-adv-x="1050" d="M113 748q0 221 102.5 353.5t284.5 149.5v207h88v-207q157 -8 240.5 -80.5t105.5 -187.5h-100q-20 76 -85.5 123t-160.5 55v-827q94 9 162 58.5t88 125.5h100q-22 -116 -107 -191t-243 -85v-242h-88v244q-181 15 -284 149t-103 355zM217 748q0 -100 15.5 -164.5 t52.5 -118.5q73 -110 215 -129v823q-137 -15 -215 -129q-37 -54 -52.5 -118.5t-15.5 -163.5z" />
<glyph unicode="&#xa3;" horiz-adv-x="1169" d="M123 0v98h127v600h-127v95h127v233q0 212 104 328t301 116q100 0 174.5 -29t119 -80.5t68 -111.5t30.5 -133h-115q-9 120 -78.5 188t-198.5 68q-152 0 -223.5 -90t-71.5 -270v-219h324v-95h-324v-600h684v-98h-921z" />
<glyph unicode="&#xa5;" horiz-adv-x="1091" d="M61 1458h117l371 -739l366 739h115l-334 -667h222v-78h-261l-55 -109v-108h316v-78h-316v-418h-110v418h-318v78h318v108l-56 109h-262v78h223z" />
<glyph unicode="&#xa6;" horiz-adv-x="350" d="M123 -152v717h104v-717h-104zM123 893v717h104v-717h-104z" />
<glyph unicode="&#xa7;" horiz-adv-x="1007" d="M123 506q0 123 63.5 213t161.5 135q-100 43 -151.5 112t-51.5 177q0 149 103 238t256 89q151 0 254 -82.5t110 -226.5h-108q-10 111 -75 162t-181 51q-117 0 -183.5 -58.5t-66.5 -172.5q0 -168 186 -219l170 -47q127 -35 201 -136.5t74 -234.5q0 -123 -64 -213t-162 -135 q97 -33 154 -112.5t57 -186.5q0 -150 -102.5 -246t-263.5 -96q-157 0 -262 84.5t-115 232.5h111q10 -109 78.5 -164t187.5 -55t187.5 63.5t68.5 180.5q0 81 -52.5 142.5t-140.5 86.5l-170 47q-129 36 -201.5 136.5t-72.5 234.5zM233 506q0 -129 72 -207q78 -84 199 -84 q120 0 198 84q72 78 72 207q0 66 -15.5 116t-56.5 91q-84 84 -198 84q-121 0 -199 -84q-40 -43 -56 -91t-16 -116z" />
<glyph unicode="&#xa8;" horiz-adv-x="890" d="M172 1229v157h119v-157h-119zM598 1229v157h119v-157h-119z" />
<glyph unicode="&#xa9;" horiz-adv-x="1728" d="M123 729q0 151 58.5 288.5t157.5 236.5t236.5 157.5t288.5 58.5q202 0 372.5 -99t270 -269.5t99.5 -372.5t-99.5 -372.5t-270 -269.5t-372.5 -99q-151 0 -288.5 58.5t-236.5 157.5t-157.5 236.5t-58.5 288.5zM221 729q0 -130 51.5 -250t137.5 -208t205.5 -140.5 t248.5 -52.5t248.5 52.5t205.5 140.5t137.5 208t51.5 250t-51.5 250t-137.5 208t-205.5 140.5t-248.5 52.5t-248.5 -52.5t-205.5 -140.5t-137.5 -208t-51.5 -250zM514 729q0 196 85 309.5t267 112.5q75 0 135.5 -21t97.5 -55t58 -73.5t25 -81.5h-88q-10 62 -71.5 107.5 t-156.5 45.5q-145 0 -205.5 -89.5t-60.5 -254.5q0 -158 66 -249t200 -91q94 0 156 44.5t72 105.5h88q-9 -91 -91 -161.5t-225 -70.5q-178 0 -265 114t-87 308z" />
<glyph unicode="&#xaa;" horiz-adv-x="882" d="M147 1081q0 77 15 142t47.5 120t89.5 86t135 31q50 0 92 -12.5t66 -30t41 -34.5t23 -29l6 -13v111h77v-741h-77v114q-1 -5 -5 -13.5t-20.5 -29.5t-39 -37t-65.5 -29.5t-96 -13.5q-79 0 -137.5 33t-90.5 89t-46.5 120t-14.5 137zM225 1081q0 -311 217 -311q220 0 220 311 q0 310 -220 310q-217 0 -217 -310z" />
<glyph unicode="&#xab;" horiz-adv-x="700" d="M205 659v140l377 389h118v-916h-118z" />
<glyph unicode="&#xac;" horiz-adv-x="1163" d="M164 492v96h835v-369h-96v273h-739z" />
<glyph unicode="&#xad;" horiz-adv-x="1114" d="M123 492v96h868v-96h-868z" />
<glyph unicode="&#xae;" horiz-adv-x="1728" d="M123 729q0 151 58.5 288.5t157.5 236.5t236.5 157.5t288.5 58.5q202 0 372.5 -99t270 -269.5t99.5 -372.5t-99.5 -372.5t-270 -269.5t-372.5 -99q-151 0 -288.5 58.5t-236.5 157.5t-157.5 236.5t-58.5 288.5zM219 729q0 -130 51.5 -251t138 -209t206 -140.5t249.5 -52.5 t249.5 52.5t206 140.5t138 209t51.5 251t-51.5 251t-138 209t-206 140.5t-249.5 52.5t-249.5 -52.5t-206 -140.5t-138 -209t-51.5 -251zM631 319v822h262q103 0 178.5 -70t75.5 -172q0 -88 -50.5 -146.5t-135.5 -82.5l206 -351h-106l-203 343h-135v-343h-92zM723 743h160 q74 0 123 44.5t49 111.5q0 68 -49.5 113t-122.5 45h-160v-314z" />
<glyph unicode="&#xaf;" horiz-adv-x="1024" d="M209 1245v94h606v-94h-606z" />
<glyph unicode="&#xb0;" horiz-adv-x="888" d="M123 1151q0 134 94 228t227 94q134 0 228 -94.5t94 -227.5t-94 -227.5t-228 -94.5q-133 0 -227 94t-94 228zM215 1151q0 -101 65.5 -168.5t163.5 -67.5t164 67.5t66 168.5q0 100 -67 167.5t-165 67.5t-162.5 -67t-64.5 -168z" />
<glyph unicode="&#xb1;" horiz-adv-x="3264" d="M102 492v96h3060v-96h-3060z" />
<glyph unicode="&#xb2;" horiz-adv-x="729" d="M123 584v82l344 436q47 61 47 127q0 71 -39.5 113t-109.5 42q-66 0 -109 -38t-43 -117h-90q0 105 66.5 171t175.5 66q108 0 174.5 -64.5t66.5 -172.5q0 -53 -15.5 -92t-53.5 -86l-306 -385h375v-82h-483z" />
<glyph unicode="&#xb3;" horiz-adv-x="761" d="M123 807h92q4 -77 51.5 -114.5t116.5 -37.5q72 0 119 45t47 123q0 166 -172 166h-17v80h17q78 0 116.5 41.5t38.5 116.5t-42.5 116t-108.5 41q-68 0 -109 -38t-47 -105h-90q7 104 75.5 164.5t170.5 60.5q108 0 175 -65t67 -172q0 -143 -117 -195q133 -50 133 -211 q0 -118 -72.5 -184t-183.5 -66q-110 0 -183 59.5t-77 174.5z" />
<glyph unicode="&#xb4;" horiz-adv-x="948" d="M399 1208l199 301h137l-217 -301h-119z" />
<glyph unicode="&#xb6;" horiz-adv-x="1155" d="M123 1069q0 76 28.5 145.5t81.5 124t136.5 87t185.5 32.5h436v-1929h-104v1831h-252v-1831h-105v1151q-94 0 -172.5 33.5t-129 89t-78 124.5t-27.5 142z" />
<glyph unicode="&#xb7;" horiz-adv-x="430" d="M139 465v151h152v-151h-152z" />
<glyph unicode="&#xb8;" horiz-adv-x="1024" d="M371 -451l147 308h113l-131 -308h-129z" />
<glyph unicode="&#xb9;" horiz-adv-x="460" d="M102 1362v51l166 45h64v-876h-90v780h-140z" />
<glyph unicode="&#xba;" horiz-adv-x="882" d="M143 1085q0 204 93 297q82 82 206 82q126 0 205 -82q54 -53 73 -127t19 -170t-19 -170.5t-73 -128.5q-79 -79 -205 -79q-124 0 -206 79q-93 95 -93 299zM223 1085q0 -83 12.5 -144.5t53.5 -102.5q64 -64 153 -64q87 0 154 64q41 41 53.5 102.5t12.5 144.5 q0 84 -12.5 145.5t-53.5 102.5q-65 62 -154 62q-91 0 -153 -62q-41 -41 -53.5 -102.5t-12.5 -145.5z" />
<glyph unicode="&#xbb;" horiz-adv-x="700" d="M0 272v916h119l377 -389v-140l-377 -387h-119z" />
<glyph unicode="&#xbc;" horiz-adv-x="1538" d="M117 1362v51l166 45h63v-876h-90v780h-139zM334 0l680 1458h92l-680 -1458h-92zM911 137v82l316 655h96l-313 -655h250v246h90v-246h106v-82h-106v-137h-90v137h-349z" />
<glyph unicode="&#xbd;" horiz-adv-x="1533" d="M109 1362v51l165 45h64v-876h-90v780h-139zM303 0l680 1458h92l-680 -1458h-92zM969 0v82l344 436q47 61 47 127q0 71 -40 113.5t-110 42.5q-66 0 -108.5 -38t-42.5 -118h-90q0 105 66 171.5t175 66.5q108 0 175 -65t67 -173q0 -51 -16 -90t-54 -88l-305 -385h375v-82 h-483z" />
<glyph unicode="&#xbe;" horiz-adv-x="1630" d="M82 807h92q4 -77 51.5 -114.5t116.5 -37.5q72 0 119 45t47 123q0 166 -172 166h-17v80h17q78 0 117 41.5t39 116.5t-43 116t-109 41q-68 0 -109 -38t-47 -105h-90q7 104 75.5 164.5t170.5 60.5q108 0 175 -65t67 -172q0 -143 -117 -195q133 -50 133 -211 q0 -118 -72.5 -184t-183.5 -66q-110 0 -183 59.5t-77 174.5zM446 0l680 1458h93l-680 -1458h-93zM1004 137v82l315 655h96l-313 -655h250v246h90v-246h106v-82h-106v-137h-90v137h-348z" />
<glyph unicode="&#xbf;" horiz-adv-x="958" d="M113 -123q0 65 22.5 121.5t67.5 122.5l174 256q37 53 37 123v96h104v-92q0 -57 -13.5 -98t-45.5 -87l-172 -253q-36 -54 -53 -95t-17 -94q0 -114 75 -191t187 -77q117 0 189.5 78.5t72.5 189.5h105q0 -149 -103.5 -254.5t-263.5 -105.5q-157 0 -261.5 103t-104.5 257z M397 850v137h138v-137h-138z" />
<glyph unicode="&#xc0;" horiz-adv-x="1212" d="M20 0l537 1458h98l537 -1458h-119l-127 354h-680l-127 -354h-119zM301 453h610l-305 858zM440 1898h138l198 -301h-119z" />
<glyph unicode="&#xc1;" horiz-adv-x="1212" d="M20 0l537 1458h98l537 -1458h-119l-127 354h-680l-127 -354h-119zM301 453h610l-305 858zM428 1597l199 301h137l-217 -301h-119z" />
<glyph unicode="&#xc2;" horiz-adv-x="1212" d="M20 0l537 1458h98l537 -1458h-119l-127 354h-680l-127 -354h-119zM301 453h610l-305 858zM303 1597l252 301h111l252 -301h-117l-191 224l-190 -224h-117z" />
<glyph unicode="&#xc3;" horiz-adv-x="1212" d="M20 0l537 1458h98l537 -1458h-119l-127 354h-680l-127 -354h-119zM301 453h610l-305 858zM311 1712q44 44 81 67t56.5 27t45.5 4q41 0 70 -11t71 -38q68 -43 115 -43q26 0 52 13t68 55l62 -60q-44 -44 -81.5 -67t-57 -27t-43.5 -4q-39 0 -70 12t-72 37q-73 43 -114 43 q-29 0 -53.5 -12t-67.5 -55z" />
<glyph unicode="&#xc4;" horiz-adv-x="1212" d="M20 0l537 1458h98l537 -1458h-119l-127 354h-680l-127 -354h-119zM301 453h610l-305 858zM334 1618v158h119v-158h-119zM760 1618v158h119v-158h-119z" />
<glyph unicode="&#xc5;" horiz-adv-x="1212" d="M20 0l537 1458h98l537 -1458h-119l-127 354h-680l-127 -354h-119zM301 453h610l-305 858zM375 1763q0 97 68 165.5t165 68.5t165.5 -68.5t68.5 -165.5t-68.5 -166t-165.5 -69t-165 69t-68 166zM459 1763q0 -61 43.5 -105t105.5 -44t106 44t44 105t-44 104.5t-106 43.5 t-105.5 -43.5t-43.5 -104.5z" />
<glyph unicode="&#xc6;" horiz-adv-x="1720" d="M0 0l772 1458h938v-98h-774v-582h659v-98h-659v-582h774v-98h-883v354h-522l-184 -354h-121zM352 453h475v907z" />
<glyph unicode="&#xc7;" horiz-adv-x="1388" d="M123 729q0 133 21.5 244.5t68.5 205t118.5 158t176 99.5t235.5 34q128 0 232.5 -34t169 -90.5t100.5 -121.5t41 -134h-117q-16 113 -132.5 197.5t-293.5 84.5q-514 0 -514 -643q0 -142 32 -258.5t94 -203t160.5 -134t225.5 -47.5q177 0 294.5 85t133.5 198h117 q-5 -69 -41.5 -134.5t-101 -121.5t-169.5 -90.5t-233 -34.5q-159 0 -278.5 54t-193 153.5t-110 233t-36.5 300.5zM463 -451l147 308h113l-131 -308h-129z" />
<glyph unicode="&#xc8;" horiz-adv-x="1161" d="M164 0v1458h885v-98h-775v-576h660v-98h-660v-588h775v-98h-885zM422 1898h137l199 -301h-119z" />
<glyph unicode="&#xc9;" horiz-adv-x="1161" d="M164 0v1458h885v-98h-775v-576h660v-98h-660v-588h775v-98h-885zM469 1597l199 301h137l-217 -301h-119z" />
<glyph unicode="&#xca;" horiz-adv-x="1161" d="M164 0v1458h885v-98h-775v-576h660v-98h-660v-588h775v-98h-885zM297 1597l252 301h110l252 -301h-116l-191 224l-190 -224h-117z" />
<glyph unicode="&#xcb;" horiz-adv-x="1161" d="M164 0v1458h885v-98h-775v-576h660v-98h-660v-588h775v-98h-885zM319 1618v158h119v-158h-119zM745 1618v158h119v-158h-119z" />
<glyph unicode="&#xcc;" horiz-adv-x="458" d="M55 1898h138l198 -301h-119zM174 0v1458h111v-1458h-111z" />
<glyph unicode="&#xcd;" horiz-adv-x="458" d="M66 1597l198 301h137l-217 -301h-118zM174 0v1458h111v-1458h-111z" />
<glyph unicode="&#xce;" horiz-adv-x="458" d="M-76 1597l252 301h111l252 -301h-117l-191 224l-190 -224h-117zM174 0v1458h111v-1458h-111z" />
<glyph unicode="&#xcf;" horiz-adv-x="458" d="M0 1618v158h119v-158h-119zM174 0v1458h111v-1458h-111zM340 1618v158h119v-158h-119z" />
<glyph unicode="&#xd0;" horiz-adv-x="1464" d="M72 692v86h166v680h481q130 0 234.5 -36t176 -100t119.5 -154t70 -195.5t22 -227.5q0 -166 -39.5 -301.5t-116 -235t-195.5 -154t-271 -54.5h-481v692h-166zM348 94h344q124 0 220 38t155 99.5t97 148t52.5 175.5t14.5 190q0 307 -135.5 463t-403.5 156h-344v-586h365 v-86h-365v-598z" />
<glyph unicode="&#xd1;" horiz-adv-x="1390" d="M164 0v1458h110l842 -1263v1263h111v-1458h-111l-842 1268v-1268h-110zM387 1712q44 44 80.5 67t56 27t45.5 4q41 0 70.5 -11.5t71.5 -37.5q68 -43 114 -43q26 0 52.5 13t68.5 55l62 -60q-44 -44 -82 -67t-57 -27t-44 -4q-27 0 -53 7.5t-43 16t-45 25.5q-73 43 -115 43 q-29 0 -53 -12t-67 -55z" />
<glyph unicode="&#xd2;" horiz-adv-x="1560" d="M123 729q0 165 40 299t119.5 233.5t206 154t291.5 54.5q173 0 301 -53.5t205.5 -153.5t114.5 -233t37 -301q0 -169 -39 -303t-118 -232.5t-206 -151t-295 -52.5q-317 0 -487 193t-170 546zM229 729q0 -310 140.5 -476.5t410.5 -166.5q144 0 250.5 46t172 132t97 202 t31.5 263t-30 262t-94 202.5t-171.5 134t-255.5 46.5q-140 0 -246.5 -47.5t-172.5 -134t-99 -203t-33 -260.5zM637 1898h137l199 -301h-119z" />
<glyph unicode="&#xd3;" horiz-adv-x="1560" d="M123 729q0 165 40 299t119.5 233.5t206 154t291.5 54.5q173 0 301 -53.5t205.5 -153.5t114.5 -233t37 -301q0 -169 -39 -303t-118 -232.5t-206 -151t-295 -52.5q-317 0 -487 193t-170 546zM229 729q0 -310 140.5 -476.5t410.5 -166.5q144 0 250.5 46t172 132t97 202 t31.5 263t-30 262t-94 202.5t-171.5 134t-255.5 46.5q-140 0 -246.5 -47.5t-172.5 -134t-99 -203t-33 -260.5zM623 1597l198 301h137l-217 -301h-118z" />
<glyph unicode="&#xd4;" horiz-adv-x="1560" d="M123 729q0 165 40 299t119.5 233.5t206 154t291.5 54.5q173 0 301 -53.5t205.5 -153.5t114.5 -233t37 -301q0 -169 -39 -303t-118 -232.5t-206 -151t-295 -52.5q-317 0 -487 193t-170 546zM229 729q0 -310 140.5 -476.5t410.5 -166.5q144 0 250.5 46t172 132t97 202 t31.5 263t-30 262t-94 202.5t-171.5 134t-255.5 46.5q-140 0 -246.5 -47.5t-172.5 -134t-99 -203t-33 -260.5zM489 1597l252 301h111l252 -301h-117l-190 224l-191 -224h-117z" />
<glyph unicode="&#xd5;" horiz-adv-x="1560" d="M123 729q0 165 40 299t119.5 233.5t206 154t291.5 54.5q173 0 301 -53.5t205.5 -153.5t114.5 -233t37 -301q0 -169 -39 -303t-118 -232.5t-206 -151t-295 -52.5q-317 0 -487 193t-170 546zM229 729q0 -310 140.5 -476.5t410.5 -166.5q144 0 250.5 46t172 132t97 202 t31.5 263t-30 262t-94 202.5t-171.5 134t-255.5 46.5q-140 0 -246.5 -47.5t-172.5 -134t-99 -203t-33 -260.5zM522 1712q44 44 81 67t56.5 27t45.5 4q41 0 70 -11t71 -38q68 -43 115 -43q26 0 52 13t68 55l62 -60q-44 -44 -81.5 -67t-57 -27t-43.5 -4q-39 0 -70 12t-72 37 q-73 43 -114 43q-29 0 -53.5 -12t-67.5 -55z" />
<glyph unicode="&#xd6;" horiz-adv-x="1560" d="M123 729q0 165 40 299t119.5 233.5t206 154t291.5 54.5q173 0 301 -53.5t205.5 -153.5t114.5 -233t37 -301q0 -169 -39 -303t-118 -232.5t-206 -151t-295 -52.5q-317 0 -487 193t-170 546zM229 729q0 -310 140.5 -476.5t410.5 -166.5q144 0 250.5 46t172 132t97 202 t31.5 263t-30 262t-94 202.5t-171.5 134t-255.5 46.5q-140 0 -246.5 -47.5t-172.5 -134t-99 -203t-33 -260.5zM489 1618v158h119v-158h-119zM915 1618v158h119v-158h-119z" />
<glyph unicode="&#xd7;" horiz-adv-x="966" d="M102 223l318 318l-318 317l64 64l317 -318l318 318l63 -64l-317 -317l317 -318l-63 -63l-318 317l-317 -317z" />
<glyph unicode="&#xd8;" horiz-adv-x="1560" d="M123 729q0 165 40 299t119.5 233.5t206 154t291.5 54.5q154 0 275 -45l59 123h109l-80 -164q295 -170 295 -655q0 -169 -39 -303t-118 -232.5t-206 -151t-295 -52.5q-161 0 -280 49l-62 -129h-108l82 172q-142 88 -215.5 252t-73.5 395zM229 729q0 -402 228 -555 l555 1161q-103 39 -232 39q-140 0 -246.5 -47.5t-172.5 -134t-99 -203t-33 -260.5zM543 129q101 -43 237 -43q144 0 250.5 46t172 132t97 202t31.5 263q0 418 -231 563z" />
<glyph unicode="&#xd9;" horiz-adv-x="1327" d="M164 473v985h110v-971q0 -181 107.5 -291t282.5 -110t282 110t107 291v971h110v-985q0 -214 -139.5 -349.5t-359.5 -135.5t-360 135.5t-140 349.5zM477 1898h137l199 -301h-119z" />
<glyph unicode="&#xda;" horiz-adv-x="1327" d="M164 473v985h110v-971q0 -181 107.5 -291t282.5 -110t282 110t107 291v971h110v-985q0 -214 -139.5 -349.5t-359.5 -135.5t-360 135.5t-140 349.5zM530 1597l199 301h137l-217 -301h-119z" />
<glyph unicode="&#xdb;" horiz-adv-x="1327" d="M164 473v985h110v-971q0 -181 107.5 -291t282.5 -110t282 110t107 291v971h110v-985q0 -214 -139.5 -349.5t-359.5 -135.5t-360 135.5t-140 349.5zM356 1597l252 301h111l252 -301h-117l-190 224l-191 -224h-117z" />
<glyph unicode="&#xdc;" horiz-adv-x="1327" d="M164 473v985h110v-971q0 -181 107.5 -291t282.5 -110t282 110t107 291v971h110v-985q0 -214 -139.5 -349.5t-359.5 -135.5t-360 135.5t-140 349.5zM385 1618v158h119v-158h-119zM811 1618v158h119v-158h-119z" />
<glyph unicode="&#xdd;" horiz-adv-x="1011" d="M20 1458h119l371 -737l362 737h119l-430 -854v-604h-110v604zM403 1597l199 301h137l-217 -301h-119z" />
<glyph unicode="&#xde;" horiz-adv-x="1220" d="M164 0v1458h110v-303h424q194 0 317.5 -112.5t123.5 -307.5t-123.5 -307.5t-317.5 -112.5h-424v-315h-110zM274 414h412q157 0 249.5 81t92.5 240t-92.5 240.5t-249.5 81.5h-412v-643z" />
<glyph unicode="&#xdf;" horiz-adv-x="1026" d="M143 0v1075q0 185 104.5 291.5t289.5 106.5q163 0 268.5 -84.5t105.5 -247.5q0 -164 -129 -250q77 -42 104 -96.5t27 -157.5v-363q0 -131 -79 -204q-42 -37 -86.5 -53.5t-108.5 -16.5h-111v92h90q47 0 75 10t59 35q57 45 57 150v366q0 96 -47 140q-47 47 -133 47h-101v92 h80q91 0 146 57.5t55 151.5q0 108 -72 174q-68 65 -213 65q-142 0 -209 -81.5t-67 -223.5v-1075h-105z" />
<glyph unicode="&#xe0;" horiz-adv-x="1034" d="M102 494q0 -76 11.5 -145.5t39.5 -136.5t70.5 -116t110.5 -78.5t153 -29.5q71 0 128 17t87.5 41t51 48t26.5 41l6 17v-152h105v987h-105v-145q-2 6 -8 17t-29.5 38t-54 47.5t-86.5 37.5t-123 17q-83 0 -149.5 -28t-109.5 -75t-71.5 -112.5t-40.5 -137t-12 -152.5z M207 494q0 67 6.5 122t25.5 111t50.5 94t84 62t122.5 24t123 -24t84 -62t50.5 -93.5t26 -111t6.5 -122.5t-6.5 -122.5t-26 -111.5t-50.5 -94t-84 -62t-123 -24t-122.5 24t-84 62t-50.5 94t-25.5 111.5t-6.5 122.5zM340 1509h137l199 -301h-119z" />
<glyph unicode="&#xe1;" horiz-adv-x="1034" d="M102 494q0 -76 11.5 -145.5t39.5 -136.5t70.5 -116t110.5 -78.5t153 -29.5q71 0 128 17t87.5 41t51 48t26.5 41l6 17v-152h105v987h-105v-145q-2 6 -8 17t-29.5 38t-54 47.5t-86.5 37.5t-123 17q-83 0 -149.5 -28t-109.5 -75t-71.5 -112.5t-40.5 -137t-12 -152.5z M207 494q0 67 6.5 122t25.5 111t50.5 94t84 62t122.5 24t123 -24t84 -62t50.5 -93.5t26 -111t6.5 -122.5t-6.5 -122.5t-26 -111.5t-50.5 -94t-84 -62t-123 -24t-122.5 24t-84 62t-50.5 94t-25.5 111.5t-6.5 122.5zM393 1208l199 301h137l-217 -301h-119z" />
<glyph unicode="&#xe2;" horiz-adv-x="1034" d="M102 494q0 -76 11.5 -145.5t39.5 -136.5t70.5 -116t110.5 -78.5t153 -29.5q71 0 128 17t87.5 41t51 48t26.5 41l6 17v-152h105v987h-105v-145q-2 6 -8 17t-29.5 38t-54 47.5t-86.5 37.5t-123 17q-83 0 -149.5 -28t-109.5 -75t-71.5 -112.5t-40.5 -137t-12 -152.5z M207 494q0 67 6.5 122t25.5 111t50.5 94t84 62t122.5 24t123 -24t84 -62t50.5 -93.5t26 -111t6.5 -122.5t-6.5 -122.5t-26 -111.5t-50.5 -94t-84 -62t-123 -24t-122.5 24t-84 62t-50.5 94t-25.5 111.5t-6.5 122.5zM213 1208l252 301h110l252 -301h-116l-191 224l-190 -224 h-117z" />
<glyph unicode="&#xe3;" horiz-adv-x="1034" d="M102 494q0 -76 11.5 -145.5t39.5 -136.5t70.5 -116t110.5 -78.5t153 -29.5q71 0 128 17t87.5 41t51 48t26.5 41l6 17v-152h105v987h-105v-145q-2 6 -8 17t-29.5 38t-54 47.5t-86.5 37.5t-123 17q-83 0 -149.5 -28t-109.5 -75t-71.5 -112.5t-40.5 -137t-12 -152.5z M207 494q0 67 6.5 122t25.5 111t50.5 94t84 62t122.5 24t123 -24t84 -62t50.5 -93.5t26 -111t6.5 -122.5t-6.5 -122.5t-26 -111.5t-50.5 -94t-84 -62t-123 -24t-122.5 24t-84 62t-50.5 94t-25.5 111.5t-6.5 122.5zM217 1323q44 44 80.5 67t56 27t45.5 4q41 0 70.5 -11.5 t71.5 -37.5q68 -43 114 -43q26 0 52.5 13t68.5 55l62 -60q-44 -44 -82 -67t-57 -27t-44 -4q-27 0 -53 7.5t-43 16t-45 25.5q-73 43 -115 43q-29 0 -53 -12t-67 -55z" />
<glyph unicode="&#xe4;" horiz-adv-x="1034" d="M102 494q0 -76 11.5 -145.5t39.5 -136.5t70.5 -116t110.5 -78.5t153 -29.5q71 0 128 17t87.5 41t51 48t26.5 41l6 17v-152h105v987h-105v-145q-2 6 -8 17t-29.5 38t-54 47.5t-86.5 37.5t-123 17q-83 0 -149.5 -28t-109.5 -75t-71.5 -112.5t-40.5 -137t-12 -152.5z M207 494q0 67 6.5 122t25.5 111t50.5 94t84 62t122.5 24t123 -24t84 -62t50.5 -93.5t26 -111t6.5 -122.5t-6.5 -122.5t-26 -111.5t-50.5 -94t-84 -62t-123 -24t-122.5 24t-84 62t-50.5 94t-25.5 111.5t-6.5 122.5zM260 1229v157h119v-157h-119zM686 1229v157h119v-157h-119z " />
<glyph unicode="&#xe5;" horiz-adv-x="1034" d="M102 494q0 -76 11.5 -145.5t39.5 -136.5t70.5 -116t110.5 -78.5t153 -29.5q71 0 128 17t87.5 41t51 48t26.5 41l6 17v-152h105v987h-105v-145q-2 6 -8 17t-29.5 38t-54 47.5t-86.5 37.5t-123 17q-83 0 -149.5 -28t-109.5 -75t-71.5 -112.5t-40.5 -137t-12 -152.5z M207 494q0 67 6.5 122t25.5 111t50.5 94t84 62t122.5 24t123 -24t84 -62t50.5 -93.5t26 -111t6.5 -122.5t-6.5 -122.5t-26 -111.5t-50.5 -94t-84 -62t-123 -24t-122.5 24t-84 62t-50.5 94t-25.5 111.5t-6.5 122.5zM287 1386q0 97 68 165.5t165 68.5t165.5 -68.5t68.5 -165.5 t-68.5 -166t-165.5 -69t-165 69t-68 166zM371 1386q0 -62 43.5 -105.5t105.5 -43.5t106 44t44 105t-44 104.5t-106 43.5t-105.5 -43.5t-43.5 -104.5z" />
<glyph unicode="&#xe6;" horiz-adv-x="1712" d="M102 494q0 81 12 152.5t40.5 137t71.5 112.5t109.5 75t149.5 28q64 0 118 -15.5t84.5 -35t55 -45.5t32 -39t11.5 -22v145h105v-147q4 7 11 17.5t33.5 38.5t58 49t85 38.5t113.5 17.5q186 0 295.5 -128.5t109.5 -352.5v-47h-702q0 -188 83 -288.5t239 -100.5 q105 0 178.5 49.5t95.5 134.5h100q-11 -59 -36.5 -107t-69.5 -87.5t-114.5 -61.5t-162.5 -22q-68 0 -125.5 16t-91 38.5t-58 45.5t-33.5 39l-9 16v-145h-105v150q-1 -4 -4 -11.5t-13 -24t-23.5 -32t-37.5 -33t-53.5 -31t-73 -22t-94.5 -8.5q-85 0 -153 29.5t-110.5 78.5 t-70.5 116t-39.5 136.5t-11.5 145.5zM207 494q0 -67 6.5 -122.5t25.5 -111.5t50.5 -94t84 -62t122.5 -24t123 24t84 62t50.5 94t26 111.5t6.5 122.5t-6.5 122.5t-26 111t-50.5 93.5t-84 62t-123 24t-122.5 -24t-84 -62t-50.5 -94t-25.5 -111t-6.5 -122zM895 555h598 q-1 52 -12 102t-35 95.5t-58 79.5t-84.5 54.5t-111.5 20.5q-74 0 -130.5 -27.5t-91 -76.5t-53 -111t-22.5 -137z" />
<glyph unicode="&#xe7;" d="M113 494q0 235 116.5 370t317.5 135q179 0 273 -73.5t116 -196.5h-102q-22 85 -99.5 133.5t-187.5 46.5q-171 0 -262 -133q-37 -54 -52.5 -118.5t-15.5 -163.5q0 -100 15.5 -164.5t52.5 -118.5q90 -131 266 -131q108 0 186.5 50t100.5 134h100q-11 -59 -37.5 -107 t-72 -87t-117.5 -60.5t-164 -21.5q-201 0 -317.5 135.5t-116.5 370.5zM332 -451l147 308h113l-131 -308h-129z" />
<glyph unicode="&#xe8;" d="M113 494q0 -247 107.5 -376.5t311.5 -129.5q92 0 162.5 22t114.5 61.5t69.5 87.5t36.5 107h-100q-22 -85 -96.5 -135.5t-181.5 -50.5q-153 0 -236.5 102t-83.5 289h711v47q0 224 -109 352.5t-295 128.5q-188 0 -299.5 -134.5t-111.5 -370.5zM217 555q6 149 87 250.5 t220 101.5q76 0 134 -31.5t92 -84.5t52 -112t21 -124h-606zM352 1509h137l199 -301h-119z" />
<glyph unicode="&#xe9;" d="M113 494q0 -247 107.5 -376.5t311.5 -129.5q92 0 162.5 22t114.5 61.5t69.5 87.5t36.5 107h-100q-22 -85 -96.5 -135.5t-181.5 -50.5q-153 0 -236.5 102t-83.5 289h711v47q0 224 -109 352.5t-295 128.5q-188 0 -299.5 -134.5t-111.5 -370.5zM217 555q6 149 87 250.5 t220 101.5q76 0 134 -31.5t92 -84.5t52 -112t21 -124h-606zM389 1208l199 301h137l-217 -301h-119z" />
<glyph unicode="&#xea;" d="M113 494q0 -247 107.5 -376.5t311.5 -129.5q92 0 162.5 22t114.5 61.5t69.5 87.5t36.5 107h-100q-22 -85 -96.5 -135.5t-181.5 -50.5q-153 0 -236.5 102t-83.5 289h711v47q0 224 -109 352.5t-295 128.5q-188 0 -299.5 -134.5t-111.5 -370.5zM213 1208l252 301h110 l252 -301h-116l-191 224l-190 -224h-117zM217 555q6 149 87 250.5t220 101.5q76 0 134 -31.5t92 -84.5t52 -112t21 -124h-606z" />
<glyph unicode="&#xeb;" d="M113 494q0 -247 107.5 -376.5t311.5 -129.5q92 0 162.5 22t114.5 61.5t69.5 87.5t36.5 107h-100q-22 -85 -96.5 -135.5t-181.5 -50.5q-153 0 -236.5 102t-83.5 289h711v47q0 224 -109 352.5t-295 128.5q-188 0 -299.5 -134.5t-111.5 -370.5zM217 555q6 149 87 250.5 t220 101.5q76 0 134 -31.5t92 -84.5t52 -112t21 -124h-606zM260 1229v157h119v-157h-119zM686 1229v157h119v-157h-119z" />
<glyph unicode="&#xec;" horiz-adv-x="415" d="M25 1509h137l198 -301h-118zM152 0v987h104v-987h-104z" />
<glyph unicode="&#xed;" horiz-adv-x="415" d="M51 1208l199 301h137l-217 -301h-119zM152 0v987h104v-987h-104z" />
<glyph unicode="&#xee;" horiz-adv-x="415" d="M-98 1208l252 301h110l252 -301h-117l-190 224l-191 -224h-116zM152 0v987h104v-987h-104z" />
<glyph unicode="&#xef;" horiz-adv-x="415" d="M0 1229v157h119v-157h-119zM152 0v987h104v-987h-104zM297 1229v157h119v-157h-119z" />
<glyph unicode="&#xf0;" d="M123 494q0 274 123 397q108 108 274 108q98 0 154 -34l-137 231h-240v78h195l-109 184h109l106 -184h162v-78h-117l148 -252q80 -137 103.5 -225.5t23.5 -224.5q0 -275 -123 -398q-108 -108 -275 -108q-166 0 -274 108q-123 123 -123 398zM227 494q0 -112 16.5 -193.5 t71.5 -136.5q84 -84 205 -84t205 84q55 55 71.5 136.5t16.5 193.5t-16.5 193t-71.5 136q-84 84 -205 84t-205 -84q-55 -55 -71.5 -136t-16.5 -193z" />
<glyph unicode="&#xf1;" horiz-adv-x="1046" d="M143 0v987h105v-117q111 129 291 129q165 0 262 -94q102 -97 102 -274v-631h-104v612q0 143 -70.5 219t-202.5 76t-205 -77.5t-73 -217.5v-612h-105zM213 1323q44 44 80.5 67t56 27t45.5 4q41 0 70.5 -11.5t71.5 -37.5q68 -43 114 -43q26 0 52.5 13t68.5 55l62 -60 q-44 -44 -82 -67t-57 -27t-44 -4q-27 0 -53 7.5t-43 16t-45 25.5q-73 43 -115 43q-29 0 -53.5 -12t-67.5 -55z" />
<glyph unicode="&#xf2;" horiz-adv-x="999" d="M102 494q0 274 123 397q108 108 275 108q166 0 274 -108q123 -123 123 -397q0 -275 -123 -398q-108 -108 -274 -108q-167 0 -275 108q-123 123 -123 398zM207 494q0 -112 16.5 -193.5t71.5 -136.5q84 -84 205 -84t205 84q55 55 71.5 136.5t16.5 193.5t-16.5 193 t-71.5 136q-84 84 -205 84t-205 -84q-55 -55 -71.5 -136t-16.5 -193zM322 1509h137l198 -301h-118z" />
<glyph unicode="&#xf3;" horiz-adv-x="999" d="M102 494q0 274 123 397q108 108 275 108q166 0 274 -108q123 -123 123 -397q0 -275 -123 -398q-108 -108 -274 -108q-167 0 -275 108q-123 123 -123 398zM207 494q0 -112 16.5 -193.5t71.5 -136.5q84 -84 205 -84t205 84q55 55 71.5 136.5t16.5 193.5t-16.5 193 t-71.5 136q-84 84 -205 84t-205 -84q-55 -55 -71.5 -136t-16.5 -193zM336 1208l199 301h137l-217 -301h-119z" />
<glyph unicode="&#xf4;" horiz-adv-x="999" d="M102 494q0 274 123 397q108 108 275 108q166 0 274 -108q123 -123 123 -397q0 -275 -123 -398q-108 -108 -274 -108q-167 0 -275 108q-123 123 -123 398zM190 1208l252 301h111l252 -301h-117l-190 224l-191 -224h-117zM207 494q0 -112 16.5 -193.5t71.5 -136.5 q84 -84 205 -84t205 84q55 55 71.5 136.5t16.5 193.5t-16.5 193t-71.5 136q-84 84 -205 84t-205 -84q-55 -55 -71.5 -136t-16.5 -193z" />
<glyph unicode="&#xf5;" horiz-adv-x="999" d="M102 494q0 274 123 397q108 108 275 108q166 0 274 -108q123 -123 123 -397q0 -275 -123 -398q-108 -108 -274 -108q-167 0 -275 108q-123 123 -123 398zM201 1323q44 44 80.5 67t56 27t45.5 4q41 0 70 -11t71 -38q68 -43 115 -43q26 0 52.5 13t68.5 55l61 -60 q-44 -44 -81.5 -67t-57 -27t-43.5 -4q-27 0 -53 7.5t-43 16t-45 25.5q-73 43 -115 43q-29 0 -53.5 -12t-67.5 -55zM207 494q0 -112 16.5 -193.5t71.5 -136.5q84 -84 205 -84t205 84q55 55 71.5 136.5t16.5 193.5t-16.5 193t-71.5 136q-84 84 -205 84t-205 -84 q-55 -55 -71.5 -136t-16.5 -193z" />
<glyph unicode="&#xf6;" horiz-adv-x="999" d="M102 494q0 274 123 397q108 108 275 108q166 0 274 -108q123 -123 123 -397q0 -275 -123 -398q-108 -108 -274 -108q-167 0 -275 108q-123 123 -123 398zM207 494q0 -112 16.5 -193.5t71.5 -136.5q84 -84 205 -84t205 84q55 55 71.5 136.5t16.5 193.5t-16.5 193 t-71.5 136q-84 84 -205 84t-205 -84q-55 -55 -71.5 -136t-16.5 -193zM238 1229v157h118v-157h-118zM664 1229v157h118v-157h-118z" />
<glyph unicode="&#xf7;" d="M102 492v96h836v-96h-836zM449 123v143h143v-143h-143zM449 813v143h143v-143h-143z" />
<glyph unicode="&#xf8;" horiz-adv-x="1019" d="M113 494q0 274 123 397q108 108 274 108q124 0 215 -61l82 139h98l-114 -192q116 -123 116 -391q0 -275 -123 -398q-108 -108 -274 -108q-123 0 -215 59l-82 -137h-98l114 192q-116 123 -116 392zM217 494q0 -99 12.5 -173.5t53.5 -130.5l393 666q-73 51 -166 51 q-121 0 -205 -84q-55 -55 -71.5 -136t-16.5 -193zM344 131q73 -51 166 -51q121 0 205 84q55 55 71.5 136.5t16.5 193.5q0 98 -12.5 172.5t-53.5 130.5z" />
<glyph unicode="&#xf9;" horiz-adv-x="1046" d="M143 356v631h105v-612q0 -143 70 -219t202 -76t205.5 77.5t73.5 217.5v612h104v-987h-104v117q-111 -129 -291 -129q-165 0 -262 94q-103 98 -103 274zM299 1509h137l199 -301h-119z" />
<glyph unicode="&#xfa;" horiz-adv-x="1046" d="M143 356v631h105v-612q0 -143 70 -219t202 -76t205.5 77.5t73.5 217.5v612h104v-987h-104v117q-111 -129 -291 -129q-165 0 -262 94q-103 98 -103 274zM389 1208l199 301h137l-217 -301h-119z" />
<glyph unicode="&#xfb;" horiz-adv-x="1046" d="M143 356v631h105v-612q0 -143 70 -219t202 -76t205.5 77.5t73.5 217.5v612h104v-987h-104v117q-111 -129 -291 -129q-165 0 -262 94q-103 98 -103 274zM207 1208l252 301h110l252 -301h-116l-191 224l-190 -224h-117z" />
<glyph unicode="&#xfc;" horiz-adv-x="1046" d="M143 356v631h105v-612q0 -143 70 -219t202 -76t205.5 77.5t73.5 217.5v612h104v-987h-104v117q-111 -129 -291 -129q-165 0 -262 94q-103 98 -103 274zM254 1229v157h119v-157h-119zM680 1229v157h119v-157h-119z" />
<glyph unicode="&#xfd;" horiz-adv-x="864" d="M20 987h115l297 -864l297 864h115l-459 -1255q-27 -80 -68 -115q-66 -63 -186 -63h-49v92h39q81 0 116 28.5t64 106.5l80 219zM309 1208l199 301h137l-217 -301h-119z" />
<glyph unicode="&#xfe;" horiz-adv-x="1011" d="M143 -471v1929h105v-598q60 80 130 109.5t163 29.5q75 0 138.5 -23.5t102.5 -62.5q127 -127 127 -419q0 -293 -127 -420q-39 -39 -102.5 -62.5t-138.5 -23.5q-93 0 -163 29.5t-130 109.5v-598h-105zM248 494q0 -69 5.5 -122.5t23 -111t47 -95t81 -61.5t121.5 -24 t121.5 24t81.5 62t47.5 94.5t23 110.5t5.5 123t-5.5 122.5t-23 110.5t-47.5 94.5t-81.5 61.5t-121.5 24t-121.5 -24t-81 -61.5t-47 -94.5t-23 -110.5t-5.5 -122.5z" />
<glyph unicode="&#xff;" horiz-adv-x="864" d="M20 987h115l297 -864l297 864h115l-459 -1255q-27 -80 -68 -115q-66 -63 -186 -63h-49v92h39q81 0 116 28.5t64 106.5l80 219zM156 1229v157h118v-157h-118zM582 1229v157h118v-157h-118z" />
<glyph unicode="&#x152;" horiz-adv-x="2318" d="M123 729q0 165 40 299t119.5 233.5t206 154t291.5 54.5q396 0 555 -280v268h865v-96h-756l2 -584h641v-86h-641l-2 -596h762v-96h-871v272q-162 -282 -555 -282q-317 0 -487 193t-170 546zM229 729q0 -310 140.5 -476.5t410.5 -166.5q144 0 250.5 46t172 132t97 202 t31.5 263t-30 262t-94 202.5t-171.5 134t-255.5 46.5q-140 0 -246.5 -47.5t-172.5 -134t-99 -203t-33 -260.5z" />
<glyph unicode="&#x153;" horiz-adv-x="1710" d="M102 494q0 274 123 397q108 108 275 108q116 0 208.5 -56.5t139.5 -158.5q47 103 138 159t210 56q185 0 293 -128t108 -353v-47h-700q0 -187 82.5 -287t237.5 -102q107 0 181.5 49.5t96.5 134.5h100q-11 -59 -36.5 -107t-69.5 -87.5t-114.5 -61.5t-162.5 -22 q-263 0 -364 215q-47 -103 -139.5 -159t-208.5 -56q-167 0 -275 108q-123 123 -123 398zM207 494q0 -112 16.5 -193.5t71.5 -136.5q84 -84 205 -84t205 84q55 55 71.5 136.5t16.5 193.5t-16.5 193t-71.5 136q-84 84 -205 84t-205 -84q-55 -55 -71.5 -136t-16.5 -193z M897 555h596q-3 51 -13.5 99t-34 94.5t-56 81t-82.5 56t-111 21.5q-86 0 -159 -45t-105 -121q-19 -46 -25.5 -81t-9.5 -105z" />
<glyph unicode="&#x178;" horiz-adv-x="1011" d="M20 1458h119l371 -737l362 737h119l-430 -854v-604h-110v604zM238 1618v158h118v-158h-118zM664 1618v158h118v-158h-118z" />
<glyph unicode="&#x2c6;" horiz-adv-x="1024" d="M205 1208l252 301h110l252 -301h-117l-190 224l-190 -224h-117z" />
<glyph unicode="&#x2dc;" horiz-adv-x="1024" d="M197 1323q44 44 80.5 67t56 27t45.5 4q41 0 70 -11t71 -38q68 -43 115 -43q26 0 52.5 13t68.5 55l61 -60q-44 -44 -81.5 -67t-57 -27t-43.5 -4q-27 0 -53 7.5t-43 16t-45 25.5q-73 43 -115 43q-29 0 -53.5 -12t-67.5 -55z" />
<glyph unicode="&#x2000;" horiz-adv-x="998" />
<glyph unicode="&#x2001;" horiz-adv-x="1997" />
<glyph unicode="&#x2002;" horiz-adv-x="998" />
<glyph unicode="&#x2003;" horiz-adv-x="1997" />
<glyph unicode="&#x2004;" horiz-adv-x="665" />
<glyph unicode="&#x2005;" horiz-adv-x="499" />
<glyph unicode="&#x2006;" horiz-adv-x="332" />
<glyph unicode="&#x2007;" horiz-adv-x="332" />
<glyph unicode="&#x2008;" horiz-adv-x="249" />
<glyph unicode="&#x2009;" horiz-adv-x="399" />
<glyph unicode="&#x200a;" horiz-adv-x="110" />
<glyph unicode="&#x2010;" horiz-adv-x="1114" d="M123 492v96h868v-96h-868z" />
<glyph unicode="&#x2011;" horiz-adv-x="1114" d="M123 492v96h868v-96h-868z" />
<glyph unicode="&#x2012;" horiz-adv-x="1114" d="M123 492v96h868v-96h-868z" />
<glyph unicode="&#x2013;" d="M102 492v96h836v-96h-836z" />
<glyph unicode="&#x2014;" horiz-adv-x="1656" d="M102 492v96h1452v-96h-1452z" />
<glyph unicode="&#x2018;" horiz-adv-x="409" d="M53 1112l211 346h66l-127 -346h-150z" />
<glyph unicode="&#x2019;" horiz-adv-x="409" d="M78 1112l127 346h149l-211 -346h-65z" />
<glyph unicode="&#x201a;" horiz-adv-x="552" d="M139 -203l127 346h150l-211 -346h-66z" />
<glyph unicode="&#x201c;" horiz-adv-x="634" d="M68 1110l211 346h65l-127 -346h-149zM303 1110l211 346h66l-127 -346h-150z" />
<glyph unicode="&#x201d;" horiz-adv-x="651" d="M70 1110l127 346h149l-211 -346h-65zM305 1110l127 346h150l-211 -346h-66z" />
<glyph unicode="&#x201e;" horiz-adv-x="866" d="M139 -203l127 346h150l-211 -346h-66zM444 -203l127 346h150l-211 -346h-66z" />
<glyph unicode="&#x2022;" horiz-adv-x="995" d="M164 684q0 138 98 236t236 98t235.5 -98t97.5 -236t-97.5 -236t-235.5 -98t-236 98t-98 236z" />
<glyph unicode="&#x2026;" horiz-adv-x="1380" d="M143 0v152h152v-152h-152zM614 0v152h152v-152h-152zM1085 0v152h152v-152h-152z" />
<glyph unicode="&#x202f;" horiz-adv-x="399" />
<glyph unicode="&#x2039;" horiz-adv-x="608" d="M70 543l401 401v-135l-266 -266l266 -267v-135z" />
<glyph unicode="&#x203a;" horiz-adv-x="608" d="M137 141v135l266 267l-266 266v135l402 -401z" />
<glyph unicode="&#x205f;" horiz-adv-x="499" />
<glyph unicode="&#x20ac;" horiz-adv-x="1251" d="M123 596v82h106v53v66h-106v82h110q7 110 26 197.5t55 163t89 125t130 77.5t176 28q100 0 179 -29.5t128 -80t77 -112t35 -132.5h-114q-12 111 -93 181.5t-212 76.5q-78 0 -138.5 -25t-101 -68t-68.5 -107t-42.5 -135t-20.5 -160h436v-82h-440v-66v-53h440v-82h-436 q14 -256 101 -385t270 -129q131 6 212 76.5t93 181.5h114q-7 -71 -35 -132.5t-77 -112t-128 -80t-179 -29.5q-240 0 -350 150.5t-128 459.5h-108z" />
<glyph unicode="&#x2122;" horiz-adv-x="1732" d="M113 1374v84h589v-84h-249v-790h-91v790h-249zM864 584v874h90l273 -553l272 553h90v-874h-90v671l-225 -446h-94l-226 446v-671h-90z" />
<glyph unicode="&#x25fc;" horiz-adv-x="983" d="M0 0v983h983v-983h-983z" />
<glyph unicode="&#xfb01;" horiz-adv-x="929" d="M61 909v78h136v213q0 116 61.5 187t175.5 71h90v-92h-71q-76 0 -114 -43t-38 -121v-215h473v-987h-104v909h-369v-909h-104v909h-136zM657 1329v129h129v-129h-129z" />
<glyph unicode="&#xfb02;" horiz-adv-x="915" d="M61 909v78h136v213q0 116 61.5 187t175.5 71h338v-1458h-104v1366h-215q-76 0 -114 -43t-38 -121v-215h223v-78h-223v-909h-104v909h-136z" />
</font>
</defs>
</svg>
